<svg width="25" height="28" viewBox="0 0 25 28" fill="none" xmlns="http://www.w3.org/2000/svg">
<path d="M18.6026 0C16.9684 0.0937993 15.0923 0.993074 13.9769 2.13827C12.9691 3.17986 12.174 4.7268 12.4986 6.22339C14.2745 6.26959 16.0571 5.34702 17.1243 4.18083C18.1207 3.09024 18.8761 1.56799 18.6026 0ZM18.6995 6.22066C16.1355 6.22066 15.0635 7.7765 13.2876 7.7765C11.4606 7.7765 9.7905 6.31909 7.57945 6.31909C4.57185 6.32049 0 9.07239 0 15.5557C0 21.4539 5.41092 27.9998 8.46529 27.9998C10.3206 28.018 10.7704 26.8476 13.2876 26.835C15.8076 26.8168 16.3514 28.0152 18.2095 27.9998C20.3015 27.9844 21.9353 25.7136 23.1287 23.9147C23.9847 22.6267 24.3367 21.9691 25 20.5131C20.0776 19.2811 19.0982 11.4403 25 9.81907C23.886 7.94168 20.6341 6.22066 18.6995 6.22066Z" fill="white"/>
</svg>
