<svg preserveAspectRatio="none" width="100%" height="100%" overflow="visible" style="display: block;" viewBox="0 0 45 48" fill="none" xmlns="http://www.w3.org/2000/svg">
<g id="Icona_Apple">
<path id="Apple" d="M28.6026 10C26.9684 10.0938 25.0923 10.9931 23.9769 12.1383C22.9691 13.1799 22.174 14.7268 22.4986 16.2234C24.2745 16.2696 26.0571 15.347 27.1243 14.1808C28.1207 13.0902 28.8761 11.568 28.6026 10ZM28.6995 16.2207C26.1355 16.2207 25.0635 17.7765 23.2876 17.7765C21.4606 17.7765 19.7905 16.3191 17.5794 16.3191C14.5719 16.3205 10 19.0724 10 25.5557C10 31.4539 15.4109 37.9998 18.4653 37.9998C20.3206 38.018 20.7704 36.8476 23.2876 36.835C25.8076 36.8168 26.3514 38.0152 28.2095 37.9998C30.3015 37.9844 31.9353 35.7137 33.1287 33.9147C33.9847 32.6267 34.3367 31.9691 35 30.5131C30.0776 29.2811 29.0982 21.4403 35 19.8191C33.886 17.9417 30.6341 16.2207 28.6995 16.2207Z" fill="var(--fill-0, white)"/>
</g>
</svg>
