<svg width="86" height="118" viewBox="0 0 86 118" fill="none" xmlns="http://www.w3.org/2000/svg">
<g clip-path="url(#clip0_12370_4565)">
<path d="M68.8175 59.1118C68.8175 59.1118 86.9403 97.9307 85.9616 117.689H29.8125C29.8125 117.689 39.2947 93.1694 31.739 67.5395C31.739 67.5395 61.093 68.4831 68.8175 59.1118Z" fill="#1D1D1B"/>
<path d="M72.851 49.6084C72.851 49.6084 77.9691 55.622 75.9408 64.2312C75.9408 64.2312 72.9829 79.6163 35.6759 81.112C35.6759 81.112 28.74 80.875 28.8001 81.112C28.8603 81.3491 23.3716 71.2829 35.5983 70.3925C36.2003 70.3487 69.6413 67.1405 72.851 49.6084Z" fill="#1D1D1B"/>
<path d="M46.3449 10.1326C44.5842 9.89703 43.4923 9.81367 43.4923 9.81367C43.4923 9.81367 32.0553 -1.09726 28.3504 0.201647C28.3504 0.201647 14.175 10.9533 9.02026 22.4635C9.02026 22.4635 6.76508 27.0622 15.7858 22.9192C15.7858 22.9192 19.5455 18.5765 23.774 14.5936C26.5497 11.9792 29.5274 9.5198 31.7763 8.54557C32.5622 8.20516 33.259 8.04608 33.8272 8.12507C33.8272 8.12507 39.6263 9.03432 39.6263 10.2033C39.6263 10.2033 33.4014 3.77428 23.774 14.5936L29.478 19.6364L30.6425 19.0308C30.6425 19.0308 23.1875 35.245 22.4775 40.7612C22.4775 40.7612 18.3951 48.2833 9.34265 52.1279C9.34265 52.1279 -1.22472 79.4382 42.001 69.8657C60.683 68.2616 69.1483 61.7067 69.1483 61.7067C79.2115 44.4614 71.7226 23.8784 71.7226 23.8784L71.5211 23.4769C72.2311 17.9607 68.6811 11.9431 68.6811 11.9431C64.0662 1.74653 56.0788 1.57937 56.0788 1.57937C54.8363 0.0749537 48.4463 6.9284 48.4463 6.9284C47.0263 9.93722 39.2164 18.7965 39.2164 18.7965C37.9739 22.8083 43.2989 24.8142 43.2989 24.8142C50.5763 27.3215 58.5637 20.4681 58.5637 20.4681" fill="#1D1D1B"/>
<path d="M44.627 9.58859C43.0575 9.36574 42.0843 9.2869 42.0843 9.2869C42.0843 9.2869 31.8898 -1.0327 28.5874 0.195827C28.5874 0.195827 15.952 10.3648 11.3573 21.2511C11.3573 21.2511 9.3471 25.6006 17.3878 21.6821C17.3878 21.6821 20.739 17.5748 24.5081 13.8078C26.9823 11.335 29.6365 9.00895 31.6411 8.08753C32.3416 7.76557 32.9628 7.61511 33.4692 7.68981C33.4692 7.68981 38.6382 8.54978 38.6382 9.65546C38.6382 9.65546 33.0897 3.57484 24.5081 13.8078L29.5925 18.5773L30.6305 18.0045C30.6305 18.0045 23.9854 33.3399 23.3526 38.5571C23.3526 38.5571 19.7136 45.6715 11.6446 49.3078C11.6446 49.3078 2.22531 75.1379 40.7549 66.0842C57.4074 64.567 64.953 58.3674 64.953 58.3674C73.923 42.0568 67.2477 22.5893 67.2477 22.5893L67.0681 22.2097C67.7009 16.9924 64.5366 11.3009 64.5366 11.3009C60.423 1.65698 53.3033 1.49887 53.3033 1.49887C52.1958 0.0759972 46.5001 6.55799 46.5001 6.55799C45.2344 9.40375 38.2729 17.7829 38.2729 17.7829C37.1654 21.5772 41.9118 23.4744 41.9118 23.4744C48.3987 25.8459 55.5183 19.3639 55.5183 19.3639" fill="white"/>
<path d="M44.627 9.58858L42.0833 9.30061C40.096 7.36254 38.0323 5.48886 35.849 3.77249C33.809 2.33744 31.1709 -0.0789259 28.6523 0.276178C21.9862 6.04426 15.6627 12.6576 11.8712 20.7001C11.5827 21.2956 11.212 22.0027 11.4444 22.6233C11.7187 23.2111 12.6303 23.0888 13.1832 22.9947C14.4277 22.7934 16.3697 21.852 17.1953 21.5251C20.1235 18.0018 23.1752 14.5881 26.549 11.4798C28.2937 9.95407 30.0139 8.35665 32.2513 7.54478C32.8093 7.33442 33.53 7.36399 34.0776 7.50706C35.5024 7.80835 36.9558 8.07526 38.2575 8.77502C38.5742 8.98514 38.9052 9.18043 38.9375 9.65529C38.9375 9.65529 38.9522 10.3762 38.9522 10.3762C36.3471 7.39949 32.2989 7.73647 29.2424 9.85063C27.5964 10.9509 26.0607 12.5233 24.7613 14.0195C24.7612 14.0195 24.7342 13.5674 24.7342 13.5674L29.8272 18.3274L29.4268 18.2772L30.4636 17.7026L31.3425 17.2155C29.7763 20.8604 28.2772 24.5456 26.881 28.2583C25.6608 31.6544 24.2906 35.1288 23.7242 38.6809C21.7015 42.2939 18.8106 45.36 15.3914 47.6751C14.2681 48.4588 13.0483 49.091 11.8157 49.6863L12.0352 49.45C7.92316 63.4584 17.1606 68.633 29.9483 67.4298C33.5704 67.1499 37.1617 66.4809 40.7189 65.6875C42.5915 65.4888 45.2192 65.1856 47.0436 64.8318C53.0843 63.7943 60.0159 61.4344 64.6458 58.1985C64.6458 58.1985 65.6452 56.1543 65.6452 56.1543C70.4597 45.9313 70.2346 32.827 66.8141 22.3298C67.1248 18.5879 66.039 14.7544 64.3094 11.4272C64.3094 11.4272 64.3054 11.4195 64.3054 11.4195L64.2974 11.4027L63.4688 9.6568C61.4362 5.77105 57.8341 2.19308 53.2984 1.72952C53.2984 1.72952 53.1751 1.71981 53.1751 1.71981L53.1211 1.64048C53.0078 1.47404 52.6763 1.51238 52.3627 1.64469C50.1149 2.83549 48.39 4.86644 46.6475 6.68718C46.2818 7.51529 45.442 8.72765 44.8196 9.62283C42.7849 12.459 40.5951 15.1761 38.3659 17.8599C37.4164 21.0257 41.1662 23.7701 44.1861 23.8878C48.389 24.1765 52.3637 21.9645 55.5185 19.364C52.0646 22.2673 47.4281 24.8456 42.7912 23.8008C40.1605 23.2143 37.2586 20.6871 38.1571 17.7492C40.3373 15.0231 42.5307 12.2865 44.5292 9.41958C45.1964 8.4522 45.8466 7.45911 46.3528 6.42862C47.8488 4.77125 49.3697 3.12102 51.1866 1.80009C51.6713 1.47767 52.1826 1.11796 52.8019 1.07038C53.0253 1.05334 53.3195 1.13864 53.4856 1.35717L53.3087 1.26824C58.0611 1.7265 61.7789 5.38016 63.9222 9.41753C63.9222 9.41753 64.7759 11.199 64.7759 11.199L64.7641 11.1748C66.4736 14.3366 67.8284 19.053 67.3225 22.0896C69.4027 28.0525 70.0599 34.4633 69.8905 40.7521C69.6935 46.1147 68.5624 51.5758 66.2731 56.4469C66.2731 56.4469 65.2605 58.536 65.2605 58.536L65.2314 58.5961C61.6932 61.2124 57.6197 62.8046 53.4638 64.0908C49.3992 65.328 45.0208 66.0457 40.7913 66.4808C37.5261 67.234 33.586 67.9877 30.0134 68.2647C16.5477 69.6007 6.89034 63.8227 11.2542 49.1656C11.2542 49.1657 11.3058 49.0098 11.3058 49.0098L11.4739 48.9291C16.2731 46.731 20.3949 42.9598 23.0092 38.3818C23.4218 35.4039 24.9982 31.2598 26.197 28.0011C27.4954 24.5916 28.8693 21.2176 30.3138 17.8675L30.7973 18.3065C30.6509 18.3827 29.6654 18.9314 29.539 18.9978L29.3577 18.8271L24.2824 14.0483L24.046 13.8257C27.5505 9.57059 33.718 4.80773 38.8594 9.45399C38.8594 9.45392 38.3391 9.65544 38.3391 9.65544C38.3639 9.61436 38.1692 9.40021 37.9512 9.2851C36.5045 8.54947 34.7718 8.19055 33.1798 7.959C31.8208 8.06542 30.6535 8.9376 29.5326 9.72003C24.9884 13.1941 21.2263 17.6109 17.4967 21.9053C15.8029 22.6328 14.0098 23.6393 12.0841 23.5215C10.3926 23.3252 10.8833 21.4455 11.4507 20.5052C12.6845 17.7839 14.3128 15.2583 16.1076 12.8857C19.7233 8.15522 23.9457 3.91527 28.5225 0.115373C29.2398 -0.138765 30.0004 0.0719011 30.6528 0.314441C35.0956 2.34403 38.6082 5.94633 42.0942 9.27701C42.051 9.26186 44.6352 9.59357 44.627 9.58858Z" fill="#1D1D1B"/>
<path d="M65.087 58.1201C65.087 58.1201 83.2098 97.5083 82.2312 117.556H26.082C26.082 117.556 35.5642 92.6772 28.0085 66.6714C28.0085 66.6714 57.3625 67.6288 65.087 58.1201Z" fill="#F5B132"/>
<path d="M65.0879 58.1201C71.4895 72.3011 77.2929 86.8658 80.7806 102.065C81.9384 106.988 82.7097 112.494 82.6133 117.575C82.6133 117.574 82.6171 117.937 82.6171 117.937L82.232 117.937C63.5156 117.948 44.7993 118.037 26.083 117.982L25.4805 117.981L25.6843 117.404C31.1482 101.223 32.2545 83.2916 27.739 66.75C27.7389 66.75 27.6444 66.38 27.6444 66.38C31.001 66.4814 34.3737 66.4158 37.7342 66.2349C46.2234 65.5886 59.0544 64.715 65.0879 58.1201ZM65.0879 58.1201C57.9531 66.2772 38.3746 66.9638 28.0004 66.953C28.0003 66.9527 28.2799 66.593 28.2799 66.593C29.5766 71.2783 30.5328 76.0691 30.9773 80.9172C31.9711 93.3158 30.4918 105.913 26.4817 117.708C26.4817 117.708 26.083 117.13 26.083 117.13C44.7993 117.075 63.5156 117.164 82.232 117.175L81.8507 117.537C82.0725 112.401 81.2101 107.251 80.1613 102.2C76.7865 87.0222 71.2267 72.3816 65.0879 58.1201Z" fill="#1D1D1B"/>
<path d="M69.1205 48.4775C69.1205 48.4775 74.2386 54.5793 72.2104 63.3147C72.2104 63.3147 69.2524 78.9254 31.9454 80.4432C31.9454 80.4432 25.0095 80.2026 25.0696 80.4432C25.1298 80.6837 19.6412 70.4699 31.8678 69.5665C32.4699 69.522 65.9108 66.2667 69.1205 48.4775Z" fill="#F5B132"/>
<path d="M69.121 48.4775C72.7623 53.2142 74.2176 60.4003 71.3766 65.8832C69.2265 69.5383 65.7224 72.2362 62.0215 74.2139C52.8284 79.0622 42.1855 80.2664 31.9639 80.8813C30.388 80.8463 26.8514 80.7229 25.3149 80.82C25.2786 80.8222 25.2468 80.8321 25.2522 80.8282C25.2721 80.8275 25.3386 80.7805 25.3567 80.7682C25.4447 80.7106 25.5253 80.5509 25.5126 80.4331C25.711 80.2217 24.2427 81.2647 24.742 80.7394C23.7334 78.8987 23.2506 76.7559 23.5746 74.6325C24.4525 69.5604 30.3529 69.2927 34.4344 68.8534C37.2469 68.4559 40.0385 67.9061 42.8056 67.2616C53.1313 64.6237 66.422 60.1139 69.121 48.4775ZM69.121 48.4775C68.1888 54.2485 63.7713 58.7401 58.92 61.6571C51.4972 66.0623 43.0141 68.3156 34.5465 69.6295C31.8378 70.0746 28.808 69.9438 26.4892 71.5543C23.7435 73.3347 23.9794 77.0688 25.2045 79.7411C25.2758 79.8974 25.351 80.0632 25.4248 80.19C25.4248 80.19 25.4343 80.1983 25.3867 80.1425C25.8947 79.6334 24.4284 80.6682 24.6337 80.4444C24.6326 80.117 24.9438 79.9595 25.2056 79.9476C27.4109 79.8117 29.8546 79.9488 31.9281 80.005C34.2047 79.8139 37.367 79.7367 39.5943 79.4473C50.2958 78.2341 64.7873 75.3249 70.9678 65.6479C73.8379 60.2931 72.5606 53.3361 69.121 48.4775Z" fill="#1D1D1B"/>
<path d="M27.828 63.7495C27.828 63.7495 33.3633 68.5037 27.6862 80.5388C27.6862 80.5388 27.9233 70.333 26.7025 66.4862C26.7025 66.4862 24.7768 75.3335 27.1389 80.6553C27.1389 80.6553 24.0713 76.5714 23.5114 67.5316C23.5114 67.5316 23.4803 75.8028 25.6942 79.3975C25.6942 79.3975 22.9638 76.0347 23.2833 74.6147C23.2833 74.6147 23.3832 79.4023 24.8725 80.5588C24.8725 80.5588 19.924 74.039 21.2207 67.9788C21.2207 67.9788 21.6301 77.1223 23.0643 78.575C23.0643 78.575 16.6365 70.8457 20.4169 64.4294L20.2129 64.1171C16.3599 70.0812 22.6464 78.0033 22.6464 78.0033C22.0245 77.1191 21.3538 76.774 21.3538 76.774C16.1199 73.8732 16.4485 66.535 16.4485 66.535C15.1678 68.5968 17.9478 74.4903 17.9478 74.4903C9.79974 62.2175 18.053 59.1621 18.053 59.1621C18.053 59.1621 19.8795 63.8069 27.828 63.7495Z" fill="#1D1D1B"/>
<path d="M25.5438 64.3492C25.5438 64.3492 31.5637 68.4737 27.2299 81.0543C27.2299 81.0543 26.355 70.8833 24.7228 67.1919C24.7228 67.1919 23.7713 76.196 26.6985 81.2296C26.6985 81.2296 23.2047 77.5033 21.6644 68.5779C21.6644 68.5779 22.5335 76.8033 25.1254 80.1362C25.1254 80.1362 22.0454 77.09 22.2084 75.6437C22.2084 75.6437 22.8286 80.3921 24.435 81.3799C24.435 81.3799 18.8064 75.4365 19.436 69.2713C19.436 69.2713 20.8379 78.3161 22.4216 79.6044C22.4216 79.6044 15.1909 72.6193 18.2506 65.8303L18.0139 65.542C14.8327 71.8894 21.944 79.0814 21.944 79.0814C21.2296 78.2701 20.5254 77.9999 20.5254 77.9999C15.0069 75.685 14.535 68.3545 14.535 68.3545C13.4862 70.5433 16.8911 76.0998 16.8911 76.0998C7.45576 64.7851 15.3276 60.8511 15.3276 60.8511C15.3276 60.8511 17.6487 65.2699 25.5438 64.3492Z" fill="white" stroke="#1D1D1B" stroke-width="0.25" stroke-miterlimit="10"/>
<path d="M13.6892 65.6949C10.5016 69.1193 19.2512 61.933 19.2512 61.933C18.9144 63.5981 25.7428 65.5416 25.7428 65.5416L24.6982 63.1923C26.0117 63.231 30.422 67.4375 30.422 67.4375C29.776 63.5706 24.1048 58.7712 24.1048 58.7712C40.2723 72.3498 28.3859 85.621 28.3859 85.621C42.6827 78.8515 36.0856 62.2725 36.0856 62.2725C41.5995 78.1456 35.4642 83.7595 35.4642 83.7595C35.5061 83.7135 35.5478 83.6675 35.5891 83.6216C45.0641 73.0839 39.0165 62.7888 39.0165 62.7888C40.7978 66.7519 40.7692 69.1881 40.7692 69.1881C41.2001 79.59 36.6773 83.0244 36.6773 83.0244C49.3 78.4352 42.0135 63.8025 42.0135 63.8025C47.0138 72.1534 43.6699 81.3854 43.6699 81.3854C46.239 76.9241 47.0382 69.8949 46.7822 68.3847C41.5445 37.4846 14.1046 46.7749 14.1046 46.7749C-2.27446 54.0691 0.156685 66.8813 0.156685 66.8813C0.156685 66.8813 -0.197672 57.8071 10.7127 52.2431C10.7127 52.2431 -3.56156 60.7838 5.51214 75.0063C5.51214 75.0063 5.9053 63.7082 8.55384 60.7958C8.55384 60.7958 4.33226 66.7175 12.0368 76.5287C12.0368 76.5287 8.49543 70.2629 9.85843 64.8204C9.85843 64.8204 8.35915 68.936 13.0632 77.4567C13.0632 77.4567 7.97618 62.2978 14.5344 61.7716C14.5344 61.7716 14.7489 64.5564 13.6892 65.6949Z" fill="#1D1D1B"/>
<path d="M14.122 64.349C11.1766 67.5786 19.262 60.8016 19.262 60.8016C18.9511 62.3722 25.263 64.2073 25.263 64.2073L24.297 61.9909C25.511 62.0276 29.5885 65.9968 29.5885 65.9968C28.9904 62.3489 23.7474 57.8201 23.7474 57.8201C38.6942 70.6332 27.7108 83.1494 27.7108 83.1494C40.9237 76.767 34.822 61.1259 34.822 61.1259C39.9223 76.1008 34.2528 81.3951 34.2528 81.3951C34.2915 81.3517 34.33 81.3084 34.3682 81.265C43.1234 71.3268 37.5312 61.6136 37.5312 61.6136C39.1786 65.3526 39.1527 67.6507 39.1527 67.6507C39.5535 77.4633 35.3739 80.7019 35.3739 80.7019C47.0399 76.3758 40.3015 62.5706 40.3015 62.5706C44.9252 70.4494 41.8367 79.1575 41.8367 79.1575C44.2103 74.9496 44.9473 68.3189 44.7103 66.8942C39.8617 37.744 14.5013 46.5012 14.5013 46.5012C-0.635907 53.3782 1.61427 65.4649 1.61427 65.4649C1.61427 65.4649 1.28455 56.9048 11.3676 51.6588C11.3676 51.6588 -1.82394 59.7121 6.56624 73.1307C6.56624 73.1307 6.92691 62.4729 9.37424 59.7263C9.37424 59.7263 5.47369 65.3114 12.5973 74.5685C12.5973 74.5685 9.32252 68.6569 10.581 63.5231C10.581 63.5231 9.19625 67.4051 13.5462 75.4442C13.5462 75.4442 8.84065 61.1431 14.9022 60.6482C14.9022 60.6482 15.1012 63.2752 14.122 64.349Z" fill="white"/>
<path d="M16.3215 52.6633C16.3215 52.6633 13.7389 49.8524 16.5781 48.8681C16.5781 48.8681 21.8832 47.5317 25.247 51.2289C25.247 51.2289 25.7624 53.0259 24.0985 54.5173C24.0985 54.5173 21.9326 56.1095 21.5619 56.0838C21.1913 56.0582 21.9326 56.1095 21.9326 56.1095C21.9326 56.1095 18.9662 56.2333 16.3215 52.6633Z" fill="white"/>
<path d="M16.3215 52.663C12.8951 48.5654 18.3083 48.141 21.2825 48.731C22.8864 49.04 24.3737 49.8089 25.578 50.9278C25.5781 50.9278 25.6572 50.9951 25.6572 50.9951C25.7437 51.4104 25.7423 51.7928 25.6893 52.163C25.486 54.2115 23.5443 55.2432 21.9136 56.1001C21.781 56.1659 21.594 56.2219 21.4527 56.1895C21.4495 56.2386 21.4829 55.7619 21.4692 55.9638C21.4699 55.9639 21.4729 55.9641 21.4736 55.9642L21.4805 55.9649L21.4944 55.9664L21.9391 56.0128L21.9365 56.2058C19.6125 56.0369 17.6628 54.4707 16.3215 52.663ZM16.3215 52.663C17.6485 54.4214 19.639 55.9964 21.9284 56.0127C21.9284 56.0127 21.9258 56.2057 21.9258 56.2057L21.4789 56.1904C21.4719 56.1897 21.4603 56.1902 21.4536 56.1895C21.4394 56.3914 21.473 55.9147 21.4692 55.9638C21.8585 55.949 22.2004 55.6008 22.5428 55.3998C23.4876 54.7313 24.514 54.0921 24.818 52.9175C24.9705 52.4318 24.9754 51.8083 24.8167 51.352C24.8156 51.3508 24.9195 51.5349 24.9146 51.5282C23.9812 50.3555 22.6653 49.4735 21.1952 49.093C18.3011 48.2693 12.9738 48.5306 16.3215 52.663Z" fill="#1D1D1B"/>
<path d="M17.2831 52.7789C16.6139 51.4433 16.9532 50.6757 16.9532 50.6757C17.5245 50.1672 17.8097 51.0329 17.8097 51.0329C17.8097 51.0329 18.4545 50.478 18.7007 50.9437C18.7007 50.9437 17.4718 53.1576 17.2831 52.7789Z" fill="#D81F1F"/>
<path d="M21.3091 54.3793C22.3614 52.9981 22.1824 51.9972 22.1824 51.9972C21.6845 51.2358 21.1631 52.1732 21.1631 52.1732C21.1631 52.1732 20.5986 51.3373 20.2168 51.818C20.2168 51.818 21.0104 54.7683 21.3091 54.3793Z" fill="#D81F1F"/>
<path d="M39.9161 25.0776L50.9639 26.2701C50.9639 26.2701 54.7663 24.4597 56.9355 38.1059C56.9355 38.1059 56.194 39.937 53.5946 34.0875C53.5946 34.0875 54.153 35.5903 53.9812 36.6844C53.9812 36.6844 53.5194 36.7345 50.6916 33.0622C50.6916 33.0622 51.2237 34.0091 50.995 35.4656C50.995 35.4656 45.9151 28.7909 39.4492 28.0499L41.0117 26.7722L39.9161 25.0776Z" fill="#1D1D1B"/>
<path d="M33.378 25.9381L22.3981 23.4539C22.3981 23.4539 19.3369 20.5658 12.8457 32.3562C12.8457 32.3562 12.9649 34.2725 17.3484 29.7589C17.3484 29.7589 16.3272 30.9539 16.1383 32.0111C16.1383 32.0111 16.565 32.2064 20.4638 29.7599C20.4638 29.7599 19.6473 30.4545 19.3959 31.8619C19.3959 31.8619 26.4249 27.3958 32.8649 28.8102L31.7795 27.1348L33.378 25.9381Z" fill="#1D1D1B"/>
<path d="M38.9473 23.8237L49.9952 25.0162C49.9952 25.0162 53.7976 23.2058 55.9668 36.852C55.9668 36.852 55.2252 38.6831 52.6259 32.8336C52.6259 32.8336 53.1843 34.3364 53.0124 35.4305C53.0124 35.4305 52.5506 35.4806 49.7228 31.8082C49.7228 31.8082 50.255 32.7552 50.0262 34.2117C50.0262 34.2117 44.9463 27.537 38.4805 26.796L40.043 25.5183L38.9473 23.8237Z" fill="white"/>
<path d="M38.9464 23.8237C42.2612 24.1221 46.7417 24.4171 50.0245 24.7366C50.0244 24.7366 49.8734 24.7622 49.8734 24.7622C50.6288 24.4909 51.3185 24.7676 51.8472 25.1344C55.1128 28.0658 55.5309 32.8552 56.4076 36.9058C54.9636 39.3623 52.7263 34.111 52.2232 33.0121C52.2231 33.012 53.0373 32.6808 53.0373 32.6808C53.3836 33.7092 53.5952 34.7486 53.3801 35.846C53.1908 35.8491 52.8864 35.8804 52.75 35.7849C51.3888 34.7981 50.4573 33.3345 49.4064 32.051C49.4064 32.0509 50.0692 31.6136 50.0692 31.6136C50.1942 31.8581 50.2559 32.0545 50.3184 32.279C50.5901 33.1951 50.4334 34.2124 50.2684 35.1327C50.2684 35.1327 49.7192 34.4443 49.7192 34.4443C46.81 30.8533 42.8952 27.5501 38.168 26.8758C38.2039 26.8349 39.8912 25.5526 39.996 25.4621C39.996 25.4621 39.981 25.5576 39.981 25.5576C39.6202 24.9595 39.2908 24.3715 38.9464 23.8237ZM38.9464 23.8237C39.346 24.4256 39.7558 24.9775 40.1391 25.5305L40.0881 25.5746L38.5605 26.8947L38.4942 26.6693C43.2774 27.1994 47.3117 30.4046 50.3315 33.9789C50.3314 33.979 49.6454 34.152 49.6454 34.152C49.75 33.4415 49.6877 32.6444 49.3748 32.0031L50.0375 31.5657C51.0018 32.7455 51.9641 34.1025 53.1214 35.0223C53.0465 35.007 53.1333 35.009 52.9671 35.0079C52.9671 35.0079 52.5915 35.3645 52.5915 35.3645C52.6867 34.6325 52.4767 33.75 52.2128 32.9866L53.027 32.6554C53.7422 34.0194 54.2818 35.7273 55.5115 36.6725C55.6233 36.7054 55.5273 36.7033 55.5731 36.6931L55.5474 36.9183C54.7662 33.081 54.3676 28.5298 51.4852 25.6392C51.079 25.3075 50.5045 25.148 50.1154 25.2701C46.4029 24.9507 42.7193 24.2406 38.9464 23.8237Z" fill="#1D1D1B"/>
<path d="M32.4092 24.6842L21.4293 22.2C21.4293 22.2 18.3681 19.3119 11.877 31.1022C11.877 31.1022 11.9962 33.0186 16.3796 28.505C16.3796 28.505 15.3584 29.7 15.1695 30.7572C15.1695 30.7572 15.5962 30.9525 19.495 28.5059C19.495 28.5059 18.6786 29.2006 18.4271 30.608C18.4271 30.608 25.4561 26.1419 31.8961 27.5563L30.8108 25.8809L32.4092 24.6842Z" fill="white"/>
<path d="M32.4084 24.6842C28.5616 23.8237 24.8121 23.2985 21.233 22.4068C20.9046 22.1715 20.3173 22.1316 19.8291 22.2918C17.1865 23.3327 15.5438 26.0286 14.0112 28.3068C13.3759 29.2749 12.827 30.3012 12.2476 31.3064L12.2993 31.0759C12.3319 31.0813 12.2506 31.0686 12.3742 31.0726C13.8447 30.6234 14.9317 29.2224 16.0632 28.1992C16.0632 28.1991 16.7132 28.7904 16.7132 28.7904C16.2182 29.3974 15.7312 30.1379 15.5876 30.8319L15.3447 30.3701C15.1965 30.3202 15.2715 30.3457 15.2023 30.3354C16.6097 29.872 17.9702 28.9396 19.2822 28.1689C19.2822 28.1688 19.7525 28.8091 19.7525 28.8091C19.2535 29.2858 18.934 29.9927 18.8055 30.6756L18.2197 30.2831C22.3156 27.9595 27.2146 26.3719 31.9224 27.4324C31.9225 27.4325 31.7887 27.6252 31.7887 27.6252L30.7492 25.9203L30.7128 25.8605C31.2594 25.4783 31.8299 25.1068 32.4084 24.6842ZM32.4084 24.6842C31.9009 25.074 31.3936 25.507 30.8534 25.9387L30.8707 25.8417C30.9774 25.9674 32.1019 27.6543 32.1709 27.7333C27.4577 26.8355 22.6469 28.5494 18.6331 30.9327C18.6331 30.9328 17.8984 31.3798 17.8984 31.3798C18.0394 30.4738 18.2214 29.4836 18.7816 28.7309C18.9145 28.5452 19.0373 28.3859 19.2358 28.2029L19.706 28.8432C18.2568 29.6779 16.8618 30.788 15.2113 31.1853C15.1042 31.2073 14.81 31.0715 14.6836 31.0321C14.6836 31.0321 14.7499 30.6824 14.7499 30.6824C14.9543 29.7131 15.4543 28.974 16.0443 28.2197C16.0443 28.2198 16.6943 28.8111 16.6943 28.8111C15.827 29.6773 12.012 33.7432 11.4395 31.0084C13.6023 27.5507 15.6168 23.2231 19.6694 21.6852C20.2874 21.5358 21.0029 21.5111 21.6238 21.993C24.6118 22.5867 29.1241 23.9311 32.4084 24.6842Z" fill="#1D1D1B"/>
<path d="M26.0684 39.2766C26.5693 39.0902 27.0703 38.9581 27.5713 38.8247L29.0741 38.8292H36.5887C37.0896 38.9652 37.5906 39.0972 38.0915 39.2766C37.5906 39.456 37.0896 39.588 36.5887 39.724H29.0741L27.5713 39.7285C27.0703 39.595 26.5693 39.463 26.0684 39.2766Z" fill="black"/>
<path d="M29.7805 38.4835C29.8227 34.7176 26.8017 31.6307 23.033 31.5886C19.2643 31.5465 16.175 34.5653 16.1329 38.3312C16.0908 42.097 19.1118 45.184 22.8805 45.2261C26.6492 45.2682 29.7384 42.2494 29.7805 38.4835Z" fill="#1D1D1B"/>
<path d="M48.0551 39.356C48.0989 35.5901 45.0793 32.5018 41.3106 32.458C37.5419 32.4142 34.4513 35.4315 34.4075 39.1974C34.3636 42.9633 37.3832 46.0516 41.1519 46.0954C44.9206 46.1392 48.0112 43.1218 48.0551 39.356Z" fill="#1D1D1B"/>
<path d="M28.0733 38.4856C28.1164 34.7197 25.0962 31.632 21.3275 31.5889C17.5588 31.5459 14.4687 34.5638 14.4257 38.3297C14.3826 42.0956 17.4028 45.1833 21.1715 45.2264C24.9402 45.2694 28.0302 42.2515 28.0733 38.4856Z" fill="#0E5572"/>
<path d="M46.348 39.3564C46.3918 35.5906 43.3722 32.5022 39.6036 32.4585C35.8349 32.4147 32.7442 35.432 32.7004 39.1979C32.6566 42.9638 35.6762 46.0521 39.4449 46.0959C43.2136 46.1397 46.3042 43.1223 46.348 39.3564Z" fill="#0E5572"/>
</g>
<defs>
<clipPath id="clip0_12370_4565">
<rect width="86" height="118" fill="white"/>
</clipPath>
</defs>
</svg>
