<?xml version="1.0" encoding="UTF-8"?>
<svg id="SOLO_CANE" data-name="SOLO CANE" xmlns="http://www.w3.org/2000/svg" viewBox="0 0 3476.204 2520.72416">
  <defs>
    <style>
      .cls-1 {
        fill: #0e5572;
      }

      .cls-2 {
        fill: #1d1d1b;
      }

      .cls-3, .cls-4 {
        fill: #fff;
      }

      .cls-4 {
        stroke: #1d1d1b;
        stroke-miterlimit: 10;
        stroke-width: .5px;
      }

      .cls-5 {
        fill: #f5b132;
      }

      .cls-6 {
        fill: #d81f1f;
      }
    </style>
  </defs>
  <g>
    <path class="cls-2" d="M2815.54501,894.32966s119.4694,256.0931,113.0178,386.4389h-370.14642s62.50842-161.7567,12.6997-330.8402c0,0,193.50752,6.2248,244.42892-55.5987Z"/>
    <path class="cls-2" d="M2842.14041,831.63626s33.7396,39.6722,20.3688,96.4681c0,0-19.4992,101.4973-265.43492,111.3651,0,0-45.7229-1.5638-45.3264,0,.3965,1.5639-35.7856-64.8441,44.815-70.7178,3.96892-.2892,224.41862-21.4543,245.57752-137.1154Z"/>
    <path class="cls-2" d="M2667.40149,571.20976c-11.6069-1.5544-18.805-2.1043-18.805-2.1043,0,0-75.3949-71.9809-99.8186-63.4117,0,0-93.44708,70.9302-127.428,146.864,0,0-14.8666,30.3384,44.59992,3.0066,0,0,24.78428-28.6497,52.65958-54.9253,18.2978-17.2476,37.92742-33.4724,52.7532-39.8994,5.1804-2.2458,9.7743-3.2953,13.5199-2.7741,0,0,38.2284,5.9984,38.2284,13.7106,0,0-41.0355-42.4133-104.5015,28.9629l37.6018,33.2682,7.6769-3.9951s-49.1446,106.9672-53.825,143.3581c0,0-26.9125,49.624-86.588,74.9874,0,0-69.66228,180.1693,215.29029,117.0183,123.15592-10.5827,178.96082-53.8262,178.96082-53.8262,66.339-113.7689,16.9705-249.5577,16.9705-249.5577l-1.3283-2.6484c4.6805-36.3909-18.7217-76.0901-18.7217-76.0901-30.4228-67.2681-83.07762-68.3708-83.07762-68.3708-8.1908-9.9248-50.3146,35.2882-50.3146,35.2882-9.3609,19.8495-60.8456,78.2956-60.8456,78.2956-8.1908,26.4661,26.9124,39.6991,26.9124,39.6991,47.9744,16.5414,100.62932-28.6716,100.62932-28.6716"/>
  </g>
  <g>
    <path class="cls-3" d="M2656.07589,567.62046c-10.346-1.4701-16.76208-1.9903-16.76208-1.9903,0,0-67.204-68.0795-88.97432-59.9748,0,0-83.2951,67.0859-113.5842,138.9042,0,0-13.2516,28.6941,39.75452,2.8436,0,0,22.09178-27.0969,46.93868-51.9484,16.3099-16.3129,33.807-31.6582,47.022-37.7369,4.6177-2.1241,8.7125-3.1167,12.0512-2.6238,0,0,34.0753,5.6733,34.0753,12.9675,0,0-36.5774-40.1146-93.1485,27.3932l33.5167,31.4651,6.8429-3.7786s-43.8055,101.1698-47.9774,135.5884c0,0-23.9888,46.9344-77.1811,70.9231,0,0-62.0943,170.4044,191.9011,110.6762,109.7763-10.0092,159.51872-50.9089,159.51872-50.9089,59.1319-107.6029,15.1267-236.0322,15.1267-236.0322l-1.1839-2.5048c4.1719-34.4186-16.6878-71.9661-16.6878-71.9661-27.1177-63.6222-74.05212-64.6652-74.05212-64.6652-7.3009-9.3869-44.84848,33.3756-44.84848,33.3756-8.34392,18.7737-54.23532,74.0521-54.23532,74.0521-7.3009,25.0317,23.9887,37.5475,23.9887,37.5475,42.7625,15.6448,89.6969-27.1177,89.6969-27.1177"/>
    <path class="cls-2" d="M2656.07589,567.62046c-5.5995-.7302-11.2138-1.3805-16.8374-1.8248-6.5509-6.4218-13.2946-12.6513-20.164-18.7279-13.7282-11.9934-27.8736-23.7957-43.5432-33.1371-7.10948-4.1854-17.4522-9.2736-24.449-7.3527-43.4598,37.5716-88.4072,85.0194-111.69548,138.0335-4.13752,9.5677-.398,12.3788,9.23028,10.5182,9.2389-1.8425,18.1534-6.0813,26.6978-10.1761,14.7482-19.0405,39.7115-46.5273,60.6637-65.8732,10.9293-9.6785,29.6316-26.7979,44.5688-27.4862,1.8525-.0625,4.4218.4967,6.2679.8317,3.7572.7143,7.4932,1.5189,11.2251,2.4559,6.3696,1.8108,17.4165,4.1697,21.2467,10.1012.5116.9561.805,1.9879.8421,3.0784l.5701,9.1118-6.7124-6.7316-.1956-.1962c-21.7178-19.3857-49.2869-8.6299-68.7098,8.5323-6.7159,5.7937-12.8728,12.3148-18.6461,19.18l-.31958-5.3439,33.59118,31.3855-4.6781-.5861c3.9872-2.2122,13.0207-7.2318,17.0858-9.4878-16.7335,39.2848-33.1754,79.0205-45.8897,119.8032-2.4849,8.3251-4.8296,16.9247-6.0994,25.5216,0-.0001-.1513.8855-.1513.8855l-.2914.563c-.307.5931-.587,1.0861-.8729,1.6018-6.4648,11.3673-14.62618,21.8312-23.4466,31.4653-9.3169,9.8464-19.7465,19.0592-31.0694,26.5266-7.48518,5.2135-15.615,9.4224-23.8313,13.3805l2.3305-2.5102c-3.6246,10.9095-5.6838,22.5378-6.2633,34.016-3.3412,74.3219,62.0754,87.5738,122.6461,82.4779,23.7273-1.8498,47.308-6.2513,70.62582-11.6317,7.06208-.8093,14.13858-1.5211,21.19068-2.399,20.575-2.8902,41.4828-7.0262,61.4196-12.9122,26.362-8.0159,52.67632-18.1746,75.07192-34.4376-.0002-.0003-.9822,1.1834-.9822,1.1834l3.4353-6.6061c1.9749-3.556,4.6209-9.7153,6.3792-13.4595,16.6743-39.0701,22.412-82.1392,20.5609-124.4013-1.1888-29.3192-6.4607-61.4916-14.6577-88.1978-.0001,0-1.1741-2.5093-1.1741-2.5093l-.3897-.833.0988-.9643c2.502-24.2276-5.2487-48.6532-16.0093-70.1382-3.7204-8.8454-8.2187-17.3449-13.5875-25.2624-12.8277-18.7548-32.12583-34.4514-55.01362-38.1412-1.38828-.221-2.71228-.3055-4.018-.3643,0,.0001-.737-.8657-.737-.8657-.1442-.1695-.2466-.2474-.4252-.3236-.1806-.0682-.44908-.1406-.8372-.1128-3.0718.3588-5.9344,2.272-8.63488,4.0685-11.664,8.3861-21.826,19.0518-31.55452,29.6077.0002.0001.3272-.5106.3272-.5106-1.7628,3.6043-3.7431,6.969-5.853,10.2145-14.4118,21.6011-33.4295,45.2512-48.9153,63.401-5.374,16.7056,9.2117,30.3913,23.3937,36.4044,13.2218,4.8693,27.8666,4.1171,41.2563.1657,17.5662-5.207,33.7175-14.7995,47.728-26.5217-13.833,12.0603-29.8461,22.0016-47.4047,27.5977-13.5884,4.3385-28.6096,5.3004-42.2399.5284-4.0136-1.5251-7.7433-3.7579-11.2672-6.2056-10.69558-7.3334-18.1297-19.4796-14.0809-32.7318,14.2492-18.1227,28.8551-36.1834,41.98832-55.186,4.26418-6.2988,8.66018-12.7636,11.85548-19.6027,6.5727-7.4756,13.3652-14.6356,20.6482-21.4252,5.5817-4.8513,21.1124-20.1783,27.7817-12.2975,0,.0002-1.8298-.92-1.8298-.92,2.4349.079,4.4911.458,6.8085.8783,33.17252,6.7599,57.20552,35.0192,69.90482,65.0149,11.0304,21.0958,19.8991,48.2256,17.2312,73.5179-.0001,0-.2909-1.797-.2909-1.797l1.1938,2.5.0822.172.0559.1679c12.1797,39.0134,17.4222,80.1583,16.0776,120.9729-1.4208,38.3396-9.8233,76.8778-27.2215,111.2239-.0001,0-3.53,6.8629-3.53,6.8629l-.3504.6814-.632.5026c-11.5556,8.832-24.4731,15.4688-37.6125,21.506-19.49383,8.7173-40.11852,15.4501-60.8773,20.3355-20.66532,5.0717-42.06782,8.0797-63.21782,10.2672-32.0589,7.5109-72.1268,14.5578-107.6777,12.3907-67.7654-3.3619-105.8392-41.4542-93.42948-110.7782,1.27248-6.7507,2.89458-13.3227,5.25878-19.816,8.35422-4.0008,16.67422-8.1568,24.306-13.4678,8.9973-5.9268,17.3789-12.9556,25.0446-20.5319,10.58462-10.6312,20.2365-22.5935,27.5293-35.7092-.0002,0-.44268,1.4482-.44268,1.4482l.79348-4.6636c1.3128-7.5353,3.5107-15.0064,5.6622-22.3128,8.09232-25.9179,17.99632-51.2544,28.1597-76.3794,4.5435-11.1507,9.1765-22.2346,13.9637-33.3108l5.6385,5.1219c-1.716.9732-7.7688,4.2437-9.4158,5.1704l-2.1143-1.9943-33.442-31.5444-2.6971-2.5441c12.75462-15.252,27.4253-30.0782,45.9353-38.1842,18.4319-8.2257,40.4454-6.551,55.1875,8.114,0-.0001-6.14218,2.38-6.14218,2.38-.03632.0995-.00892.2199.04038.2978-.0167.0382-.0015.0738.0375.0877-.04188-.0311-.0711-.0682-.08888-.116-.02872-.0529-.14762-.1445-.20922-.2218-4.55-3.5608-10.8881-4.9148-16.5087-6.5548-4.4209-1.1649-9.0204-2.1252-13.5352-2.9729-15.2435-2.6848-47.7302,29.8549-58.7682,40.6774-16.0192,16.0467-31.2751,32.972-45.81468,50.3505-9.271,4.3291-18.46422,8.6245-28.688,10.5697-10.11742,2.1386-19.40392-1.536-16.01012-13.7753,21.2394-52.5263,72.8837-106.1545,116.40612-141.8591,13.84778-4.4586,38.26508,15.5262,48.97148,23.8301,14.2326,11.5744,27.6658,24.0808,40.5381,37.135,4.98442.4226,11.2642,1.2958,16.6405,2.1105h0Z"/>
  </g>
  <g>
    <path class="cls-5" d="M2790.95361,887.78836s119.4693,259.8485,113.0178,392.1057h-370.14652s62.5084-164.1287,12.6997-335.6918c0,0,193.5075,6.3161,244.42902-56.4139Z"/>
    <path class="cls-2" d="M2790.95361,887.78836c41.7332,93.7084,79.2317,190.0204,102.2709,290.18,7.0939,33.4797,13.0115,67.5948,11.5987,101.9671-.0002,0-.0388.811-.0388.811l-.8131.0002-370.14632.1002-1.35918.0004.46868-1.2924c24.7268-72.0446,34.8226-149.1689,31.1874-225.1942-1.9305-33.5145-6.7733-67.2591-15.4382-99.7078l-2.7632-10.275-.22168-.8247c21.65388.5485,43.35848.0301,64.99848-1.2043,52.6394-3.4493,144.75452-12.4813,180.25632-54.5605h0ZM2790.95361,887.78836c-35.177,42.2271-127.52702,51.9915-180.19272,55.6121-21.389,1.2871-42.8134,1.8792-64.2567,1.4306l.6247-.8041,2.8038,10.2947c8.293,30.7896,13.29312,62.8146,15.42512,94.6268,4.83658,78.0102-5.42722,157.2676-30.64162,231.2847-.0008-.0001-.8912-1.2919-.8912-1.2919-.4748-.0098,373.89252-.844,369.29692.9074.8098-17.0327-.4121-34.133-2.5172-51.0744-6.5517-50.9155-20.406-100.5941-35.9453-149.4242-21.1369-65.0921-45.8731-129.0383-73.7058-191.5617h0Z"/>
  </g>
  <g>
    <path class="cls-5" d="M2817.54901,824.17556s33.7396,40.2539,20.3687,97.8828c0,0-19.4991,102.9857-265.43482,112.9982,0,0-45.723-1.5868-45.3265,0,.3966,1.5867-35.78558-65.7951,44.815-71.7549,3.9689-.2935,224.41862-21.7689,245.57762-139.1261Z"/>
    <path class="cls-2" d="M2817.54901,824.17556c21.5351,26.7569,29.8883,63.3126,22.9549,96.9217-.7503,4.3876-2.3192,8.5951-4.1685,12.6048-13.1766,27.6122-38.3919,47.4826-64.7783,61.7788-37.91293,20.3412-80.16242,30.9045-122.41312,37.4244-16.117,2.4692-34.6744,4.356-50.9169,5.5837-7.39028.6052-18.2318,1.0544-25.6905,1.5204-9.4324-.3004-18.9082-.5054-28.32078-.6355-4.41982-.0168-11.09382-.1905-15.43612.2376-.042.005-.0472.007-.031.0047.0235-.0052-.0355.0054.0976-.0258.118-.0391.0726-.0083.5268-.1961.3184-.1752-.0041.0521.8183-.4895.6691-.755.8508-.2325,1.7971-2.7672,7.1404-6.7824-9.1063,5.7477-8.7631,1.9695-.1805-.2346-.3022-.4238-.3338-.4755-8.6697-16.8031-12.6725-39.3-1.8503-56.1151,5.7486-8.9279,15.2048-14.8103,24.9612-18.0659,13.8111-4.8249,28.3269-4.4505,42.6107-6.7165,55.10762-8.1598,110.7834-21.5111,159.63392-49.0604,32.113-18.1932,61.5998-45.9862,69.3019-83.4981h0ZM2817.54901,824.17556c-5.5248,38.4418-34.7432,68.2997-66.6814,87.8699-48.81032,29.6197-105.01152,44.6046-160.97602,53.5424-9.2163,1.5763-18.634,2.1417-27.8925,3.5652-12.8,2.3065-25.6582,6.7244-32.842,17.6238-8.8282,13.1478-4.0241,33.2466,1.869,45.2273.4144-3.6702-15.8394,8.7422-8.6852,1.8912.9418-2.6182,1.2123-2.1236,1.92892-2.931.97238-.6648,1.29458-.7177,1.956-.9279,3.64168-.7618,7.398-.5507,10.96658-.6563,11.7899-.0561,23.7246.3342,35.462.7307,31.6771-1.2474,67.5223-4.6973,100.00542-10.6625,56.66-10.9576,130.0592-33.9414,159.0512-87.9515,1.7995-3.6902,3.4207-7.417,4.2169-11.3329,1.9315-8.1609,3.0905-16.4085,3.2592-24.7704.4953-25.1509-6.9821-50.6847-21.6381-71.218h0Z"/>
  </g>
  <g>
    <path class="cls-2" d="M2545.34039,924.92846s36.4903,31.3636-.9344,110.7604c0,0,1.5631-67.3285-6.4847-92.7067,0,0-12.69448,58.3671,2.8769,93.4756,0,0-20.22238-26.9417-23.9137-86.5784,0,0-.2049,54.5655,14.3894,78.2804,0,0-17.9988-22.1847-15.8929-31.5527,0,0,.6584,31.5842,10.4762,39.2141,0,0-32.6212-43.0119-24.0729-82.9921,0,0,2.6987,60.321,12.1528,69.9047,0,0-42.37328-50.991-17.4522-93.3203l-1.3447-2.0606c-25.3998,39.3464,16.042,91.6089,16.042,91.6089-4.0995-5.8326-8.5206-8.1094-8.5206-8.1094-34.50278-19.1371-32.3367-67.5484-32.3367-67.5484-8.4426,13.6022,9.8837,52.4827,9.8837,52.4827-53.7141-80.9656.6931-101.1223.6931-101.1223,0,0,12.0408,30.6426,64.4387,30.2641Z"/>
    <path class="cls-4" d="M2530.28129,928.88306s39.6843,27.2098,11.1148,110.2053c0,0-5.7672-67.0993-16.5268-91.452,0,0-6.2726,59.4014,13.024,92.6085,0,0-23.032-24.583-33.1861-83.4647,0,0,5.7295,54.2642,22.816,76.2516,0,0-20.30438-20.096-19.2296-29.6375,0,0,4.0888,31.3253,14.678,37.8424,0,0-37.1047-39.2097-32.9543-79.8824,0,0,9.2417,59.6699,19.6819,68.1688,0,0-47.6667-46.0812-27.496-90.8693l-1.5608-1.9022c-20.9709,41.875,25.9081,89.3215,25.9081,89.3215-4.7095-5.3523-9.3519-7.1349-9.3519-7.1349-36.3791-15.2719-39.4899-63.6317-39.4899-63.6317-6.9135,14.4395,15.5318,51.0967,15.5318,51.0967-62.1994-74.6448-10.3065-100.598-10.3065-100.598,0,0,15.3012,29.1517,67.3473,23.0779Z"/>
  </g>
  <g>
    <path class="cls-2" d="M2452.12759,937.75856c-21.01278,22.5911,36.6663-24.8178,36.6663-24.8178-2.2207,10.9845,42.7935,23.8064,42.7935,23.8064l-6.88558-15.4985c8.65868.255,37.73238,28.0059,37.73238,28.0059-4.2592-25.5103-41.6447-57.1727-41.6447-57.1727,106.5797,89.58,28.2218,177.1314,28.2218,177.1314,94.2478-44.6592,50.7582-154.033,50.7582-154.033,36.3486,104.717-4.0964,141.7525-4.0964,141.7525.2763-.3033.55072-.6066.8232-.9098,62.4614-69.5181,22.5946-137.4366,22.5946-137.4366,11.7424,26.1455,11.5536,42.217,11.5536,42.217,2.8409,68.6228-26.9745,91.2799-26.9745,91.2799,83.2116-30.2757,35.1775-126.8094,35.1775-126.8094,32.9627,55.0919,10.9194,115.9969,10.9194,115.9969,16.9361-29.4322,22.2046-75.8046,20.5171-85.7676-34.52818-203.8518-215.41809-142.5625-215.41809-142.5625-107.9738,48.1208-91.9472,132.6449-91.9472,132.6449,0,0-2.336-59.8642,69.5876-96.57,0,0-94.099,56.344-34.2833,150.1713,0,0,2.59182-74.5353,20.0514-93.7483,0,0-27.8294,39.0662,22.96042,103.7918,0,0-23.34542-41.3365-14.36032-77.2411,0,0-9.8834,27.1511,21.1265,83.3635,0,0-33.5347-100.0051,9.6984-103.4771,0,0,1.4143,18.372-5.5718,25.8829Z"/>
    <path class="cls-3" d="M2454.97489,928.88066c-19.4164,21.3058,33.8845-23.4026,33.8845-23.4026-2.0499,10.3614,39.5595,22.4675,39.5595,22.4675l-6.36808-14.6218c8.00318.2426,34.88248,26.4279,34.88248,26.4279-3.9428-24.0657-38.5056-53.9428-38.5056-53.9428,98.5324,84.5292,26.1278,167.1004,26.1278,167.1004,87.1018-42.1058,46.8784-145.292,46.8784-145.292,33.62192,98.7915-3.7523,133.7186-3.7523,133.7186.2554-.2861.509-.5721.7607-.8581,57.7159-65.5636,20.8511-129.6427,20.8511-129.6427,10.8596,24.6666,10.689,39.8273,10.689,39.8273,2.64242,64.7347-24.9104,86.1007-24.9104,86.1007,76.9046-28.54,32.4839-119.6148,32.4839-119.6148,30.4804,51.9778,10.1205,109.4261,10.1205,109.4261,15.6469-27.7602,20.50542-71.5035,18.9432-80.9023-31.963-192.308-199.14359-134.5354-199.14359-134.5354-99.7879,45.368-84.9543,125.106-84.9543,125.106,0,0-2.1736-56.4723,64.2962-91.0808,0,0-86.9616,53.1285-31.6519,141.6531,0,0,2.3777-70.3108,18.5109-88.4309,0,0-25.7132,36.8457,21.2471,97.9156,0,0-21.5879-38.9996-13.2917-72.8675,0,0-9.1286,25.6102,19.5471,78.6445,0,0-31.0199-94.346,8.9393-97.6108,0,0,1.3116,17.3312-5.1438,24.4148Z"/>
  </g>
  <g>
    <path class="cls-3" d="M2487.18881,840.85816s-17.02532-18.544,1.69178-25.0375c0,0,34.972-8.8159,57.1468,15.575,0,0,3.3979,11.8548-7.5711,21.6937,0,0-14.2783,10.5037-16.72148,10.3346-2.44312-.1691,2.44318.1691,2.44318.1691,0,0-19.5547.8172-36.98918-22.7349Z"/>
    <path class="cls-2" d="M2487.18881,840.85816c-7.58942-8.6662-12.36772-20.5215,1.33558-26.0642,5.1638-1.5104,10.3883-2.3898,15.7566-2.7791,10.8099-.7789,22.0772.8044,31.8151,6.057,5.2976,2.741,9.9692,6.6536,13.9773,11.065.4867,1.6208.7723,3.2749.8675,4.9321.6242,8.5092-3.5313,16.7873-10.0988,22.0336-3.4208,2.2295-6.8377,4.2975-10.4107,6.2732-2.5531,1.2773-5.1411,2.9509-8.1625,3.4737-.4413.0513-.9057-.0156-1.3407-.0874l-.0229-.0034-.0114-.0017-.0058-.0009c.65472-9.51.1828-2.6358.3312-4.7581l.1828.0272,2.9234.4349-.0585,4.2691c-.6425-.0259-1.1009-.0846-1.6217-.1585-14.8074-2.4637-26.7347-13.0788-35.45648-24.7125h0ZM2487.18881,840.85816c8.60088,11.511,21.98708,21.2507,36.89978,20.5988,0-.0001-.0584,4.269-.0584,4.269l-2.95538.028-.18472.0018c.1453-2.1225-.3344,4.7511.3274-4.7584.1901.0051.4944-.0094.6846-.0068-.078-.0235-.1597-.0252-.2392-.018-.06208-.0014-.0073-.0281-.0149-.029.1847-.0924.5636-.2978.9074-.5045,4.6859-3.0305,9.2433-6.9128,13.6292-10.4377-.0001-.0001-.2882.234-.2882.234,1.1533-1.2626,2.2968-2.5511,3.1646-4.0084,2.5653-3.9716,3.6007-9.0341,2.6409-13.5915l.9961,1.7871c-6.4455-7.0934-14.674-12.1286-23.8791-15.0002-4.64908-1.4971-9.5619-2.4408-14.5652-2.8854-4.9856-.4143-10.1555-.4107-15.1073.3377l.09042-.027c-.58982.186-1.19352.3596-1.77632.5732-11.8128,4.1389-6.3902,16.5727-.27168,23.4373h0Z"/>
  </g>
  <path class="cls-6" d="M2493.53309,841.62206c-4.4116-8.8115-2.1749-13.8755-2.1749-13.8755,3.7663-3.3545,5.6465,2.3567,5.6465,2.3567,0,0,4.2502-3.6607,5.8736-.5882,0,0-8.1014,14.6048-9.3452,12.107Z"/>
  <path class="cls-6" d="M2520.06581,852.18046c6.937-9.1119,5.75708-15.7145,5.75708-15.7145-3.2827-5.023-6.7194,1.1609-6.7194,1.1609,0,0-3.72168-5.5148-6.2385-2.3436,0,0,5.2317,19.4637,7.20082,16.8972Z"/>
  <g>
    <g>
      <path class="cls-2" d="M2625.02469,669.80196l72.8297,7.8668s25.0663-11.9432,39.3662,78.0821c0,0-4.8885,12.0804-22.0239-26.5094,0,0,3.6809,9.9141,2.54812,17.1317,0,0-3.04432.3305-21.68592-23.8964,0,0,3.5083,6.2473,2.0003,15.8559,0,0-33.4879-44.0337-76.112-48.9221l10.3004-8.4292-7.2229-11.1794Z"/>
      <path class="cls-2" d="M2581.92709,675.47986l-72.3818-16.3889s-20.1799-19.0529-62.9711,58.7295c0,0,.7858,12.6426,29.68262-17.1343,0,0-6.73222,7.8836-7.97722,14.8579,0,0,2.8127,1.2887,28.5144-14.8517,0,0-5.3821,4.5828-7.0396,13.8674,0,0,46.3365-29.4636,88.7902-20.1323l-7.155-11.053,10.5375-7.8946Z"/>
    </g>
    <g>
      <g>
        <path class="cls-3" d="M2618.62799,661.53036l72.82982,7.8668s25.06628-11.9432,39.36618,78.082c0,0-4.8885,12.0805-22.0239-26.5093,0,0,3.6809,9.9141,2.5481,17.1317,0,0-3.04438.3304-21.6859-23.8964,0,0,3.5083,6.2473,2.0003,15.8558,0,0-33.4879-44.0336-76.112-48.922l10.3004-8.4292-7.223-11.1794Z"/>
        <path class="cls-2" d="M2618.62809,661.53036c16.96772,1.7238,37.61372,3.5087,54.5046,5.1199-.0001,0,18.4263,1.8097,18.4263,1.8097l-.5065.0861c4.0815-1.6081,8.6764.017,12.0372,2.4317,18.5072,14.3582,25.1357,53.969,29.1368,76.2784-.0004.0002.0667.4036.0667.4036-.3049.7085-.6131,1.2985-1.1492,1.8094-8.5631,7.4413-20.9388-22.0329-23.6904-27.9012,0-.0002,2.7276-1.1108,2.7276-1.1108,1.0062,2.8777,1.73762,5.718,2.267,8.7028.57862,3.2914.7714,6.8123.1475,10.2581-.3416.039-1.2254.141-1.5412.0809-.2916-.0549-.5929-.1718-.81568-.2916-2.35822-1.3642-4.18742-3.4233-6.05742-5.3268-3.73658-3.9879-7.1858-8.1825-10.573-12.4485-1.6975-2.1175-3.3415-4.2715-5.0032-6.4134l2.2201-1.4664c1.343,2.6936,1.9628,5.3671,2.3241,8.2725.4823,3.7529-.0583,7.6741-.6343,11.3913-5.2601-6.8204-11.0878-13.2972-17.3659-19.2834-16.7619-15.9151-37.2725-29.5495-60.6407-32.5109-.0001,0,.7714-.6137.7714-.6137l10.4168-8.2867-.0503.3205c-2.3928-3.8381-4.68058-7.6421-7.0183-11.3115h0ZM2618.62809,661.53036c2.5199,3.848,5.08172,7.5432,7.54672,11.2252l-.16972.1428-10.1837,8.5714-.222-.7555c23.4315,2.5112,44.08742,15.9553,61.1096,31.5572,5.7003,5.2932,11.10182,10.8512,15.9791,17.0095l-2.2984.5802c.73712-4.9853.3277-10.4584-1.8903-15.0028l2.2201-1.4665c1.6639,2.1203,3.312,4.2549,5.0079,6.3461,4.8565,5.8052,9.48242,12.0727,15.4685,16.7395.1618.1176.2713.1577.4005.2239.006.004.0377.0174-.0208-.0026-.0193-.0052-.0391-.0088-.0591-.0106-.11168-.0205-.2119-.0117-.3213-.0028l-1.2541,1.1952c.6819-5.4052-.7687-11.2454-2.5221-16.3979l2.7275-1.1106c3.9905,8.4862,7.8437,17.4987,13.9396,24.6581,1.3749,1.4191,4.07472,4.238,5.4219,1.9166-3.7998-18.7964-8.06918-46.9471-20.09518-65.8564-3.83522-5.7317-10.23892-13.1709-17.83352-10.7299-23.2437-2.6786-49.671-6.1209-72.9512-8.8301h0Z"/>
      </g>
      <g>
        <path class="cls-3" d="M2575.53049,667.20826l-72.3818-16.3889s-20.17988-19.0529-62.9712,58.7295c0,0,.7859,12.6426,29.6826-17.1344,0,0-6.7321,7.8837-7.9771,14.858,0,0,2.8127,1.2887,28.5144-14.8517,0,0-5.3821,4.5827-7.03958,13.8674,0,0,46.33648-29.4637,88.79018-20.1323l-7.155-11.053,10.5375-7.8946Z"/>
        <path class="cls-2" d="M2575.53049,667.20826c-22.7303-4.9468-49.8708-10.5002-72.5923-15.459-6.4926-4.5278-14.7423-.3833-20.4667,3.7609-6.081,4.488-11.25468,10.1904-16.0921,16.0907-9.6187,11.9521-17.529,25.219-24.9574,38.6325,0,.0001.1732-.7727.1732-.7727-.0011-.0155.02962.1708.0634.2573,2.4861,5.0144,17.8544-9.2056,20.3883-11.6874,2.3076-2.1468,4.5334-4.3938,6.756-6.6419l2.1775,1.9825c-3.3128,4.1077-6.60158,8.9839-7.6943,14.1517.0001,0-.81-1.5465-.81-1.5465-.1219-.078-.3475-.0991-.3412-.104,2.16-.3921,4.5405-1.5953,6.6664-2.5968,7.1831-3.5567,14.0618-7.7722,20.8862-11.9851l1.5752,2.1466c-2.62388,2.4847-4.5715,5.9672-5.7008,9.4255-.4049,1.1892-.6847,2.4182-.9337,3.6523l-1.9628-1.3157c26.0845-15.1475,59.4055-26.2178,89.5737-19.4588.0001.0003-.4479.6465-.4479.6465l-7.0016-11.1522-.1226-.1952c3.55382-2.5717,7.2015-5.1218,10.8635-7.8312h0ZM2575.53049,667.20826c-3.42768,2.6012-6.85468,5.3469-10.3921,8.0885l.0582-.3255,7.3083,10.9535.5593.8384c-23.1627-4.8022-47.1518.8835-68.5223,10.0761-7.9707,3.4498-15.7,7.4946-23.0082,12.0719,1.0112-6.4376,3.1057-12.9206,7.9984-17.5065-.0001,0,1.5751,2.1465,1.5751,2.1465-2.29238,1.4273-4.5729,2.8715-6.8905,4.2636-6.79588,3.9335-13.4717,8.3959-21.0328,10.7595-.62408.1133-1.2134.2719-1.8937-.0055l-1.0167-.4653c.7687-4.9218,3.1025-9.1541,5.8206-13.1289.8359-1.2051,1.6806-2.3522,2.64572-3.5166l2.17748,1.9825c-4.4218,4.5319-28.6773,29.9581-32.1576,16.1969.0002-.0001-.03588-.3989-.03588-.3989l.20928-.3743c10.41672-18.2744,35.3266-62.2432,58.9671-61.0307,2.1351.2321,4.2109.8679,5.9029,2.2925l-.4437-.2365c22.6379,5.3043,49.54342,11.9847,72.1711,17.3188h0Z"/>
      </g>
    </g>
  </g>
  <g>
    <path d="M2533.73489,763.47656c3.3025-1.8461,6.60492-3.2633,9.9074-4.5494,3.30252.0988,6.605.0274,9.90752.0494,9.88148.002,29.75148-.0014,39.62948.0001,0-.0001,9.9074-.0001,9.9074-.0001,3.294,1.308,6.7622,2.8102,9.9074,4.5-3.1456,1.6902-6.614,3.1917-9.9074,4.5001,0-.0001-9.9074-.0001-9.9074-.0001-9.8736-.0019-29.7573.0015-39.6296,0-3.3024.0221-6.60488-.0493-9.9074.0495-3.30248-1.2861-6.6049-2.7033-9.9074-4.5495h0Z"/>
    <circle class="cls-2" cx="2513.22199" cy="757.74019" r="44.988" transform="translate(-9.0618 30.73301) rotate(-.69937)"/>
    <circle class="cls-2" cx="2633.68709" cy="763.47659" r="44.988" transform="translate(-9.12285 32.20384) rotate(-.69937)"/>
  </g>
  <g>
    <circle class="cls-1" cx="2501.96539" cy="757.74019" r="44.988" transform="translate(-9.06264 30.59561) rotate(-.69937)"/>
    <circle class="cls-1" cx="2622.43039" cy="763.47659" r="44.988" transform="translate(-9.12368 32.06644) rotate(-.69937)"/>
  </g>
</svg>