<?xml version="1.0" encoding="UTF-8"?>
<svg id="SCITTA_BIANCA" data-name="SCITTA BIANCA" xmlns="http://www.w3.org/2000/svg" viewBox="0 0 3469.93821 2520.72416">
  <defs>
    <style>
      .cls-1, .cls-2, .cls-3 {
        stroke: #1d1d1b;
        stroke-miterlimit: 10;
      }

      .cls-2 {
        fill: #fff;
        stroke-width: 2px;
      }

      .cls-3 {
        fill: none;
      }
    </style>
  </defs>
  <g>
    <path class="cls-3" d="M1807.3288,1023.93591l-13.23515-406.51065-22.87687,6.73685,4.08512-128.0445,198.04568-48.79245,4.08512,117.26231-112.42151,30.73133,2.61365,84.10604,84.31703-22.10372,4.08545,97.04454-85.62417,26.41735,9.31436,243.15291c-3.92209.89832-10.51466,2.11096-19.77251,3.63861-9.26045,1.5249-17.75707,2.29165-25.49084,2.29165-12.20178,0-21.24269-1.97973-27.12534-5.93026Z"/>
    <polygon class="cls-3" points="2065.64941 1001.0706 1991.95519 1007.44201 1988.0331 733.99324 1963.84908 742.40347 1971.85662 679.71268 2054.8652 625.42984 2065.64941 1001.0706"/>
    <path class="cls-3" d="M2012.05376,470.99352c7.73409,0,14.40558,2.00083,20.01738,5.99015,5.60888,3.99386,10.21231,8.83437,13.80705,14.52476,3.59474,5.69494,6.04568,10.66535,7.3525,14.90863,1.30845,4.58882,1.96186,9.60015,1.96186,15.03561,0,8.32612-1.14379,16.77988-3.43171,25.35834-2.28791,8.58008-5.06621,15.92804-8.33359,22.04224-3.26868,6.11745-6.37303,9.68426-9.31436,10.704-5.66571,1.36236-9.91386,2.03883-12.74477,2.03883-7.19077,0-13.45599-1.95017-18.79175-5.86024-5.33933-3.90813-9.58781-9.59755-12.74607-17.07476-3.16086-7.47494-5.1211-16.22357-5.88265-26.25045,0-14.43611,2.26031-27.94373,6.78223-40.51833,4.519-12.57232,11.62696-19.53609,21.32388-20.89877Z"/>
    <path class="cls-3" d="M2067.60997,635.87923l80.23158,14.52476c-1.96023,40.26664-2.941,73.48313-2.941,99.64459,0,13.08512.24454,24.38147.73493,33.89523.49038,9.51571,1.27922,18.18056,2.36943,25.99356,1.08729,7.81528,2.39541,14.52509,3.92209,20.13072,6.86212,24.29995,13.12603,36.44327,18.79175,36.44327,4.35467,0,8.82398-8.66452,13.39818-25.99389,3.04914-12.06148,5.77353-23.91154,8.17057-35.55052,2.39411-11.6341,4.24815-22.72196,5.55497-33.25741,1.30845-10.53058,2.28791-22.08316,2.94133-34.65776.65504-12.57232.98109-26.33196.98109-41.28605,0-14.94727-.10912-26.58624-.32606-34.91302l68.30195,6.37174c3.59474,35.16893,5.71962,56.36518,6.37303,63.58323.65374,7.2226.97979,16.27098.97979,27.14028,0,18.5209-2.88742,46.04277-8.65965,82.56951-2.83481,18.52155-9.09742,37.97353-18.79175,58.35854-9.69692,20.38761-19.06519,34.66068-28.10611,42.81436-14.16234,12.572-30.66617,18.8593-49.51053,18.8593-13.07213,0-25.79189-2.89034-38.15539-8.66452-12.3648-5.77386-23.72124-14.35492-34.06897-25.7396-9.69692-10.53285-17.4583-24.29508-23.28574-41.28573-5.82874-16.9861-9.88496-35.50505-12.17287-55.55426-2.28791-20.04466-3.43171-42.30612-3.43171-66.7691,0-14.61082.29845-28.71113.89925-42.30514.5969-13.58946,1.38866-27.47868,2.36943-41.66764.97947-14.18182,2.12359-28.4143,3.43041-42.68446Z"/>
    <path class="cls-3" d="M2292.45494,506.41706l71.40764-50.20226-1.14379,171.25387,53.26956,2.03915v98.11401l-55.23142,1.01974c-1.96023,24.12718-2.94133,46.80757-2.94133,68.04215,0,17.67231.65504,32.28346,1.96186,43.83377,1.08729,9.51636,3.81167,16.8208,8.17057,21.91786,4.35467,5.09512,9.42052,7.64511,15.19536,7.64511,6.42694,0,12.06375-2.97185,16.91303-8.9214,4.84505-5.94403,7.27099-14.09998,7.27099-24.46298,0-1.53026-.21954-4.49984-.65341-8.92108l53.43262-54.28056c2.28791,6.6257,5.14773,17.75577,8.57943,33.38439,3.43171,15.63316,5.1461,32.70792,5.1461,51.2246,0,22.25853-3.75777,42.38958-11.27459,60.39736-7.51585,18.01038-20.37104,31.68818-38.56329,41.02917-12.74477,6.45552-24.78352,9.68426-36.11202,9.68426-17.10363,0-32.16489-5.86284-45.18051-17.58333-13.01854-11.72341-23.83165-25.82307-32.43609-42.30547-4.03124-7.64543-7.1645-20.29895-9.39591-37.97093-2.234-17.66744-3.67625-36.10001-4.32966-55.30257-.65341-19.19542-.98077-38.39344-.98077-57.59308v-28.79817l-48.20371,2.29344-12.09266-114.93448,60.94977,6.37076-3.75777-116.97331Z"/>
    <path class="cls-3" d="M2580.69868,658.8139l68.30228-47.90883,1.30682,142.45635c.87067,8.83697,1.30715,18.8593,1.30715,30.07121,0,9.85476-.21954,17.16147-.65341,21.91591l1.96153,156.22086-73.53249,6.1168v-15.54677c-11.98354,7.64511-24.0762,11.4688-36.27537,11.4688-9.36957,0-18.16594-2.2116-26.39009-6.62537-8.22577-4.4167-15.33373-10.363-21.3242-17.84053-9.69692-12.572-17.26636-29.51718-22.71254-50.84008-5.44618-21.32096-8.17057-43.87469-8.17057-67.66121,0-40.94311,7.57106-73.98942,22.71417-99.13602,13.07213-21.40474,26.55182-37.62799,40.44168-48.6746,13.88889-11.04207,28.07721-16.56424,42.5669-16.56424,4.02861,0,7.08036.1705,9.15003.50889l1.30812,2.03883Z"/>
    <polygon class="cls-3" points="2695.0837 498.76295 2794.28532 488.38795 2820.70049 555.36739 2843.88694 462.59993 2908.20871 460.08413 2984.22388 1011.34104 2866.87343 993.41462 2845.50109 805.36752 2822.31304 874.86316 2791.05982 787.4419 2780.97776 946.87461 2667.05599 959.76862 2695.0837 498.76295"/>
    <polygon class="cls-3" points="3048.60374 1023.82925 2974.90952 1030.20067 2970.98743 756.75189 2946.80342 765.16213 2954.81063 702.47133 3037.81953 648.18849 3048.60374 1023.82925"/>
    <path class="cls-3" d="M2995.00811,493.75217c7.73408,0,14.40556,2.00083,20.01737,5.99015,5.60888,3.99386,10.21103,8.83437,13.80575,14.52476,3.59474,5.69494,6.04568,10.66535,7.3525,14.90863,1.30975,4.58882,1.96187,9.60015,1.96187,15.03561,0,8.32612-1.14381,16.77988-3.43172,25.35834-2.28791,8.58008-5.06491,15.92804-8.33359,22.04224-3.26868,6.11745-6.37174,9.68426-9.31306,10.704-5.66571,1.36236-9.91386,2.03883-12.74477,2.03883-7.19077,0-13.45599-1.95017-18.79175-5.86024-5.33966-3.90813-9.58781-9.59755-12.74607-17.07476-3.16086-7.47494-5.12142-16.22357-5.88265-26.25045,0-14.43611,2.26031-27.94373,6.7819-40.51833,4.51932-12.57232,11.62728-19.53609,21.32422-20.89877Z"/>
  </g>
  <path class="cls-1" d="M1788.72421,1035.40799l-13.23515-406.51065-22.87687,6.73685,4.08512-128.0445,198.04568-48.79245,4.08512,117.26231-112.42151,30.73133,2.61365,84.10604,84.31703-22.10372,4.08545,97.04454-85.62417,26.41735,9.31436,243.15291c-3.92209.89832-10.51466,2.11096-19.77251,3.63861-9.26045,1.5249-17.75707,2.29165-25.49084,2.29165-12.20178,0-21.24269-1.97973-27.12534-5.93026Z"/>
  <path class="cls-2" d="M1851.79855,1013.30427l-7.84289-232.09967,85.45952-26.41975-4.08512-72.78418-83.66232,26.41975-3.26868-112.68244,111.11469-30.73098-2.7783-90.57426-180.72379,44.21018-5.39227,97.04419,21.56875-4.31398,16.01345,410.55599c2.28791.35795,5.93656.85228,10.94886,1.48402,5.00938.62728,10.29383.94194,15.85042.94194,17.86327,0,26.79766-3.50429,26.79766-10.51253v-.5383Z"/>
  <polygon class="cls-1" points="2047.04482 1012.54267 1973.3506 1018.91409 1969.42851 745.46531 1945.2445 753.87555 1953.25203 691.18475 2036.26061 636.90191 2047.04482 1012.54267"/>
  <polygon class="cls-2" points="2036.26061 1000.05446 2028.25437 655.76121 1961.25795 699.59271 1956.03001 735.01592 1978.74287 716.1589 1982.66496 1006.42555 2036.26061 1000.05446"/>
  <path class="cls-1" d="M1993.44917,482.46559c7.73409,0,14.40558,2.00083,20.01738,5.99015,5.60888,3.99386,10.21231,8.83437,13.80705,14.52476,3.59474,5.69494,6.04568,10.66535,7.3525,14.90863,1.30845,4.58882,1.96186,9.60015,1.96186,15.03561,0,8.32612-1.14379,16.77988-3.43171,25.35834-2.28791,8.58008-5.06621,15.92804-8.33359,22.04224-3.26868,6.11745-6.37303,9.68426-9.31436,10.704-5.66571,1.36236-9.91386,2.03883-12.74477,2.03883-7.19077,0-13.45599-1.95017-18.79175-5.86024-5.33933-3.90813-9.58781-9.59755-12.74607-17.07476-3.16086-7.47494-5.1211-16.22357-5.88265-26.25045,0-14.43611,2.26031-27.94373,6.78223-40.51833,4.519-12.57232,11.62696-19.53609,21.32388-20.89877Z"/>
  <path class="cls-2" d="M1996.06315,499.03211c-12.41871,5.94923-18.62742,20.72828-18.62742,44.34202.87035,11.04661,4.3839,19.20029,10.53999,24.46558,6.15187,5.26789,12.33558,7.89907,18.54558,7.89907,6.31653-1.18699,11.03038-6.07101,14.13473-14.65174,3.10435-8.57814,4.65702-18.81611,4.65702-30.70969-.65341-7.13621-3.73276-14.31107-9.23285-21.534-5.50236-7.22065-10.92223-10.83065-16.25799-10.83065-.54689,0-1.79721.34294-3.75906,1.01941Z"/>
  <path class="cls-1" d="M2049.00538,647.3513l80.23158,14.52476c-1.96023,40.26664-2.941,73.48313-2.941,99.64459,0,13.08512.24454,24.38147.73493,33.89523.49038,9.51571,1.27922,18.18056,2.36943,25.99356,1.08729,7.81528,2.39541,14.52509,3.92209,20.13072,6.86212,24.29995,13.12603,36.44327,18.79175,36.44327,4.35467,0,8.82398-8.66452,13.39818-25.99389,3.04914-12.06148,5.77353-23.91154,8.17057-35.55052,2.39411-11.6341,4.24815-22.72196,5.55497-33.25741,1.30845-10.53058,2.28791-22.08316,2.94133-34.65776.65504-12.57232.98109-26.33196.98109-41.28605,0-14.94727-.10912-26.58624-.32606-34.91302l68.30195,6.37174c3.59474,35.16893,5.71962,56.36518,6.37303,63.58323.65374,7.2226.97979,16.27098.97979,27.14028,0,18.5209-2.88742,46.04277-8.65965,82.56951-2.83481,18.52155-9.09742,37.97353-18.79175,58.35854-9.69692,20.38761-19.06519,34.66068-28.10611,42.81436-14.16234,12.572-30.66617,18.8593-49.51053,18.8593-13.07213,0-25.79189-2.89034-38.15539-8.66452-12.3648-5.77386-23.72124-14.35492-34.06897-25.7396-9.69692-10.53285-17.4583-24.29508-23.28574-41.28573-5.82874-16.9861-9.88496-35.50505-12.17287-55.55426-2.28791-20.04466-3.43171-42.30612-3.43171-66.7691,0-14.61082.29845-28.71113.89925-42.30514.5969-13.58946,1.38866-27.47868,2.36943-41.66764.97947-14.18182,2.12359-28.4143,3.43041-42.68446Z"/>
  <path class="cls-2" d="M2058.31974,663.91489c-3.81427,38.90851-5.71962,73.39447-5.71962,103.46568,0,22.26113,1.1977,43.24142,3.59474,62.94768,2.39573,19.71081,6.37303,37.46236,11.92963,53.26342,5.5553,15.79879,13.01562,28.8839,22.38519,39.24463,18.40918,20.89877,38.94455,31.34556,61.60448,31.34556,17.10074,0,32.24384-6.28275,45.42508-18.85702,5.44618-5.26561,10.13242-10.9992,14.05322-17.20206,3.92209-6.20091,7.18947-12.52653,9.80474-18.9866,2.61397-6.4552,5.1185-13.58946,7.51553-21.40734,2.39573-7.81268,4.46671-14.35427,6.21001-19.62248,8.17057-25.65257,12.25569-51.73252,12.25569-78.23757,0-12.06083-.92686-27.30786-2.7783-45.7427-1.85371-18.43257-2.7783-31.38616-2.7783-38.86564l-49.5102-2.03947c.87035,11.89618,1.30682,21.6639,1.30682,29.30933,0,19.71081-1.30682,40.94538-3.92209,63.71021-2.61397,22.76937-5.77483,42.55975-9.47739,59.37795-3.59474,16.48208-8.06275,28.88618-13.39981,37.20808-5.33803,8.32612-10.94724,12.48821-16.82989,12.48821-6.10219,0-11.65748-4.33453-16.66686-12.99938-5.0123-8.66452-8.55313-20.21483-10.62151-34.65841-4.03121-29.2197-6.04568-60.48115-6.04568-93.78142,0-24.6338,1.08761-51.13561,3.26771-79.51127l-61.60319-10.44939Z"/>
  <path class="cls-1" d="M2273.85035,517.88913l71.40764-50.20226-1.14379,171.25387,53.26956,2.03915v98.11401l-55.23142,1.01974c-1.96023,24.12718-2.94133,46.80757-2.94133,68.04215,0,17.67231.65504,32.28346,1.96186,43.83377,1.08729,9.51636,3.81167,16.8208,8.17057,21.91786,4.35467,5.09512,9.42052,7.64511,15.19536,7.64511,6.42694,0,12.06375-2.97185,16.91303-8.9214,4.84505-5.94403,7.27099-14.09998,7.27099-24.46298,0-1.53026-.21954-4.49984-.65341-8.92108l53.43262-54.28056c2.28791,6.6257,5.14773,17.75577,8.57943,33.38439,3.43171,15.63316,5.1461,32.70792,5.1461,51.2246,0,22.25853-3.75777,42.38958-11.27459,60.39736-7.51585,18.01038-20.37104,31.68818-38.56329,41.02917-12.74477,6.45552-24.78352,9.68426-36.11202,9.68426-17.10363,0-32.16489-5.86284-45.18051-17.58333-13.01854-11.72341-23.83165-25.82307-32.43609-42.30547-4.03124-7.64543-7.1645-20.29895-9.39591-37.97093-2.234-17.66744-3.67625-36.10001-4.32966-55.30257-.65341-19.19542-.98077-38.39344-.98077-57.59308v-28.79817l-48.20371,2.29344-12.09266-114.93448,60.94977,6.37076-3.75777-116.97331Z"/>
  <path class="cls-2" d="M2284.96192,528.33819l.65341,125.12763-56.86433-6.11453,10.62151,83.33204,45.58941-4.07538c-.21954,12.57492-.32736,29.81498-.32736,51.73317,0,27.35624.67972,50.67251,2.04337,69.95399,1.36073,19.28408,3.89319,35.80513,7.59708,49.56736,12.19918,43.49538,35.4034,66.43038,69.61037,68.8076,8.27709,0,17.23908-2.07974,26.8808-6.24443,9.64042-4.16209,18.59982-10.48771,26.87918-18.9866,8.27709-8.49143,15.00508-19.44971,20.18041-32.87322,5.17241-13.41897,7.76137-28.79817,7.76137-46.12688,0-18.17828-2.67048-37.03563-8.00591-56.57627l-41.50461,39.7558c0,12.4041-1.58027,22.55374-4.73983,30.4554-3.15956,7.89939-7.18947,13.59401-12.09136,17.07248-4.90156,3.48529-10.1308,5.22437-15.6861,5.22437-5.22924,0-10.02425-1.61177-14.38054-4.84083-7.08165-3.22614-11.95561-12.82661-14.62349-28.79752-2.67178-15.96701-4.00361-35.93211-4.00361-59.88944,0-9.68361.21694-23.2734.65341-40.77489.43388-17.49499.65341-29.30674.65341-35.42354h57.51771l-1.30682-75.17868-54.57638,2.29538.97947-165.13934-49.51056,37.71632Z"/>
  <path class="cls-1" d="M2562.09409,670.28597l68.30228-47.90883,1.30682,142.45635c.87067,8.83697,1.30715,18.8593,1.30715,30.07121,0,9.85476-.21954,17.16147-.65341,21.91591l1.96153,156.22086-73.53249,6.1168v-15.54677c-11.98354,7.64511-24.0762,11.4688-36.27537,11.4688-9.36957,0-18.16594-2.2116-26.39009-6.62537-8.22577-4.4167-15.33373-10.363-21.3242-17.84053-9.69692-12.572-17.26636-29.51718-22.71254-50.84008-5.44618-21.32096-8.17057-43.87469-8.17057-67.66121,0-40.94311,7.57106-73.98942,22.71417-99.13602,13.07213-21.40474,26.55182-37.62799,40.44168-48.6746,13.88889-11.04207,28.07721-16.56424,42.5669-16.56424,4.02861,0,7.08036.1705,9.15003.50889l1.30812,2.03883Z"/>
  <path class="cls-2" d="M2570.10033,676.65739v7.13654c-1.74362-.33807-4.4115-.51084-8.00624-.51084-6.7556,0-13.56251,1.2737-20.42593,3.82369-6.86342,2.54772-13.9717,6.45747-21.3242,11.72308-7.3525,5.26789-14.5712,11.89326-21.65156,19.87644-7.08165,7.98838-13.5086,16.90686-19.28083,26.75902-5.33836,9.00746-9.64042,18.56409-12.9091,28.67021-3.26738,10.10904-5.71962,20.64221-7.35283,31.60017-1.63418,10.95731-2.45192,21.96105-2.45192,33.0028,0,21.57719,2.69678,41.58353,8.08873,60.0161,5.39227,18.43516,12.71717,32.57834,21.97762,42.4305,7.29762,7.98773,17.75577,11.97737,31.37349,11.97737,17.75577,0,35.07605-6.28275,51.96277-18.85767v32.3653l53.59695-6.11745-1.47147-319.57274-52.12547,35.6775Z"/>
  <path d="M2560.78597,715.13949c-8.49662,8.83469-12.74477,21.57719-12.74477,38.22522,0,11.55746,1.63418,19.36754,4.90156,23.44584,2.28791,2.38177,4.90188,3.56941,7.84321,3.56941v54.28056c-2.83351.68102-5.06491,1.01974-6.69909,1.01974-8.49662,0-16.88672-4.33226-25.16348-12.99743-9.37087-9.68361-14.05322-22.25593-14.05322-37.71632,0-7.47461,1.16913-15.07653,3.51322-22.80802,2.34052-7.7289,5.5816-14.82224,9.72193-21.27971,4.13935-6.4552,9.12243-12.06148,14.95117-16.8208,5.82744-4.75444,11.7377-7.7289,17.72947-8.91848Z"/>
  <polygon class="cls-1" points="2676.47912 510.23502 2775.68073 499.86002 2802.0959 566.83946 2825.28235 474.07201 2889.60412 471.5562 2965.61929 1022.81311 2848.26884 1004.88669 2826.89651 816.83959 2803.70845 886.33523 2772.45523 798.91397 2762.37317 958.34668 2648.4514 971.24069 2676.47912 510.23502"/>
  <path class="cls-2" d="M2775.68073,523.12903l-92.54784,7.86119-21.37433,422.32765,92.34828-10.3778,11.6946-190.56651c2.55227,7.7582,6.18172,18.76315,10.88834,33.01926,4.70341,14.25811,10.01233,29.9288,15.92916,47.01087,5.91243,17.09129,9.07261,25.63093,9.47695,25.63093.53538,0,5.54375-14.46609,15.0203-43.39666,9.47695-28.93137,14.4172-43.71083,14.82115-44.33838l24.59822,221.69671,95.97733,17.92282c-2.95902-21.38355-8.40258-60.79291-16.3331-118.23809-7.93212-57.43917-16.09787-116.87319-24.49725-178.29965-8.40257-61.42326-15.56089-114.25399-21.47492-158.49139-5.91523-44.23138-8.87144-67.71358-8.87144-70.43977l-51.21415,2.51581-28.02613,118.55226-26.41516-82.38925Z"/>
  <polygon class="cls-1" points="3029.99915 1035.30133 2956.30493 1041.67274 2952.38284 768.22396 2928.19883 776.6342 2936.20604 713.9434 3019.21494 659.66056 3029.99915 1035.30133"/>
  <polygon class="cls-2" points="3019.21494 1022.81311 3011.2074 678.51986 2944.21228 722.35136 2938.98434 757.77457 2961.69688 738.91755 2965.61929 1029.1842 3019.21494 1022.81311"/>
  <path class="cls-1" d="M2976.40352,505.22425c7.73408,0,14.40556,2.00083,20.01737,5.99015,5.60888,3.99386,10.21103,8.83437,13.80575,14.52476,3.59474,5.69494,6.04568,10.66535,7.3525,14.90863,1.30975,4.58882,1.96187,9.60015,1.96187,15.03561,0,8.32612-1.14381,16.77988-3.43172,25.35834-2.28791,8.58008-5.06491,15.92804-8.33359,22.04224-3.26868,6.11745-6.37174,9.68426-9.31306,10.704-5.66571,1.36236-9.91386,2.03883-12.74477,2.03883-7.19077,0-13.45599-1.95017-18.79175-5.86024-5.33966-3.90813-9.58781-9.59755-12.74607-17.07476-3.16086-7.47494-5.12142-16.22357-5.88265-26.25045,0-14.43611,2.26031-27.94373,6.7819-40.51833,4.51932-12.57232,11.62728-19.53609,21.32422-20.89877Z"/>
  <path class="cls-2" d="M2979.01748,521.79076c-12.41871,5.94923-18.62742,20.72828-18.62742,44.34202.87035,11.04661,4.38357,19.20029,10.53967,24.46558,6.1522,5.26789,12.33591,7.89907,18.54591,7.89907,6.31653-1.18699,11.03038-6.07101,14.13473-14.65174,3.10305-8.57814,4.65702-18.81611,4.65702-30.70969-.6547-7.13621-3.73406-14.31107-9.23285-21.534-5.50236-7.22065-10.92223-10.83065-16.25799-10.83065-.54688,0-1.79719.34294-3.75906,1.01941Z"/>
</svg>