<?xml version="1.0" encoding="UTF-8"?>
<svg id="SCRITTA_NERA" data-name="SCRITTA NERA" xmlns="http://www.w3.org/2000/svg" viewBox="0 0 3469.93821 2520.72416">
  <defs>
    <style>
      .cls-1 {
        fill: #1d1d1b;
      }

      .cls-2, .cls-3 {
        fill: #fff;
      }

      .cls-3 {
        stroke: #1d1d1b;
        stroke-miterlimit: 10;
      }
    </style>
  </defs>
  <path class="cls-3" d="M1800.25683,1163.19223l-16.39009-475.91102-28.33015,7.88698,5.05891-149.90453,245.25492-57.1224,5.05891,137.28158-139.22004,35.97784,3.23667,98.46481,104.41614-25.87731,5.05931,113.61219-106.03488,30.92738,11.53468,284.66449c-4.85702,1.05168-13.0211,2.47134-24.4858,4.2598-11.46791,1.78524-21.98992,2.68288-31.56723,2.68288-15.11038,0-26.30643-2.31771-33.59136-6.94268Z"/>
  <path class="cls-1" d="M1878.36654,1137.31492l-9.71244-271.72422,105.83098-30.93019-5.05891-85.21004-103.60536,30.93019-4.04785-131.91983,137.6017-35.97744-3.44058-106.03729-223.80391,51.75784-6.67765,113.61178,26.71021-5.05047,19.83066,480.64699c2.8333.41906,7.35169.99779,13.5588,1.73738,6.20349.73436,12.74762,1.10275,19.62877,1.10275,22.12143,0,33.18557-4.10255,33.18557-12.30725v-.6302Z"/>
  <g>
    <polygon class="cls-3" points="2116.13303 1134.47519 2024.87192 1142.36539 2020.0149 803.73313 1990.066 814.14817 1999.98234 736.51342 2102.77813 669.29089 2116.13303 1134.47519"/>
    <polygon class="cls-1" points="2102.77813 1119.0101 2092.8634 692.64578 2009.89667 746.92563 2003.42252 790.79287 2031.54957 767.44079 2036.40659 1126.89989 2102.77813 1119.0101"/>
    <path class="cls-3" d="M2049.7615,478.04074c9.57771,0,17.83951,2.47778,24.78903,7.41805,6.9459,4.9459,12.64668,10.94027,17.09831,17.98711,4.45163,7.05248,7.48682,13.20771,9.10516,18.46248,1.62035,5.68268,2.42952,11.88859,2.42952,18.61973,0,10.31087-1.41645,20.77979-4.24974,31.40314-2.8333,10.62537-6.27387,19.72489-10.32012,27.29657-4.04785,7.5757-7.89221,11.99275-11.53468,13.25557-7.01628,1.68711-12.27708,2.52483-15.78281,2.52483-8.90488,0-16.66357-2.41504-23.27124-7.25718-6.6121-4.83973-11.8733-11.88537-15.78442-21.14496-3.91433-9.25678-6.34184-20.09087-7.28493-32.50791,0-17.87732,2.79911-34.60483,8.39895-50.1769,5.59621-15.56926,14.39854-24.19302,26.40697-25.88053Z"/>
    <path class="cls-1" d="M2052.99857,498.5563c-15.37903,7.36738-23.06774,25.66939-23.06774,54.91207,1.07782,13.67986,5.42891,23.77717,13.05247,30.29757,7.61833,6.52362,15.27607,9.78201,22.96639,9.78201,7.82223-1.46994,13.65975-7.51819,17.5041-18.14436,3.84436-10.62295,5.76714-23.3014,5.76714-38.03012-.80917-8.83731-4.62256-17.72248-11.43373-26.66717-6.81399-8.94188-13.52583-13.41241-20.1335-13.41241-.67726,0-2.22562.42469-4.65513,1.26242Z"/>
  </g>
  <path class="cls-3" d="M2118.56094,682.23115l99.35682,17.98711c-2.42751,49.86522-3.64206,90.9997-3.64206,123.39742,0,16.20429.30283,30.19341.91011,41.97502.60728,11.78402,1.58415,22.51435,2.93424,32.18979,1.34647,9.67825,2.96642,17.98751,4.85702,24.92939,8.49788,30.09247,16.25496,45.13046,23.27124,45.13046,5.39271,0,10.9274-10.72993,16.59198-32.19019,3.77599-14.93664,7.1498-29.61147,10.11823-44.02489,2.96481-14.40738,5.2608-28.13832,6.87914-41.18516,1.62035-13.04081,2.8333-27.34725,3.64247-42.91932.81118-15.56926,1.21496-32.60885,1.21496-51.12764,0-18.51034-.13513-32.92375-.40378-43.23543l84.58346,7.8906c4.45163,43.55234,7.08304,69.80125,7.89221,78.73991.80957,8.94429,1.21335,20.14959,1.21335,33.60986,0,22.93583-3.57571,57.01824-10.7239,102.25205-3.51055,22.93663-11.26602,47.02549-23.27124,72.26978-12.00843,25.24751-23.60987,42.92294-34.80592,53.02025-17.53829,15.56886-37.97623,23.35489-61.31262,23.35489-16.1882,0-31.94004-3.57932-47.2507-10.72993-15.31227-7.1502-29.3758-17.77678-42.19018-31.87529-12.00843-13.04362-21.61992-30.08644-28.83649-51.12723-7.21817-21.03517-12.24129-43.96858-15.07459-68.79703-2.8333-24.82282-4.24974-52.39086-4.24974-82.68521,0-18.09369.3696-35.55516,1.11361-52.38965.73919-16.82886,1.71968-34.02892,2.93424-51.60019,1.21295-17.56242,2.6298-35.18758,4.24814-52.85938Z"/>
  <path class="cls-1" d="M2130.09562,702.7431c-4.7235,48.18334-7.08304,90.88991-7.08304,128.12936,0,27.56764,1.48321,53.54911,4.45163,77.95286,2.96682,24.40938,7.89221,46.39247,14.77336,65.96012,6.87954,19.56483,16.11822,35.76912,27.72127,48.59959,22.79748,25.88053,48.22798,38.81757,76.28948,38.81757,21.17713,0,39.92998-7.78041,56.25331-23.35208,6.74441-6.52081,12.54774-13.62114,17.40316-21.30261,4.85702-7.67906,8.90327-15.51255,12.14195-23.51254,3.23708-7.99396,6.33862-16.82886,9.30705-26.51033,2.96682-9.67503,5.53146-17.77597,7.69032-24.29999,10.11823-31.76751,15.17714-64.06428,15.17714-96.88749,0-14.93584-1.1478-33.81738-3.44058-56.64663-2.29559-22.82644-3.44058-38.86785-3.44058-48.13025l-61.31222-2.52564c1.07782,14.73194,1.61834,26.82804,1.61834,36.29596,0,24.40938-1.61834,50.70576-4.85702,78.89716-3.23708,28.19703-7.15141,52.70495-11.73657,73.5322-4.45163,20.411-9.98471,35.77193-16.59399,46.07757-6.61049,10.31087-13.55679,15.4651-20.84172,15.4651-7.5568,0-14.43634-5.36778-20.63983-16.09811-6.20711-10.72993-10.59199-25.03355-13.15341-42.92012-4.99215-36.18496-7.48682-74.89837-7.48682-116.13662,0-30.5059,1.34687-63.32509,4.04665-98.46481l-76.28787-12.94026Z"/>
  <path class="cls-3" d="M2397.00344,521.90838l88.42947-62.16925-1.41645,212.07659,65.96772,2.52523v121.50198l-68.39723,1.26282c-2.42751,29.87851-3.64247,57.96535-3.64247,84.26172,0,21.88496.81118,39.97904,2.42952,54.28267,1.34647,11.78483,4.72028,20.83046,10.11823,27.14254,5.39271,6.30967,11.66614,9.46751,18.81755,9.46751,7.95897,0,14.93946-3.68027,20.94468-11.04805,5.99999-7.36094,9.00421-17.46107,9.00421-30.29436,0-1.89503-.27187-5.57249-.80917-11.04765l66.16965-67.21972c2.8333,8.2051,6.37482,21.98831,10.62456,41.34241,4.24974,19.35972,6.37281,40.50468,6.37281,63.43528,0,27.56442-4.65352,52.49421-13.96218,74.79461-9.30745,22.30362-25.227,39.24186-47.75583,50.80952-15.78281,7.99436-30.6913,11.99275-44.72024,11.99275-21.18071,0-39.83221-7.2604-55.95044-21.77476-16.12184-14.51798-29.51253-31.97865-40.16806-52.39005-4.99219-9.46792-8.87234-25.13772-11.63566-47.02227-2.76654-21.87892-4.55258-44.70536-5.36175-68.48535-.80917-23.77114-1.21456-47.5455-1.21456-71.32186v-35.66294l-59.69429,2.84013-14.97525-142.33204,75.47871,7.88939-4.65352-144.85687Z"/>
  <path class="cls-1" d="M2410.76373,534.84824l.80917,154.95499-70.41939-7.57208,13.15341,103.19635,56.45681-5.04685c-.27187,15.57247-.40539,36.92214-.40539,64.06508,0,33.8773.84174,62.75159,2.53046,86.62931,1.6851,23.88093,4.82123,44.34019,9.40803,61.383,15.10716,53.86361,43.8427,82.26575,86.20377,85.20964,10.25014,0,21.34846-2.57551,33.28852-7.73295,11.93846-5.15423,23.03356-12.98772,33.28651-23.51254,10.25014-10.51557,18.58192-24.08604,24.99092-40.70939,6.40538-16.61772,9.61149-35.66294,9.61149-57.1224,0-22.51154-3.30705-45.86402-9.91433-70.06266l-51.3983,49.2326c0,15.36093-1.95697,27.92999-5.86969,37.71522-3.91272,9.78241-8.90327,16.83449-14.97364,21.14215-6.06997,4.3161-12.54573,6.46973-19.42528,6.46973-6.47576,0-12.41378-1.99598-17.80851-5.99477-8.76975-3.99517-14.80553-15.88416-18.10937-35.66214-3.30866-19.77315-4.95797-44.49744-4.95797-74.16562,0-11.99194.26865-28.8212.80917-50.49462.5373-21.66537.80917-36.29274.80917-43.86764h71.22852l-1.61834-93.09944-67.58605,2.84255,1.21295-204.50451-61.31266,46.70697Z"/>
  <path class="cls-3" d="M2753.95741,710.63289l84.58385-59.32911,1.61835,176.41445c1.07821,10.94348,1.61873,23.35489,1.61873,37.23945,0,12.20389-.27186,21.25234-.80916,27.14013l2.42911,193.46008-91.06083,7.5749v-19.25274c-14.84012,9.46751-29.81537,14.20268-44.92253,14.20268-11.60304,0-22.49626-2.73879-32.68084-8.2047-10.1866-5.46953-18.98892-12.83329-26.40737-22.09328-12.00843-15.56886-21.38224-36.55335-28.12665-62.95911-6.74441-26.40335-10.11823-54.33334-10.11823-83.78998,0-50.70294,9.37582-91.62669,28.12867-122.76762,16.1882-26.50711,32.88112-46.59758,50.08199-60.27743,17.19966-13.67423,34.77012-20.51275,52.7138-20.51275,4.98893,0,8.76814.21114,11.33118.6302l1.61995,2.52483Z"/>
  <path class="cls-1" d="M2763.87214,718.52309v8.83771c-2.15926-.41866-5.46309-.63262-9.91473-.63262-8.36597,0-16.79548,1.57732-25.29497,4.73516-8.49949,3.15503-17.30221,7.99677-26.40737,14.51758-9.10516,6.52362-18.04462,14.72832-26.81276,24.61449-8.76975,9.89261-16.72872,20.93704-23.87691,33.13771-6.61089,11.15462-11.93846,22.98932-15.98631,35.50449-4.04625,12.51879-7.08304,25.56281-9.10556,39.13288-2.02373,13.56926-3.03639,27.19603-3.03639,40.86985,0,26.72066,3.33963,51.49602,10.01688,74.32246,6.67765,22.82966,15.74863,40.34422,27.21654,52.54489,9.03719,9.89181,21.98831,14.83248,38.85216,14.83248,21.98831,0,43.43732-7.78041,64.34942-23.35288v40.08039l66.37314-7.5757-1.82224-395.75104-64.55091,44.18214Z"/>
  <path class="cls-2" d="M2752.33747,766.17838c-10.52201,10.94067-15.78281,26.72066-15.78281,47.33717,0,14.31247,2.02373,23.98429,6.06997,29.03476,2.8333,2.94952,6.07037,4.42026,9.71284,4.42026v67.21972c-3.50894.84335-6.27226,1.26282-8.29599,1.26282-10.52201,0-20.9121-5.36497-31.16184-16.0957-11.60465-11.99194-17.40316-27.5612-17.40316-46.70697,0-9.25637,1.44782-18.6704,4.35069-28.24489,2.89845-9.57127,6.91212-18.3555,12.0394-26.35227,5.12608-7.99396,11.29699-14.93664,18.51516-20.83046,7.21656-5.88779,14.53568-9.57127,21.95574-11.04443Z"/>
  <g>
    <polygon class="cls-3" points="2895.60902 512.42971 3018.45787 499.58157 3051.16976 582.52726 3079.8833 467.64633 3159.53779 464.53081 3253.67313 1147.19385 3108.3492 1124.99421 3081.88223 892.12129 3053.16671 978.18299 3014.46348 869.92265 3001.97811 1067.3602 2860.90018 1083.32783 2895.60902 512.42971"/>
    <path class="cls-1" d="M3018.45787,528.39734l-114.60897,9.73511-26.46945,523.00021,114.36185-12.85161,14.48231-235.9929c3.16067,9.60757,7.65529,23.23583,13.48385,40.89024,5.82459,17.65689,12.39903,37.06309,19.72629,58.21711,7.3218,21.16544,11.2353,31.74071,11.73602,31.74071.663,0,6.86524-17.91445,18.60077-53.74135,11.73602-35.8279,17.8539-54.13042,18.35415-54.90756l30.46184,274.54377,118.85597,22.19518c-3.66437-26.48087-10.40555-75.28445-20.22652-146.42315-9.82295-71.13126-19.93521-144.73289-30.3368-220.80192-10.40553-76.06506-19.27023-141.48934-26.59401-196.27185-7.32528-54.77506-10.98618-83.85484-10.98618-87.23088l-63.42235,3.11551-34.70687,146.81221-32.71189-102.02883Z"/>
  </g>
  <g>
    <polygon class="cls-3" points="3333.39956 1162.65895 3242.13845 1170.54915 3237.28143 831.91689 3207.33254 842.33192 3217.24847 764.69718 3320.04466 697.47464 3333.39956 1162.65895"/>
    <polygon class="cls-1" points="3320.04466 1147.19385 3310.12832 720.82954 3227.1632 775.10939 3220.68905 818.97663 3248.8157 795.62455 3253.67313 1155.08365 3320.04466 1147.19385"/>
    <path class="cls-3" d="M3267.02804,506.2245c9.57769,0,17.8395,2.47778,24.78902,7.41805,6.9459,4.9459,12.64509,10.94027,17.0967,17.98711,4.45163,7.05248,7.48682,13.20771,9.10516,18.46248,1.62196,5.68268,2.42954,11.88859,2.42954,18.61973,0,10.31087-1.41647,20.77979-4.24976,31.40314-2.8333,10.62537-6.27226,19.72489-10.32012,27.29657-4.04785,7.5757-7.8906,11.99275-11.53307,13.25557-7.01628,1.68711-12.27708,2.52483-15.78281,2.52483-8.90488,0-16.66357-2.41504-23.27124-7.25718-6.6125-4.83973-11.8733-11.88537-15.78442-21.14496-3.91433-9.25678-6.34224-20.09087-7.28493-32.50791,0-17.87732,2.79911-34.60483,8.39854-50.1769,5.59662-15.56926,14.39894-24.19302,26.40739-25.88053Z"/>
    <path class="cls-1" d="M3270.2651,526.74006c-15.37903,7.36738-23.06774,25.66939-23.06774,54.91207,1.07782,13.67986,5.42851,23.77717,13.05207,30.29757,7.61873,6.52362,15.27649,9.78201,22.9668,9.78201,7.82223-1.46994,13.65975-7.51819,17.5041-18.14436,3.84275-10.62295,5.76714-23.3014,5.76714-38.03012-.81076-8.83731-4.62417-17.72248-11.43373-26.66717-6.81399-8.94188-13.52582-13.41241-20.1335-13.41241-.67724,0-2.2256.42469-4.65513,1.26242Z"/>
  </g>
</svg>