<?xml version="1.0" encoding="UTF-8"?>
<svg id="SCITTA_BIANCA" data-name="SCITTA BIANCA" xmlns="http://www.w3.org/2000/svg" viewBox="0 0 3469.93821 2520.72416">
  <defs>
    <style>
      .cls-1, .cls-2, .cls-3 {
        stroke: #1d1d1b;
        stroke-miterlimit: 10;
      }

      .cls-2 {
        fill: #fff;
        stroke-width: 2px;
      }

      .cls-3 {
        fill: none;
      }
    </style>
  </defs>
  <g>
    <path class="cls-3" d="M1630.92035,1192.01517l-19.39963-595.84926-33.53212,9.87464,5.98783-187.6832,290.28852-71.51829,5.98783,171.87903-164.78356,45.04491,3.83099,123.27973,123.58898-32.39886,5.9883,142.24453-125.50495,38.72164,13.65267,356.40512c-5.74887,1.31672-15.41203,3.09417-28.98187,5.33335-13.57365,2.23515-26.0277,3.35902-37.36359,3.35902-17.88494,0-31.1368-2.90182-39.75939-8.69237Z"/>
    <polygon class="cls-3" points="2009.55777 1158.49998 1901.53934 1167.83898 1895.79047 767.02722 1860.34237 779.35465 1872.07955 687.46465 1993.75065 607.89875 2009.55777 1158.49998"/>
    <path class="cls-3" d="M1930.99913,381.53133c11.33636,0,21.1152,2.93275,29.34079,8.78015,8.2213,5.85407,14.96886,12.94911,20.2379,21.2899,5.26904,8.34745,8.86155,15.6329,10.77704,21.85255,1.91788,6.72613,2.87562,14.07156,2.87562,22.03867,0,12.20414-1.67653,24.59536-5.03008,37.16937-3.35355,12.57639-7.42588,23.34677-12.21509,32.30876-4.79112,8.96675-9.34137,14.19485-13.65267,15.68955-8.30461,1.99689-14.5314,2.98844-18.68084,2.98844-10.53999,0-19.72332-2.85849-27.54429-8.58974-7.82621-5.7284-14.05347-14.06775-18.68275-25.02759-4.63308-10.9565-7.50632-23.77995-8.62259-38.477,0-21.15994,3.31308-40.95895,9.94116-59.39036,6.62379-18.42808,17.04239-28.63533,31.25581-30.6327Z"/>
    <path class="cls-3" d="M2012.43149,623.2151l117.60068,21.2899c-2.87324,59.02145-4.31082,107.70903-4.31082,146.05559,0,19.17971.35844,35.73751,1.07723,49.68246.71879,13.9478,1.87503,26.64843,3.47303,38.10047,1.59371,11.45537,3.51111,21.29037,5.74887,29.50692,10.05826,35.61803,19.23969,53.41729,27.54429,53.41729,6.38292,0,12.93388-12.70016,19.63859-38.10094,4.46933-17.6793,8.46264-35.04872,11.97613-52.10872,3.5092-17.05286,6.22679-33.30506,8.14228-48.74756,1.91788-15.43535,3.35355-32.36874,4.31129-50.80015.96013-18.42808,1.43805-38.59648,1.43805-60.51567,0-21.9092-.15994-38.9692-.47792-51.1743l100.11464,9.33947c5.26904,51.5494,8.38363,82.61813,9.34137,93.1981.95822,10.58664,1.43615,23.84944,1.43615,39.78128,0,27.1473-4.23227,67.4879-12.69302,121.02753-4.15516,27.14825-13.33469,55.66029-27.54429,85.53993-14.21342,29.88345-27.9451,50.80443-41.19696,62.75581-20.75866,18.4276-44.94941,27.64331-72.57082,27.64331-19.16067,0-37.80486-4.23656-55.92686-12.70016-18.1239-8.46312-34.76977-21.04094-49.93712-37.72822-14.21342-15.43869-25.58977-35.61089-34.13143-60.51519-8.54357-24.89764-14.48903-52.04208-17.84258-81.42951-3.35355-29.38077-5.03008-62.01084-5.03008-97.86783,0-21.41604.43746-42.08378,1.31809-62.00941.87492-19.91897,2.03545-40.2773,3.47303-61.07499,1.43567-20.78722,3.11268-41.6487,5.02818-62.5654Z"/>
    <path class="cls-3" d="M2342.00148,433.45393l104.66684-73.58474-1.67653,251.018,78.08068,2.98892v143.81212l-80.9563,1.4947c-2.87324,35.36479-4.31129,68.60892-4.31129,99.73382,0,25.90346.96013,47.31998,2.87562,64.25003,1.59371,13.94875,5.58702,24.65534,11.97613,32.12644,6.38292,7.46824,13.80828,11.20594,22.27283,11.20594,9.42039,0,17.68263-4.35604,24.79053-13.07669,7.10171-8.71255,10.65756-20.66727,10.65756-35.85699,0-2.243-.32179-6.5957-.95775-13.07621l78.31969-79.56257c3.35355,9.71172,7.54536,26.0258,12.57544,48.93368,5.03008,22.91455,7.54298,47.94213,7.54298,75.08324,0,32.62578-5.508,62.13318-16.52591,88.52837-11.01648,26.399-29.85917,46.44744-56.52474,60.13914-18.68084,9.46228-36.32682,14.19485-52.93175,14.19485-25.06991,0-47.14618-8.59355-66.22403-25.77303-19.08212-17.18377-34.93161-37.85056-47.5437-62.00989-5.90886-11.20641-10.50148-29.75349-13.77219-55.65648-3.27453-25.89632-5.38852-52.91414-6.34627-81.0606-.95775-28.13598-1.43757-56.27578-1.43757-84.41795v-42.21136l-70.65532,3.36164-17.725-168.46699,89.33807,9.33804-5.508-171.45543Z"/>
    <path class="cls-3" d="M2764.49918,656.83195l100.11511-70.2231,1.9155,208.80759c1.2762,12.95292,1.91597,27.64331,1.91597,44.07735,0,14.44476-.32179,25.15469-.95775,32.12359l2.87515,228.98313-107.78138,8.9658v-22.78792c-17.56506,11.20594-35.29006,16.81057-53.17119,16.81057-13.73359,0-26.62701-3.24168-38.68168-9.71124-12.05706-6.47384-22.47566-15.18973-31.25628-26.15004-14.21342-18.4276-25.30844-43.26526-33.29126-74.51964-7.98282-31.25152-11.97613-64.31001-11.97613-99.17546,0-60.01299,11.0974-108.45114,33.29364-145.31015,19.16067-31.37433,38.91874-55.1538,59.27802-71.34555,20.35785-16.18508,41.1546-24.27929,62.39308-24.27929,5.905,0,10.37814.24991,13.4118.74592l1.9174,2.98844Z"/>
    <polygon class="cls-3" points="2932.16079 422.23479 3077.56709 407.02748 3116.28553 505.20362 3150.27143 369.2283 3244.55205 365.54072 3355.97247 1173.55404 3183.96422 1147.27811 3152.6374 871.64517 3118.64915 973.50948 3072.83926 845.37042 3058.06133 1079.06137 2891.07873 1097.96096 2932.16079 422.23479"/>
    <polygon class="cls-3" points="3450.33824 1191.85883 3342.3198 1201.19782 3336.57093 800.38606 3301.12284 812.7135 3312.85953 720.82349 3434.53111 641.25759 3450.33824 1191.85883"/>
    <path class="cls-3" d="M3371.77961,414.89018c11.33634,0,21.11518,2.93275,29.34076,8.78015,8.2213,5.85407,14.96697,12.94911,20.23599,21.2899,5.26904,8.34745,8.86155,15.6329,10.77704,21.85255,1.91978,6.72613,2.87565,14.07156,2.87565,22.03867,0,12.20414-1.67656,24.59536-5.0301,37.16937-3.35355,12.57639-7.42397,23.34677-12.21509,32.30876-4.79112,8.96675-9.33947,14.19485-13.65076,15.68955-8.30461,1.99689-14.5314,2.98844-18.68084,2.98844-10.53999,0-19.72332-2.85849-27.54429-8.58974-7.82668-5.7284-14.05347-14.06775-18.68275-25.02759-4.63308-10.9565-7.5068-23.77995-8.62259-38.477,0-21.15994,3.31308-40.95895,9.94068-59.39036,6.62426-18.42808,17.04287-28.63533,31.2563-30.6327Z"/>
  </g>
  <path class="cls-1" d="M1603.65039,1208.83053l-19.39963-595.84926-33.53212,9.87464,5.98783-187.6832,290.28852-71.51829,5.98783,171.87903-164.78356,45.04491,3.83099,123.27973,123.58898-32.39886,5.9883,142.24453-125.50495,38.72164,13.65267,356.40512c-5.74887,1.31672-15.41203,3.09417-28.98187,5.33335-13.57365,2.23515-26.0277,3.35902-37.36359,3.35902-17.88494,0-31.1368-2.90182-39.75939-8.69237Z"/>
  <path class="cls-2" d="M1696.10257,1176.43167l-11.49583-340.20368,125.26361-38.72516-5.98783-106.68453-122.62933,38.72516-4.79112-165.16603,162.86807-45.04441-4.07233-132.76062-264.89868,64.80176-7.9038,142.24402,31.61472-6.32328,23.47196,601.77878c3.35355.52467,8.70161,1.24925,16.04846,2.17523,7.34257.91944,15.08834,1.38067,23.233,1.38067,26.18336,0,39.27909-5.13647,39.27909-15.4089v-.78902Z"/>
  <polygon class="cls-1" points="1982.28781 1175.31535 1874.26937 1184.65434 1868.52051 783.84258 1833.07241 796.17002 1844.80958 704.28001 1966.48069 624.71411 1982.28781 1175.31535"/>
  <polygon class="cls-2" points="1966.48069 1157.01056 1954.74542 652.35742 1856.54437 716.60412 1848.88144 768.52624 1882.17317 740.88626 1887.92204 1166.34908 1966.48069 1157.01056"/>
  <path class="cls-1" d="M1903.72916,398.3467c11.33636,0,21.1152,2.93275,29.34079,8.78015,8.2213,5.85407,14.96886,12.94911,20.2379,21.2899,5.26904,8.34745,8.86155,15.6329,10.77704,21.85255,1.91788,6.72613,2.87562,14.07156,2.87562,22.03867,0,12.20414-1.67653,24.59536-5.03008,37.16937-3.35355,12.57639-7.42588,23.34677-12.21509,32.30876-4.79112,8.96675-9.34137,14.19485-13.65267,15.68955-8.30461,1.99689-14.5314,2.98844-18.68084,2.98844-10.53999,0-19.72332-2.85849-27.54429-8.58974-7.82621-5.7284-14.05347-14.06775-18.68275-25.02759-4.63308-10.9565-7.50632-23.77995-8.62259-38.477,0-21.15994,3.31308-40.95895,9.94116-59.39036,6.62379-18.42808,17.04239-28.63533,31.25581-30.6327Z"/>
  <path class="cls-2" d="M1907.56063,422.62932c-18.20292,8.72017-27.30343,30.38279-27.30343,64.995,1.27573,16.19175,6.42576,28.14313,15.44916,35.8608,9.01721,7.72148,18.08106,11.57818,27.18347,11.57818,9.25855-1.73985,16.16795-8.89868,20.7182-21.47602,4.55025-12.57353,6.8261-27.58,6.8261-45.0132-.95775-10.46002-5.47135-20.97668-13.53319-31.56379-8.06517-10.58378-16.00943-15.87519-23.8304-15.87519-.80161,0-2.63428.50267-5.50991,1.49422Z"/>
  <path class="cls-1" d="M1985.16153,640.03046l117.60068,21.2899c-2.87324,59.02145-4.31082,107.70903-4.31082,146.05559,0,19.17971.35844,35.73751,1.07723,49.68246.71879,13.9478,1.87503,26.64843,3.47303,38.10047,1.59371,11.45537,3.51111,21.29037,5.74887,29.50692,10.05826,35.61803,19.23969,53.41729,27.54429,53.41729,6.38292,0,12.93388-12.70016,19.63859-38.10094,4.46933-17.6793,8.46264-35.04872,11.97613-52.10872,3.5092-17.05286,6.22679-33.30506,8.14228-48.74756,1.91788-15.43535,3.35355-32.36874,4.31129-50.80015.96013-18.42808,1.43805-38.59648,1.43805-60.51567,0-21.9092-.15994-38.9692-.47792-51.1743l100.11464,9.33947c5.26904,51.5494,8.38363,82.61813,9.34137,93.1981.95822,10.58664,1.43615,23.84944,1.43615,39.78128,0,27.1473-4.23227,67.4879-12.69302,121.02753-4.15516,27.14825-13.33469,55.66029-27.54429,85.53993-14.21342,29.88345-27.9451,50.80443-41.19696,62.75581-20.75866,18.4276-44.94941,27.64331-72.57082,27.64331-19.16067,0-37.80486-4.23656-55.92686-12.70016-18.1239-8.46312-34.76977-21.04094-49.93712-37.72822-14.21342-15.43869-25.58977-35.61089-34.13143-60.51519-8.54357-24.89764-14.48903-52.04208-17.84258-81.42951-3.35355-29.38077-5.03008-62.01084-5.03008-97.86783,0-21.41604.43746-42.08378,1.31809-62.00941.87492-19.91897,2.03545-40.2773,3.47303-61.07499,1.43567-20.78722,3.11268-41.6487,5.02818-62.5654Z"/>
  <path class="cls-2" d="M1998.8142,664.3088c-5.59083,57.03074-8.38363,107.57907-8.38363,151.65642,0,32.62959,1.75555,63.38177,5.26904,92.26653,3.51158,28.89143,9.34137,54.91103,17.48604,78.07168,8.14276,23.15731,19.07784,42.33702,32.81143,57.52342,26.98355,30.6327,57.08358,45.94524,90.29772,45.94524,25.06567,0,47.2619-9.20904,66.58252-27.63997,7.98282-7.71815,14.85176-16.12225,20.59872-25.21419,5.74887-9.08908,10.53808-18.36096,14.37145-27.82991,3.83147-9.46181,7.50252-19.91897,11.016-31.37814,3.51158-11.45156,6.54715-21.03999,9.10241-28.76195,11.97613-37.60065,17.96396-75.82773,17.96396-114.67793,0-17.67835-1.35855-40.02691-4.07233-67.04806-2.71711-27.01782-4.07233-46.00474-4.07233-56.96791l-72.57034-2.98939c1.27573,17.43701,1.9155,31.7542,1.9155,42.96061,0,28.89143-1.9155,60.01633-5.74887,93.38422-3.83147,33.37456-8.46455,62.38261-13.89163,87.03415-5.26904,24.15886-11.81809,42.34036-19.64097,54.53831-7.8243,12.20414-16.04608,18.30479-24.66867,18.30479-8.94437,0-17.08714-6.35341-24.42971-19.05404-7.34686-12.70016-12.53688-29.6302-15.56864-50.8011-5.90881-42.82923-8.86155-88.65118-8.86155-137.46157,0-36.10738,1.59418-74.95281,4.78969-116.54487l-90.29582-15.31635Z"/>
  <path class="cls-1" d="M2314.73151,450.26929l104.66684-73.58474-1.67653,251.018,78.08068,2.98892v143.81212l-80.9563,1.4947c-2.87324,35.36479-4.31129,68.60892-4.31129,99.73382,0,25.90346.96013,47.31998,2.87562,64.25003,1.59371,13.94875,5.58702,24.65534,11.97613,32.12644,6.38292,7.46824,13.80828,11.20594,22.27283,11.20594,9.42039,0,17.68263-4.35604,24.79053-13.07669,7.10171-8.71255,10.65756-20.66727,10.65756-35.85699,0-2.243-.32179-6.5957-.95775-13.07621l78.31969-79.56257c3.35355,9.71172,7.54536,26.0258,12.57544,48.93368,5.03008,22.91455,7.54298,47.94213,7.54298,75.08324,0,32.62578-5.508,62.13318-16.52591,88.52837-11.01648,26.399-29.85917,46.44744-56.52474,60.13914-18.68084,9.46228-36.32682,14.19485-52.93175,14.19485-25.06991,0-47.14618-8.59355-66.22403-25.77303-19.08212-17.18377-34.93161-37.85056-47.5437-62.00989-5.90886-11.20641-10.50148-29.75349-13.77219-55.65648-3.27453-25.89632-5.38852-52.91414-6.34627-81.0606-.95775-28.13598-1.43757-56.27578-1.43757-84.41795v-42.21136l-70.65532,3.36164-17.725-168.46699,89.33807,9.33804-5.508-171.45543Z"/>
  <path class="cls-2" d="M2331.01846,465.58517l.95775,183.40776-83.34977-8.96246,15.56864,122.14522,66.82338-5.97355c-.32179,18.43189-.47983,43.70177-.47983,75.82869,0,40.09784.99631,74.27401,2.9951,102.53614,1.99451,28.26594,5.7065,52.48192,11.13553,72.65412,17.88113,63.75402,51.89308,97.37135,102.03247,100.8558,12.13227,0,25.26845-3.04842,39.40095-9.15287,14.13059-6.10064,27.26297-15.37252,39.39857-27.82991,12.13227-12.44644,21.99393-28.50871,29.57975-48.18443,7.58154-19.66906,11.37635-42.21136,11.37635-67.61119,0-26.6451-3.91429-54.28555-11.73479-82.92754l-60.83603,58.27267c0,18.1815-2.3163,33.05849-6.94748,44.64047-4.63118,11.57866-10.53808,19.92563-17.7231,25.02426-7.18454,5.10862-14.84938,7.6577-22.99214,7.6577-7.66484,0-14.69319-2.36248-21.0785-7.09552-10.38004-4.72876-17.52412-18.8008-21.43461-42.2104-3.9162-23.40389-5.86835-52.66804-5.86835-87.78387,0-14.1939.31798-34.11334.95775-59.76642.63596-25.64356.95775-42.9568.95775-51.9226h84.30747l-1.9155-110.19432-79.99617,3.36449,1.43567-242.05553-72.57087,55.28328Z"/>
  <path class="cls-1" d="M2737.22922,673.64732l100.11511-70.2231,1.9155,208.80759c1.2762,12.95292,1.91597,27.64331,1.91597,44.07735,0,14.44476-.32179,25.15469-.95775,32.12359l2.87515,228.98313-107.78138,8.9658v-22.78792c-17.56506,11.20594-35.29006,16.81057-53.17119,16.81057-13.73359,0-26.62701-3.24168-38.68168-9.71124-12.05706-6.47384-22.47566-15.18973-31.25628-26.15004-14.21342-18.4276-25.30844-43.26526-33.29126-74.51964-7.98282-31.25152-11.97613-64.31001-11.97613-99.17546,0-60.01299,11.0974-108.45114,33.29364-145.31015,19.16067-31.37433,38.91874-55.1538,59.27802-71.34555,20.35785-16.18508,41.1546-24.27929,62.39308-24.27929,5.905,0,10.37814.24991,13.4118.74592l1.9174,2.98844Z"/>
  <path class="cls-2" d="M2748.96448,682.98631v10.46049c-2.55574-.49553-6.46623-.74878-11.73527-.74878-9.90212,0-19.87946,1.86694-29.93962,5.60463-10.06016,3.73436-20.47924,9.46514-31.25628,17.18329-10.77704,7.72148-21.35797,17.43272-31.73611,29.13419-10.38004,11.70909-19.80044,24.78149-28.26118,39.22244-7.82478,13.20283-14.13059,27.21061-18.92171,42.0238-4.78922,14.81748-8.38363,30.25664-10.77752,46.31844-2.39532,16.06084-3.59393,32.18975-3.59393,48.37436,0,31.6271,3.95285,60.9517,11.85618,87.96952,7.9038,27.02163,18.64038,47.7522,32.21403,62.19316,10.6966,11.70813,26.0258,17.55601,45.98618,17.55601,26.0258,0,51.41326-9.20904,76.16523-27.64093v47.43994l78.56055-8.96675-2.15684-468.41867-76.40372,52.29484Z"/>
  <path d="M2735.31182,739.39204c-12.45405,12.94959-18.68084,31.6271-18.68084,56.0292,0,16.94052,2.39532,28.38827,7.18454,34.36611,3.35355,3.49111,7.18501,5.23191,11.49631,5.23191v79.56257c-4.15326.99821-7.42397,1.4947-9.8193,1.4947-12.45405,0-24.75197-6.35008-36.88376-19.05118-13.73549-14.1939-20.59872-32.62198-20.59872-55.28328,0-10.95603,1.71366-22.09865,5.14956-33.43121,3.43066-11.32875,8.18132-21.72593,14.25007-31.19107,6.06732-9.46181,13.37134-17.6793,21.91491-24.65534,8.54166-6.9689,17.20471-11.32875,25.98724-13.0724Z"/>
  <polygon class="cls-1" points="2904.89083 439.05016 3050.29713 423.84285 3089.01556 522.01899 3123.00146 386.04367 3217.28209 382.35608 3328.7025 1190.36941 3156.69426 1164.09348 3125.36744 888.46054 3091.37919 990.32485 3045.5693 862.18578 3030.79136 1095.87674 2863.80877 1114.77633 2904.89083 439.05016"/>
  <path class="cls-2" d="M3050.29713,457.94975l-135.65342,11.52267-31.32976,619.03327,135.36092-15.21142,17.14154-279.32581c3.74103,11.37171,9.06095,27.50238,15.95975,48.39848,6.8941,20.89904,14.67573,43.8686,23.34842,68.90691,8.66623,25.05183,13.29832,37.56893,13.89099,37.56893.78474,0,8.12584-21.20389,22.01624-63.60932,13.89099-42.4066,21.13223-64.06983,21.72433-64.98966l36.05522,324.95537,140.68024,26.27064c-4.33723-31.34327-12.31622-89.10814-23.9405-173.3093-11.62663-84.19234-23.59571-171.30868-35.90723-261.34547-12.31619-90.03209-22.80862-167.46955-31.47719-232.31119-8.67034-64.83283-13.00345-99.25222-13.00345-103.24818l-75.06794,3.68758-41.07973,173.7698-38.71843-120.76331Z"/>
  <polygon class="cls-1" points="3423.06827 1208.67419 3315.04984 1218.01319 3309.30097 817.20143 3273.85288 829.52886 3285.58957 737.63886 3407.26115 658.07296 3423.06827 1208.67419"/>
  <polygon class="cls-2" points="3407.26115 1190.36941 3395.52398 685.71626 3297.32484 749.96296 3289.6619 801.88508 3322.95316 774.2451 3328.7025 1199.70792 3407.26115 1190.36941"/>
  <path class="cls-1" d="M3344.50965,431.70554c11.33634,0,21.11518,2.93275,29.34076,8.78015,8.2213,5.85407,14.96697,12.94911,20.23599,21.2899,5.26904,8.34745,8.86155,15.6329,10.77704,21.85255,1.91978,6.72613,2.87565,14.07156,2.87565,22.03867,0,12.20414-1.67656,24.59536-5.0301,37.16937-3.35355,12.57639-7.42397,23.34677-12.21509,32.30876-4.79112,8.96675-9.33947,14.19485-13.65076,15.68955-8.30461,1.99689-14.5314,2.98844-18.68084,2.98844-10.53999,0-19.72332-2.85849-27.54429-8.58974-7.82668-5.7284-14.05347-14.06775-18.68275-25.02759-4.63308-10.9565-7.5068-23.77995-8.62259-38.477,0-21.15994,3.31308-40.95895,9.94068-59.39036,6.62426-18.42808,17.04287-28.63533,31.2563-30.6327Z"/>
  <path class="cls-2" d="M3348.34109,455.98816c-18.20292,8.72017-27.30343,30.38279-27.30343,64.995,1.27573,16.19175,6.42529,28.14313,15.44868,35.8608,9.01768,7.72148,18.08156,11.57818,27.18395,11.57818,9.25855-1.73985,16.16794-8.89868,20.7182-21.47602,4.54835-12.57353,6.8261-27.58,6.8261-45.0132-.95963-10.46002-5.47325-20.97668-13.53319-31.56379-8.06517-10.58378-16.00943-15.87519-23.8304-15.87519-.80159,0-2.63426.50267-5.50991,1.49422Z"/>
</svg>