<svg width="24" height="24" viewBox="0 0 24 24" fill="none" xmlns="http://www.w3.org/2000/svg">
  <g transform="translate(3, 1)">
    <path d="M2.94002 17.37H0.649981C0.596847 17.3704 0.544999 17.3864 0.500934 17.4161C0.456868 17.4458 0.422586 17.4878 0.402301 17.5369C0.382016 17.586 0.376652 17.64 0.38692 17.6922C0.397188 17.7443 0.422586 17.7922 0.459979 17.83L3.75002 21.12L3.94002 21.2C3.97631 21.2013 4.01248 21.1953 4.0464 21.1824C4.08033 21.1694 4.11127 21.1497 4.13741 21.1245C4.16355 21.0993 4.18438 21.0691 4.19857 21.0357C4.21276 21.0022 4.22001 20.9663 4.21999 20.93V18.65C4.21999 18.3105 4.08516 17.985 3.84511 17.7449C3.60506 17.5049 3.2795 17.37 2.94002 17.37Z" fill="white"/>
    <path d="M16.57 2.59H13.39V0.500008C13.39 0.3674 13.3373 0.2402 13.2435 0.146431C13.1498 0.0526632 13.0226 8.0169e-06 12.89 8.0169e-06C12.7814 -0.000619528 12.6757 0.0356117 12.5903 0.102822C12.505 0.170032 12.4449 0.264239 12.42 0.370003V2.59H13.42V4.66999C13.42 4.8026 13.3673 4.92977 13.2736 5.02354C13.1798 5.11731 13.0526 5.16999 12.92 5.16999C12.7874 5.16999 12.6602 5.11731 12.5664 5.02354C12.4726 4.92977 12.42 4.8026 12.42 4.66999V2.59H6.10999V0.500008C6.10743 0.368201 6.05391 0.242488 5.96069 0.149269C5.86747 0.0560505 5.74179 0.00256809 5.60999 8.0169e-06C5.5005 0.000622532 5.39427 0.0371409 5.30756 0.103981C5.22084 0.170822 5.15847 0.264285 5.13 0.370003V2.59H6.13V4.66999C6.13 4.8026 6.07729 4.92977 5.98352 5.02354C5.88975 5.11731 5.76261 5.16999 5.63 5.16999C5.4974 5.16999 5.3702 5.11731 5.27643 5.02354C5.18266 4.92977 5.13 4.8026 5.13 4.66999V2.59H1.57001C1.36873 2.58334 1.16812 2.61675 0.979858 2.68827C0.791601 2.7598 0.619463 2.868 0.473389 3.00663C0.327314 3.14526 0.210231 3.31153 0.128967 3.4958C0.0477034 3.68006 0.00386452 3.87865 0 4.07999V8.07999H18.1V4.07999C18.0895 3.68119 17.9237 3.30221 17.6379 3.02387C17.3521 2.74554 16.969 2.58987 16.57 2.59Z" fill="white"/>
    <path d="M0 16.56C0.194166 16.4361 0.419629 16.3702 0.649963 16.37H2.94C3.54389 16.3726 4.12224 16.6137 4.54926 17.0407C4.97627 17.4677 5.21734 18.0461 5.21997 18.65V20.93C5.213 21.1653 5.14029 21.3939 5.01001 21.59H16.57C16.9723 21.59 17.3585 21.4316 17.6448 21.149C17.9312 20.8663 18.0947 20.4823 18.1 20.08V9.07999H0V16.56ZM12.56 12.12H13.22C13.3526 12.12 13.4798 12.1727 13.5735 12.2664C13.6673 12.3602 13.72 12.4874 13.72 12.62C13.72 12.7526 13.6673 12.8798 13.5735 12.9735C13.4798 13.0673 13.3526 13.12 13.22 13.12H12.56C12.4274 13.12 12.3002 13.0673 12.2064 12.9735C12.1127 12.8798 12.06 12.7526 12.06 12.62C12.0545 12.551 12.0633 12.4817 12.0859 12.4164C12.1086 12.351 12.1445 12.291 12.1915 12.2403C12.2385 12.1895 12.2955 12.1491 12.3589 12.1215C12.4224 12.0939 12.4908 12.0798 12.56 12.08V12.12ZM12.56 15.51H13.22C13.3526 15.51 13.4798 15.5627 13.5735 15.6564C13.6673 15.7502 13.72 15.8774 13.72 16.01C13.72 16.1426 13.6673 16.2698 13.5735 16.3635C13.4798 16.4573 13.3526 16.51 13.22 16.51H12.56C12.4274 16.51 12.3002 16.4573 12.2064 16.3635C12.1127 16.2698 12.06 16.1426 12.06 16.01C12.06 15.8774 12.1127 15.7502 12.2064 15.6564C12.3002 15.5627 12.4274 15.51 12.56 15.51ZM8.89996 12.08H9.56C9.69261 12.08 9.81974 12.1327 9.91351 12.2264C10.0073 12.3202 10.06 12.4474 10.06 12.58C10.06 12.7126 10.0073 12.8398 9.91351 12.9335C9.81974 13.0273 9.69261 13.08 9.56 13.08H8.89996C8.76736 13.08 8.64022 13.0273 8.54645 12.9335C8.45268 12.8398 8.39996 12.7126 8.39996 12.58C8.39996 12.4474 8.45268 12.3202 8.54645 12.2264C8.64022 12.1327 8.76736 12.08 8.89996 12.08ZM8.89996 15.47H9.56C9.69261 15.47 9.81974 15.5227 9.91351 15.6164C10.0073 15.7102 10.06 15.8374 10.06 15.97C10.06 16.1026 10.0073 16.2298 9.91351 16.3235C9.81974 16.4173 9.69261 16.47 9.56 16.47H8.89996C8.76736 16.47 8.64022 16.4173 8.54645 16.3235C8.45268 16.2298 8.39996 16.1026 8.39996 15.97C8.41004 15.8444 8.46718 15.7273 8.55988 15.642C8.65257 15.5567 8.774 15.5096 8.89996 15.51V15.47ZM5.22998 12.08H5.89996C6.03257 12.08 6.15977 12.1327 6.25354 12.2264C6.34731 12.3202 6.39996 12.4474 6.39996 12.58C6.39996 12.7126 6.34731 12.8398 6.25354 12.9335C6.15977 13.0273 6.03257 13.08 5.89996 13.08H5.22998C5.09737 13.08 4.97023 13.0273 4.87646 12.9335C4.7827 12.8398 4.72998 12.7126 4.72998 12.58C4.73254 12.4482 4.78605 12.3225 4.87927 12.2293C4.97249 12.1361 5.09817 12.0825 5.22998 12.08ZM5.22998 15.47H5.89996C6.03257 15.47 6.15977 15.5227 6.25354 15.6164C6.34731 15.7102 6.39996 15.8374 6.39996 15.97C6.39996 16.1026 6.34731 16.2298 6.25354 16.3235C6.15977 16.4173 6.03257 16.47 5.89996 16.47H5.22998C5.09737 16.47 4.97023 16.4173 4.87646 16.3235C4.7827 16.2298 4.72998 16.1026 4.72998 15.97C4.74225 15.8453 4.79999 15.7294 4.89221 15.6446C4.98443 15.5597 5.10468 15.5118 5.22998 15.51V15.47Z" fill="white"/>
  </g>
</svg>
