<svg width="24" height="24" viewBox="0 0 24 24" fill="none" xmlns="http://www.w3.org/2000/svg">
  <g transform="translate(1.5, 1)">
    <mask id="mask0_globe_inactive" style="mask-type:luminance" maskUnits="userSpaceOnUse" x="0" y="0" width="21" height="22">
      <path d="M10.5 22C16.299 22 21 17.0751 21 11C21 4.92487 16.299 0 10.5 0C4.70101 0 0 4.92487 0 11C0 17.0751 4.70101 22 10.5 22Z" fill="white"/>
    </mask>
    <g mask="url(#mask0_globe_inactive)">
      <path d="M15.175 3.0368C14.8844 3.79156 13.6169 3.77309 13.6169 3.77309C13.1555 3.91312 12.6696 4.47599 12.6696 4.47599C11.446 5.10146 10.9196 4.02727 10.9196 4.02727C10.6927 2.98002 11.5009 2.51775 11.5009 2.51775C11.5009 2.51775 11.8935 2.28082 11.7911 1.88715C11.7911 1.88715 11.5503 1.54786 11.7012 1.21995L11.7092 1.20246C11.8602 0.874562 12.2636 0.860685 12.2636 0.860685C12.6213 0.699432 12.5538 0.230094 12.5538 0.230094C12.5538 0.230094 12.3956 -0.720233 13.3191 -1.18644C13.3191 -1.18644 14.4492 -1.4239 14.7441 -0.0314367C14.7441 -0.0314367 14.6263 0.717344 14.8091 1.18273C14.8091 1.18273 15.6122 2.21018 15.2295 2.91841L15.175 3.0368Z" fill="white"/>
      <path d="M16.0304 1.15315C15.3968 0.909255 15.0083 0.36375 15.1628 -0.0654632C15.3172 -0.494677 15.956 -0.644846 16.5896 -0.401031C17.2232 -0.157088 17.6117 0.388421 17.4573 0.817623C17.3029 1.24685 16.664 1.39703 16.0304 1.15315Z" fill="white"/>
      <path d="M16.463 4.0327C15.8863 3.66524 15.237 3.68652 15.0126 4.0804C14.7882 4.47425 15.0739 5.09142 15.6506 5.45893C16.2273 5.82635 16.8767 5.80507 17.1011 5.41119C17.3255 5.01733 17.0398 4.40018 16.463 4.0327Z" fill="white"/>
      <path d="M16.7522 3.44546C16.1185 3.20161 15.73 2.65605 15.8844 2.22691C16.0389 1.79771 16.6777 1.64751 17.3114 1.89135C17.9449 2.13521 18.3334 2.68079 18.1789 3.10998C18.0246 3.53915 17.3857 3.68937 16.7522 3.44546Z" fill="white"/>
      <path d="M14.3478 4.80888C13.7711 4.44135 13.1217 4.46268 12.8974 4.85651C12.673 5.25037 12.9586 5.86753 13.5353 6.23505C14.1121 6.60253 14.7615 6.58118 14.9858 6.18737C15.2102 5.79351 14.9245 5.17634 14.3478 4.80888Z" fill="white"/>
      <path d="M19.2269 12.1127C19.2269 12.1127 18.7067 12.1556 19.0215 13.0893C19.0215 13.0893 18.4948 13.9113 18.7495 14.2908C18.7495 14.2908 18.9343 14.7784 19.6172 14.4638L21.4945 13.1623C21.4945 13.1623 21.6952 13.0232 21.5264 12.5841C21.5264 12.5841 21.1983 12.1959 20.6309 12.2914C20.6309 12.2914 20.5204 12.348 20.2194 12.2191C20.2194 12.2191 19.7369 11.7194 19.2269 12.1127Z" fill="white"/>
      <path d="M18.3153 12.4627C18.6611 12.7296 18.7367 13.1698 18.4842 13.4459C18.2317 13.7219 17.7466 13.7294 17.4007 13.4625C17.0548 13.1956 16.9792 12.7554 17.2318 12.4793C17.4843 12.2032 17.9694 12.1958 18.3153 12.4627Z" fill="white"/>
      <path d="M20.1581 11.5624C20.3287 11.9508 20.7552 12.1477 21.1107 12.0023C21.4661 11.8568 21.616 11.424 21.4454 11.0356C21.2749 10.6472 20.8484 10.4502 20.4929 10.5957C20.1374 10.7412 19.9875 11.1739 20.1581 11.5624Z" fill="white"/>
      <path d="M18.4838 11.2999C18.5069 11.7241 18.2158 12.0947 17.8335 12.1279C17.4513 12.1611 17.1226 11.8442 17.0994 11.4201C17.0763 10.996 17.3674 10.6253 17.7497 10.5921C18.1319 10.5589 18.4606 10.8758 18.4838 11.2999Z" fill="white"/>
      <path d="M18.9823 11.0536C19.4078 11.1988 19.8711 11.0465 20.017 10.7134C20.163 10.3804 19.9364 9.99273 19.5108 9.84759C19.0854 9.70234 18.6221 9.85469 18.4762 10.1877C18.3302 10.5207 18.5568 10.9084 18.9823 11.0536Z" fill="white"/>
      <path d="M16.9185 12.5016L17.2726 12.276L16.9141 11.8493C16.9141 11.8493 16.6941 12.1607 16.9185 12.5016Z" fill="white"/>
      <path d="M20.6374 10.3564L20.2648 10.5533L20.0242 10.058C20.0242 10.058 20.4172 10.0129 20.6374 10.3564Z" fill="white"/>
      <path d="M17.3717 10.6582L17.6583 10.4595L17.3808 10.1355C17.3808 10.1355 17.2653 10.3546 17.3717 10.6582Z" fill="white"/>
      <path d="M18.5732 9.84715L18.3252 10.0867L18.0149 9.78958C18.0149 9.78958 18.263 9.71068 18.5732 9.84715Z" fill="white"/>
      <path d="M-2.74255 8.77373C-2.54247 7.85303 -3.41187 7.6678 -3.41187 7.6678C-3.41187 7.6678 -4.37233 7.52148 -4.60722 8.71895C-4.61331 8.82329 -4.47765 9.11747 -4.35696 9.1885C-4.11092 9.3333 -3.66776 9.52416 -3.24643 9.34774L-0.395179 11.8541C-0.395179 11.8541 0.0235002 12.1005 -0.290286 12.4199C-0.290286 12.4199 -0.449893 12.4143 -0.734597 12.2684C-1.01926 12.1225 -2.25306 11.8357 -2.25306 11.8357C-2.25306 11.8357 -2.66149 11.205 -3.3377 11.4722C-3.3377 11.4722 -4.45561 12.1528 -3.73867 12.8144C-3.35406 13.0668 -3.17556 13.0949 -2.68962 12.5139C-2.68962 12.5139 -1.12079 12.2294 0.43235 13.5814C0.703233 13.6426 2.40845 15.7833 3.01308 15.7869C3.01308 15.7869 4.13388 15.6727 3.97204 14.2379C3.97204 14.2379 3.23218 11.342 3.25055 11.3145C3.25055 11.3145 3.26913 9.8636 3.60949 9.39906L4.01857 8.73545C4.01857 8.73545 4.16909 8.56236 4.2458 8.51869C4.3672 8.44963 4.52878 8.3399 4.55343 8.23382C4.55343 8.23382 4.81836 7.56032 4.17197 7.21818C4.17197 7.21818 3.77075 6.80821 3.2091 7.51395C3.2091 7.51395 3.08792 7.72874 3.24539 7.9957C3.2823 8.05807 3.44365 8.25845 3.45205 8.38157C3.46379 8.5527 3.42048 8.82824 3.14594 9.16723C3.14594 9.16723 2.2077 10.9263 2.02129 10.2077C2.02129 10.2077 1.54003 7.91281 1.21408 7.09645C1.21408 7.09645 0.981475 6.65419 1.26451 6.28685C1.26451 6.28685 1.7516 5.93574 1.22485 5.31838C1.22485 5.31838 0.707562 4.59104 -0.119001 5.49571C-0.119001 5.49571 -0.573021 6.24358 -0.096129 6.52885L0.462717 6.97937C0.462717 6.97937 1.05071 8.22765 1.15001 8.79992C1.17942 8.96967 1.232 10.5015 0.90581 10.3819C0.90581 10.3819 0.94072 10.6231 0.485523 10.0513C0.485523 10.0513 -0.714848 8.6736 -1.55975 6.36599C-1.55975 6.36599 -1.31536 5.73462 -1.44308 5.54187C-1.44308 5.54187 -1.94264 4.83872 -2.76586 5.48432C-2.76586 5.48432 -3.4985 6.0959 -2.70371 6.72961C-2.70371 6.72961 -2.08503 6.73487 -1.91962 7.10258C-1.91962 7.10258 -1.28843 8.63649 0.179956 10.6163C0.179956 10.6163 0.532419 11.2174 0.372316 11.2317C0.336279 11.2349 0.237109 11.468 -1.60221 10.1567C-1.60221 10.1567 -2.50465 9.59225 -2.74255 8.77373Z" fill="white"/>
      <path d="M11.2875 6.47044C11.2875 6.47044 10.3343 6.75404 10.0527 7.37141C10.0527 7.37141 10.1715 7.56386 10.6735 7.14416L11.2875 6.47044Z" fill="white"/>
      <path d="M12.3046 6.60893C12.3046 6.60893 11.1616 7.20381 10.9214 7.67017C10.9214 7.67017 11.7946 7.40843 12.3046 6.60893Z" fill="white"/>
      <path d="M13.069 7.26765C13.069 7.26765 11.9348 7.71317 11.355 8.27516C11.355 8.27516 12.0605 8.26679 13.069 7.26765Z" fill="white"/>
      <path d="M12.7935 8.18611C12.7935 8.18611 11.7336 8.7093 11.5203 8.78776C11.5203 8.78776 11.5852 8.86941 12.2232 8.74405C12.2232 8.74405 12.4526 8.70729 12.7935 8.18611Z" fill="white"/>
      <path d="M12.6037 8.98309C12.6037 8.98309 12.3957 9.5328 11.8441 9.76715C11.8441 9.76715 11.6759 9.79005 11.6003 9.65222L12.6037 8.98309Z" fill="white"/>
      <path d="M10.52 8.52069C10.52 8.52069 10.6452 7.95752 10.1175 7.93887C10.1175 7.93887 9.71289 8.03792 9.60053 8.3771C9.60053 8.3771 9.16527 9.56972 7.91274 10.0533C7.91274 10.0533 6.86556 10.4376 7.16562 11.1842C7.16562 11.1842 7.35789 11.7096 8.47458 10.8467C8.47458 10.8467 9.34145 10.0534 10.821 9.81332C10.821 9.81332 11.4155 9.7185 11.3218 9.33343C11.2088 9.04148 11.1304 9.09298 10.7269 8.87034C10.6898 8.85808 10.5304 8.66197 10.52 8.52069Z" fill="white"/>
      <path d="M7.05742 8.27517L6.06272 7.65111C6.06272 7.65111 9.58249 4.26377 8.0414 2.59373C8.0414 2.59373 6.34541 0.77989 4.94487 2.55948C4.94487 2.55948 4.09264 3.76575 4.0553 6.70065L2.92463 6.35542C2.92463 6.35542 2.63233 2.45742 4.23801 1.04298C4.23801 1.04298 6.29061 -1.63978 9.53165 1.79183C9.53165 1.79183 11.5051 3.84256 7.77231 7.56325L7.05742 8.27517Z" fill="white"/>
      <path d="M7.23252 16.852C8.08533 16.5464 7.77872 15.6742 7.77872 15.6742C7.77872 15.6742 7.39265 14.7413 6.2968 15.1615C6.20887 15.2109 6.04131 15.4864 6.04707 15.6313C6.05882 15.9267 6.1368 16.422 6.50154 16.7047L5.96515 20.5633C5.96515 20.5633 5.98514 21.0659 5.56085 20.9542C5.56085 20.9542 5.48152 20.809 5.45033 20.4785C5.41911 20.1482 5.00349 18.8978 5.00349 18.8978C5.00349 18.8978 5.30086 18.2023 4.72841 17.7402C4.72841 17.7402 3.58817 17.1016 3.42781 18.0883C3.42501 18.5638 3.49604 18.7376 4.22325 18.8653C4.22325 18.8653 5.27898 20.1139 4.99758 22.2087C5.09023 22.4823 4.24836 25.1273 4.56324 25.6681C4.56324 25.6681 5.24515 26.6069 6.32517 25.7084C6.32517 25.7084 8.28777 23.5268 8.31971 23.5287C8.31971 23.5287 9.50768 22.7826 10.0638 22.8417L10.8177 22.8574C10.8177 22.8574 11.0374 22.9006 11.1132 22.946C11.2331 23.0179 11.4071 23.1042 11.5062 23.0704C11.5062 23.0704 12.1924 22.9525 12.1304 22.1965C12.1304 22.1965 12.2524 21.6235 11.3841 21.4939C11.3841 21.4939 11.146 21.4988 11.012 21.7795C10.9807 21.8452 10.9028 22.0943 10.8073 22.1665C10.6745 22.2669 10.428 22.3732 10.0084 22.3067C10.0084 22.3067 8.0868 22.3952 8.5723 21.8514C8.5723 21.8514 10.1828 20.2161 10.6744 19.4965C10.6744 19.4965 10.9112 19.0567 11.3583 19.1158C11.3583 19.1158 11.8995 19.3654 12.1239 18.5714C12.1239 18.5714 12.4426 17.7281 11.2735 17.467C11.2735 17.467 10.4275 17.4555 10.4466 18.0305L10.3745 18.7653C10.3745 18.7653 9.66995 19.9455 9.25745 20.3349C9.13507 20.4503 7.91884 21.3024 7.8445 20.9488C7.8445 20.9488 7.66694 21.1067 7.89199 20.4005C7.89199 20.4005 8.37973 18.6065 9.80941 16.6405C9.80941 16.6405 10.4506 16.5264 10.5399 16.3112C10.5399 16.3112 10.8483 15.4964 9.89132 15.1021C9.89132 15.1021 9.00958 14.7707 8.9128 15.8121C8.9128 15.8121 9.23374 16.3663 9.02211 16.707C9.02211 16.707 8.10834 18.0758 7.27261 20.4251C7.27261 20.4251 6.96973 21.0553 6.874 20.9201C6.85246 20.8896 6.61099 20.9238 6.70891 18.5953C6.70891 18.5953 6.69292 17.4943 7.23252 16.852Z" fill="white"/>
      <path d="M14.4073 16.9211C14.4073 16.9211 12.9586 15.6302 12.2746 14.6645C12.2746 14.6645 11.5292 13.742 10.6543 13.2742C10.6543 13.2742 10.4271 13.1109 10.6015 12.9037C10.6015 12.9037 10.6665 12.7992 11.009 13.0135C11.009 13.0135 11.8483 13.3264 12.0833 13.352C12.0833 13.352 15.6063 13.506 15.8803 13.6255C15.8803 13.6255 15.3201 13.8619 13.076 13.8251C13.076 13.8251 12.9191 13.8566 13.0959 13.9947C13.0959 13.9947 15.8283 15.4489 16.3411 15.9162C16.3411 15.9162 13.6447 14.8701 12.9818 14.4423C12.9818 14.4423 12.7382 14.309 12.7195 14.5075C12.7195 14.5075 14.3188 16.7869 14.4073 16.9211Z" fill="white"/>
      <path d="M10.5 22C16.299 22 21 17.0751 21 11C21 4.92487 16.299 0 10.5 0C4.70101 0 0 4.92487 0 11C0 17.0751 4.70101 22 10.5 22Z" stroke="white" stroke-miterlimit="10"/>
    </g>
  </g>
</svg>
