<svg width="24" height="24" viewBox="0 0 24 24" fill="none" xmlns="http://www.w3.org/2000/svg">
  <g transform="translate(1, 1.5)">
    <path d="M19.25 10.42H2.87006V20.08C2.87006 20.4115 3.00172 20.7294 3.23615 20.9639C3.47057 21.1983 3.78854 21.33 4.12006 21.33H7.40002V18.17C7.39931 17.7074 7.49496 17.2498 7.68091 16.8262C7.86685 16.4027 8.13904 16.0225 8.48004 15.71C9.18328 15.0634 10.1048 14.7063 11.0601 14.71C12.0126 14.7048 12.9314 15.0623 13.63 15.71C13.9723 16.022 14.2461 16.4019 14.4337 16.8254C14.6214 17.2489 14.7189 17.7068 14.72 18.17V21.33H17.9901C18.155 21.3313 18.3186 21.3 18.4714 21.2377C18.6242 21.1755 18.7632 21.0836 18.8804 20.9674C18.9975 20.8512 19.0905 20.713 19.1539 20.5607C19.2174 20.4084 19.25 20.245 19.25 20.08V10.42Z" fill="white"/>
    <path d="M13.72 18.2C13.7181 17.8741 13.6487 17.5521 13.5162 17.2544C13.3837 16.9566 13.1909 16.6896 12.95 16.47C12.4353 15.9959 11.7598 15.7349 11.0601 15.74C10.3603 15.7349 9.68472 15.9959 9.17004 16.47C8.92775 16.6884 8.73402 16.9552 8.60138 17.2532C8.46874 17.5513 8.40012 17.8738 8.40002 18.2V21.36H13.73L13.72 18.2Z" fill="white"/>
    <path d="M21.7 7.54999L12.22 0.389987C11.8859 0.137591 11.4788 0.000722921 11.0601 3.03964e-06C10.6411 -0.000744141 10.2335 0.136277 9.90004 0.389987L0.420056 7.43997C0.288873 7.53933 0.182591 7.66787 0.109692 7.8154C0.0367928 7.96294 -0.000765323 8.12542 1.18189e-05 8.28998C0.00181999 8.58081 0.108368 8.86127 0.300061 9.07999C0.393771 9.18666 0.509122 9.27216 0.63844 9.33078C0.767757 9.38941 0.908076 9.41981 1.05006 9.41999H21.0501C21.1922 9.42375 21.3335 9.39716 21.4646 9.34198C21.5956 9.2868 21.7134 9.20429 21.8101 9.09998C21.9903 8.89559 22.0898 8.6325 22.09 8.35999C22.0928 8.2039 22.0589 8.04935 21.9912 7.90869C21.9235 7.76804 21.8237 7.64519 21.7 7.54999Z" fill="white"/>
  </g>
</svg>
