<svg width="24" height="24" viewBox="0 0 24 24" fill="none" xmlns="http://www.w3.org/2000/svg">
  <g transform="translate(0, 0) scale(0.7)">
    <path d="M30 13C30 5.8203 24.1797 0 17 0C9.8203 0 4 5.8203 4 13C4 22.3338 11.5799 28.053 17.25 34.5C21.6407 28.5029 30 20.9604 30 13Z" fill="#FFFFFF"/>
    <circle cx="17" cy="12.5" r="9.5" fill="#4A74F0"/>
    <path d="M21.0383 13.3951C21.0383 13.3951 22.7554 10.816 21.6008 9.80284C21.6008 9.80284 19.1731 6.73256 13.9328 8.60543C13.9328 8.60543 11.6828 9.4037 12.038 11.3687C12.038 11.3687 13.015 14.1319 13.6072 13.7942C13.6072 13.7942 13.9131 13.7635 13.7552 13.0164C13.7552 13.0164 13.5085 11.471 15.0875 11.5938C15.0875 11.5938 16.2816 11.952 15.8375 13.3337C15.8375 13.3337 15.571 13.9375 14.8703 14.3059C14.8703 14.3059 13.7552 15.0121 15.4625 15.5954C15.4625 15.5954 16.9033 16.711 19.3507 15.2372C19.3507 15.2372 19.8441 14.7153 19.2422 14.3162C19.2422 14.3162 17.4855 13.4872 18.4329 11.9316C18.4329 11.9316 19.1336 11.2979 19.9626 11.8604C19.9626 11.8604 20.3178 12.0544 20.2981 12.8936C20.2981 12.8936 20.229 13.8659 20.5547 13.7635C20.5547 13.7635 20.7521 13.7533 21.0383 13.3951Z" fill="#FFFFFF"/>
  </g>
</svg>
