<svg width="24" height="24" viewBox="0 0 24 24" fill="#FFFFFF" xmlns="http://www.w3.org/2000/svg">
  <g transform="translate(0.5, 0)">
    <path d="M4.31258 12C5.63576 12 6.70841 10.8807 6.70841 9.5C6.70841 8.11929 5.63576 7 4.31258 7C2.9894 7 1.91675 8.11929 1.91675 9.5C1.91675 10.8807 2.9894 12 4.31258 12Z" fill="#FFFFFF"/>
    <path d="M8.62508 8C9.94826 8 11.0209 6.88071 11.0209 5.5C11.0209 4.11929 9.94826 3 8.62508 3C7.3019 3 6.22925 4.11929 6.22925 5.5C6.22925 6.88071 7.3019 8 8.62508 8Z" fill="#FFFFFF"/>
    <path d="M14.3751 8C15.6983 8 16.7709 6.88071 16.7709 5.5C16.7709 4.11929 15.6983 3 14.3751 3C13.0519 3 11.9792 4.11929 11.9792 5.5C11.9792 6.88071 13.0519 8 14.3751 8Z" fill="#FFFFFF"/>
    <path d="M18.6876 12C20.0108 12 21.0834 10.8807 21.0834 9.5C21.0834 8.11929 20.0108 7 18.6876 7C17.3644 7 16.2917 8.11929 16.2917 9.5C16.2917 10.8807 17.3644 12 18.6876 12Z" fill="#FFFFFF"/>
    <path d="M16.6175 14.86C15.7838 13.84 15.0842 12.97 14.2409 11.95C13.8 11.41 13.2346 10.87 12.5638 10.63C12.4584 10.59 12.353 10.56 12.2475 10.54C12.008 10.5 11.7492 10.5 11.5 10.5C11.2509 10.5 10.9921 10.5 10.743 10.55C10.6375 10.57 10.5321 10.6 10.4267 10.64C9.75587 10.88 9.20004 11.42 8.74962 11.96C7.91587 12.98 7.21629 13.85 6.37295 14.87C5.11754 16.18 3.57462 17.63 3.86212 19.66C4.14004 20.68 4.83962 21.69 6.09504 21.98C6.79462 22.13 9.02753 21.54 11.4042 21.54H11.5767C13.9534 21.54 16.1863 22.12 16.8859 21.98C18.1413 21.69 18.8409 20.67 19.1188 19.66C19.4159 17.62 17.873 16.17 16.6175 14.86Z" fill="#FFFFFF"/>
  </g>
</svg>
