<svg width="42" height="42" viewBox="0 0 42 42" fill="none" xmlns="http://www.w3.org/2000/svg">
<g filter="url(#filter0_d_12271_5388)">
<rect x="4" width="34" height="34" rx="17" fill="#4A74F0"/>
<path d="M16.625 9.23438H25.375C25.777 9.23438 26.1621 9.39448 26.4463 9.67871C26.7305 9.96295 26.8906 10.348 26.8906 10.75V24.5C26.8907 24.659 26.8482 24.8151 26.7676 24.9521C26.6869 25.0892 26.5707 25.2022 26.4316 25.2793C26.2926 25.3563 26.1354 25.3948 25.9766 25.3906C25.8178 25.3864 25.663 25.34 25.5283 25.2559L21.0244 22.4434L20.999 22.4277L20.9746 22.4434L16.4717 25.2559C16.337 25.34 16.1822 25.3864 16.0234 25.3906C15.8646 25.3948 15.7074 25.3563 15.5684 25.2793C15.4293 25.2022 15.3131 25.0892 15.2324 24.9521C15.1518 24.8151 15.1093 24.659 15.1094 24.5V10.75C15.1094 10.348 15.2695 9.96295 15.5537 9.67871C15.8379 9.39448 16.223 9.23438 16.625 9.23438ZM16.8906 22.8936L16.9619 22.8486L20.5273 20.6191C20.6688 20.5308 20.8323 20.4844 20.999 20.4844C21.1659 20.4844 21.3301 20.5307 21.4717 20.6191L25.0381 22.8486L25.1094 22.8936V11.0156H16.8906V22.8936Z" fill="white" stroke="#475569" stroke-width="0.09375"/>
</g>
<defs>
<filter id="filter0_d_12271_5388" x="0" y="0" width="42" height="42" filterUnits="userSpaceOnUse" color-interpolation-filters="sRGB">
<feFlood flood-opacity="0" result="BackgroundImageFix"/>
<feColorMatrix in="SourceAlpha" type="matrix" values="0 0 0 0 0 0 0 0 0 0 0 0 0 0 0 0 0 0 127 0" result="hardAlpha"/>
<feOffset dy="4"/>
<feGaussianBlur stdDeviation="2"/>
<feComposite in2="hardAlpha" operator="out"/>
<feColorMatrix type="matrix" values="0 0 0 0 0 0 0 0 0 0 0 0 0 0 0 0 0 0 0.25 0"/>
<feBlend mode="normal" in2="BackgroundImageFix" result="effect1_dropShadow_12271_5388"/>
<feBlend mode="normal" in="SourceGraphic" in2="effect1_dropShadow_12271_5388" result="shape"/>
</filter>
</defs>
</svg>
