<svg width="42" height="42" viewBox="0 0 42 42" fill="none" xmlns="http://www.w3.org/2000/svg">
<g filter="url(#filter0_d_12271_5397)">
<circle cx="21" cy="17" r="17" fill="#4A74F0"/>
<path d="M11.9673 23.4376C12.2027 23.7643 12.5432 24.0064 12.9359 24.1262C14.0729 24.4526 15.2385 24.6769 16.4181 24.7964C17.9357 24.9635 19.4621 25.0452 20.9895 25.0413C22.5179 25.0453 24.0452 24.9636 25.5638 24.7964C26.7434 24.6769 27.9091 24.4526 29.0461 24.1262C29.4388 24.0064 29.7794 23.7643 30.0148 23.4376C30.2348 23.129 30.352 22.7627 30.3504 22.3879C30.3502 22.1417 30.2989 21.8981 30.1994 21.6715C30.0998 21.4449 29.9541 21.24 29.771 21.0689C29.1691 20.4801 28.7331 19.752 28.5048 18.9541C28.2935 18.2689 28.1868 17.5575 28.1882 16.8424C28.1882 16.5364 28.204 16.2946 28.2199 16.0957C28.2452 15.8295 28.2642 15.557 28.2642 15.2785C28.2659 14.9834 28.2425 14.6887 28.1945 14.3972C27.9184 12.7584 27.0503 11.2674 25.7444 10.1891C24.9329 9.5127 23.9758 9.01929 22.9427 8.74461C23.2315 8.35461 23.3865 7.88682 23.3859 7.40717C23.3859 6.79517 23.1344 6.20825 22.6867 5.7755C22.2391 5.34275 21.632 5.09961 20.9989 5.09961C20.3664 5.10042 19.7601 5.34396 19.3131 5.77662C18.8662 6.20928 18.6152 6.7957 18.6152 7.40717C18.6146 7.88682 18.7696 8.35461 19.0584 8.74461C18.0253 9.01929 17.0682 9.5127 16.2567 10.1891C14.9508 11.2674 14.0825 12.7584 13.8064 14.3972C13.7584 14.6887 13.7352 14.9834 13.7369 15.2785C13.7369 15.557 13.7559 15.8295 13.7812 16.0957C13.7812 16.2946 13.8128 16.5486 13.8128 16.8424C13.8177 17.5566 13.7165 18.2678 13.5121 18.9541C13.2792 19.7536 12.8376 20.4818 12.2299 21.0689C12.0468 21.24 11.9013 21.4449 11.8017 21.6715C11.7022 21.8981 11.6509 22.1417 11.6507 22.3879C11.6435 22.7607 11.754 23.1269 11.9673 23.4376ZM20.1981 8.17534C19.9916 7.96981 19.8778 7.69362 19.8815 7.40717C19.8783 7.12172 19.9921 6.84665 20.1981 6.64207C20.4099 6.44326 20.6943 6.33328 20.9895 6.33603C21.2858 6.33247 21.5714 6.44251 21.784 6.64207C21.9899 6.84665 22.1038 7.12172 22.1006 7.40717C22.1043 7.69362 21.9904 7.96981 21.784 8.17534C21.5714 8.3749 21.2858 8.48494 20.9895 8.48138C20.8417 8.48412 20.6948 8.45852 20.5573 8.40599C20.4198 8.35346 20.2944 8.27503 20.1885 8.17534L20.1981 8.17534Z" fill="white"/>
<path d="M22.2398 25.5615C22.1573 25.5517 22.0735 25.5577 21.9934 25.5791C21.9132 25.6005 21.8384 25.637 21.7728 25.6865C21.7073 25.7359 21.6524 25.7973 21.6114 25.8673C21.5704 25.9372 21.544 26.0143 21.5338 26.094C21.5084 26.2948 21.4082 26.4797 21.252 26.6143C21.0935 26.751 20.8884 26.8262 20.6759 26.8254C20.4661 26.8258 20.2634 26.7518 20.1062 26.6174C19.9493 26.4842 19.8479 26.3003 19.8212 26.1002C19.7991 25.9396 19.7122 25.7939 19.5792 25.6953C19.4463 25.5966 19.2783 25.5529 19.1121 25.5738C19.0296 25.584 18.9498 25.6098 18.8776 25.6498C18.8054 25.6897 18.7421 25.7431 18.6912 25.8067C18.6403 25.8704 18.6031 25.9432 18.5813 26.0208C18.5595 26.0985 18.5538 26.1795 18.5645 26.2593C18.6314 26.752 18.8811 27.2044 19.2672 27.5324C19.6553 27.8659 20.1567 28.05 20.6759 28.0496C21.1991 28.0491 21.7038 27.8629 22.0942 27.5263C22.4806 27.1942 22.7283 26.7371 22.7907 26.2409C22.8104 26.0803 22.7634 25.9187 22.6602 25.7914C22.557 25.664 22.4058 25.5814 22.2398 25.5615Z" fill="white"/>
</g>
<defs>
<filter id="filter0_d_12271_5397" x="0" y="0" width="42" height="42" filterUnits="userSpaceOnUse" color-interpolation-filters="sRGB">
<feFlood flood-opacity="0" result="BackgroundImageFix"/>
<feColorMatrix in="SourceAlpha" type="matrix" values="0 0 0 0 0 0 0 0 0 0 0 0 0 0 0 0 0 0 127 0" result="hardAlpha"/>
<feOffset dy="4"/>
<feGaussianBlur stdDeviation="2"/>
<feComposite in2="hardAlpha" operator="out"/>
<feColorMatrix type="matrix" values="0 0 0 0 0 0 0 0 0 0 0 0 0 0 0 0 0 0 0.25 0"/>
<feBlend mode="normal" in2="BackgroundImageFix" result="effect1_dropShadow_12271_5397"/>
<feBlend mode="normal" in="SourceGraphic" in2="effect1_dropShadow_12271_5397" result="shape"/>
</filter>
</defs>
</svg>
