<?xml version="1.0" encoding="UTF-8"?>
<svg id="Livello_1" data-name="Livello 1" xmlns="http://www.w3.org/2000/svg" viewBox="0 0 578.51803 261.13853">
  <defs>
    <style>
      .cls-1 {
        fill: #fff;
      }

      .cls-1, .cls-2 {
        stroke: #1d1d1b;
      }

      .cls-1, .cls-2, .cls-3 {
        stroke-miterlimit: 10;
        stroke-width: .5px;
      }

      .cls-4 {
        fill: #f5b132;
      }

      .cls-3 {
        fill: #1d1d1b;
        stroke: #fff;
      }
    </style>
  </defs>
  <path class="cls-2" d="M16.6432,258.17134l-6.00399-174.33489-10.37785,2.88915,1.85317-54.91276L91.95588,10.88786l1.85317,50.28875-50.99884,13.17934,1.18565,36.06946,38.24954-9.47933,1.85332,41.61822-38.84251,11.32926,4.22536,104.2778c-1.77922.38525-4.76987.9053-8.96959,1.56044-4.20091.65397-8.05531.98279-11.56365.98279-5.53521,0-9.63652-.84902-12.30513-2.54323Z"/>
  <path class="cls-4" d="M45.25621,248.69201l-3.55784-99.53754,38.76782-11.33029-1.85317-31.21399-37.95253,11.33029-1.4828-48.32464,50.40602-13.17919-1.26035-38.84339L6.33989,36.55309l-2.44615,41.61807,9.78444-1.85008,7.26433,176.06976c1.03789.15351,2.69306.36551,4.96684.63643,2.27245.26901,4.66969.40396,7.19038.40396,8.10348,0,12.15648-1.50284,12.15648-4.50837v-.23085Z"/>
  <polygon class="cls-2" points="132.35441 247.65177 98.9238 250.54209 97.14458 126.49492 86.17376 130.31013 89.80629 101.87111 127.46227 77.24627 132.35441 247.65177"/>
  <polygon class="cls-1" points="127.46227 241.98662 123.83032 85.80159 93.43809 105.68529 91.06649 121.75466 101.36995 113.20037 103.14916 244.8768 127.46227 241.98662"/>
  <path class="cls-2" d="M108.04131,7.18785c3.50849,0,6.53494.90766,9.08068,2.71737,2.54441,1.81177,4.63271,4.00762,6.26342,6.58901,1.63071,2.58345,2.74256,4.83822,3.33539,6.76314.59356,2.08167.88998,4.35501.88998,6.82075,0,3.77706-.51887,7.61202-1.55676,11.50354-1.03789,3.89227-2.29823,7.22559-3.78045,9.99923-1.4828,2.77512-2.89106,4.39316-4.22536,4.85576-2.57019.61802-4.49732.92489-5.78153.92489-3.26202,0-6.10417-.88467-8.52468-2.65844-2.42213-1.77288-4.34941-4.35383-5.78212-7.74578-1.43389-3.39093-2.32313-7.35965-2.6686-11.90824,0-6.54879,1.02537-12.67638,3.07669-18.38072,2.05-5.7033,5.27445-8.86234,9.67335-9.48051Z"/>
  <path class="cls-1" d="M109.22711,14.70307c-5.63362,2.6988-8.45013,9.40317-8.45013,20.11529.39482,5.01118,1.98871,8.71001,4.78136,11.09855,2.79073,2.38972,5.5959,3.58333,8.41301,3.58333,2.86543-.53846,5.00382-2.75405,6.41207-6.64661,1.40826-3.89138,2.11261-8.53573,2.11261-13.93113-.29641-3.23727-1.69333-6.49207-4.18838-9.76867-2.49609-3.27557-4.95476-4.91321-7.37527-4.91321-.24809,0-.81528.15557-1.70526.46245Z"/>
  <path class="cls-2" d="M133.2438,81.98652l36.39622,6.58901c-.88924,18.26654-1.33415,33.33485-1.33415,45.20273,0,5.93593.11093,11.0604.33339,15.37622.22246,4.3167.5803,8.24742,1.07487,11.79171.49324,3.54532,1.08665,6.58915,1.77922,9.13209,3.11293,11.02342,5.95449,16.53211,8.52468,16.53211,1.97545,0,4.0029-3.93057,6.07794-11.79186,1.38321-5.47156,2.6191-10.84722,3.70649-16.12712,1.08606-5.27769,1.92713-10.30758,2.51995-15.08687.59356-4.77709,1.03789-10.0178,1.3343-15.72213.29715-5.7033.44506-11.94522.44506-18.72899,0-6.78067-.0495-12.06057-.14791-15.83793l30.98447,2.89047c1.63071,15.95402,2.59465,25.56947,2.89106,28.84387.29656,3.27646.44447,7.38116.44447,12.3119,0,8.40181-1.30985,20.88682-3.92836,37.45679-1.28598,8.40211-4.12695,17.22629-8.52468,26.47374-4.39891,9.24862-8.64873,15.72346-12.75004,19.42229-6.4246,5.70316-13.91139,8.55532-22.45993,8.55532-5.93003,0-11.70022-1.31117-17.3088-3.93057-5.60916-2.61925-10.76089-6.51196-15.45503-11.6765-4.39891-4.77812-7.91977-11.02121-10.56333-18.72884-2.64415-7.70557-4.48421-16.10649-5.5221-25.20161-1.03789-9.09305-1.55676-19.19173-1.55676-30.2891,0-6.62805.13539-13.0245.40794-19.19128.27078-6.16472.62995-12.46541,1.07487-18.90209.44433-6.43343.96334-12.88985,1.55617-19.36336Z"/>
  <path class="cls-1" d="M137.46916,89.50042c-1.7303,17.65044-2.59465,33.29463-2.59465,46.93612,0,10.09853.54333,19.61602,1.63071,28.55556,1.0868,8.9416,2.89106,16.99441,5.41175,24.16239,2.5201,7.16695,5.9044,13.10288,10.15481,17.80292,8.35113,9.48051,17.66679,14.21959,27.94623,14.21959,7.75757,0,14.62708-2.8501,20.60661-8.55429,2.4706-2.38869,4.59647-4.98967,6.37509-7.80354,1.77922-2.81298,3.26143-5.68253,4.44782-8.61307,1.1858-2.92833,2.32195-6.16472,3.40934-9.71122,1.0868-3.54414,2.02628-6.51166,2.8171-8.90153,3.70649-11.63702,5.55966-23.46791,5.55966-35.49166,0-5.47127-.42046-12.38792-1.26035-20.7507-.84092-8.36174-1.26035-14.238-1.26035-17.63099l-22.45979-.92519c.39482,5.39658.59283,9.8276.59283,13.29587,0,8.9416-.59283,18.57444-1.77922,28.90147-1.1858,10.32909-2.61969,19.30679-4.29932,26.93619-1.63071,7.47692-3.65758,13.10391-6.07868,16.87905-2.42154,3.77706-4.9661,5.66515-7.6347,5.66515-2.76819,0-5.2883-1.96632-7.56075-5.89703-2.27378-3.93057-3.88004-9.17025-4.81834-15.72242-1.82872-13.25521-2.74256-27.43664-2.74256-42.54296,0-11.17487.49338-23.19714,1.48236-36.06946l-27.94564-4.74025Z"/>
  <path class="cls-2" d="M235.24237,23.25736L267.63569.48363l-.51887,77.68753,24.16518.92504v44.50839l-25.05515.46259c-.88924,10.94504-1.3343,21.23377-1.3343,30.86661,0,8.01686.29715,14.64505.88998,19.88473.49324,4.317,1.72913,7.63058,3.70649,9.94281,1.97545,2.31135,4.27352,3.46812,6.89321,3.46812,2.91552,0,5.4726-1.34815,7.67242-4.0471,2.19791-2.69645,3.29841-6.39631,3.29841-11.09738,0-.69418-.09959-2.0413-.29641-4.04695l24.23915-24.62381c1.03789,3.00568,2.33521,8.05472,3.89197,15.14448,1.55676,7.09182,2.33448,14.8376,2.33448,23.2375,0,10.09735-1.70467,19.22959-5.1146,27.39863-3.40949,8.17022-9.24111,14.37501-17.49383,18.61245-5.78153,2.92848-11.24278,4.39316-16.38184,4.39316-7.75888,0-14.59127-2.65962-20.49567-7.97649-5.90572-5.3182-10.81098-11.71436-14.71429-19.19143-1.82873-3.46827-3.2501-9.2084-4.26235-17.22512-1.01343-8.01465-1.66769-16.37639-1.96411-25.08743-.29641-8.7078-.44491-17.41678-.44491-26.1265v-13.06399l-21.86711,1.04039-5.48571-52.13882,27.64923,2.89003-1.70467-53.06372Z"/>
  <path class="cls-1" d="M240.28301,27.99747l.29641,56.76284-25.79591-2.77379,4.81834,37.80271,20.68116-1.84875c-.09959,5.70448-.1485,13.52525-.1485,23.46821,0,12.40987.30835,22.98705.92695,31.7339.61728,8.74802,1.7661,16.24262,3.44633,22.48571,5.53403,19.73122,16.06038,30.13544,31.57801,31.21385,3.75481,0,7.82033-.94345,12.19419-2.83272,4.37327-1.88809,8.43761-4.75764,12.19346-8.61307,3.75481-3.85205,6.8069-8.82316,9.15463-14.91259,2.34641-6.08737,3.52086-13.06399,3.52086-20.92498,0-8.24639-1.21143-16.80083-3.6318-25.66523l-18.82813,18.0348c0,5.62699-.71687,10.23127-2.15017,13.81577-1.4333,3.58348-3.26143,6.16678-5.48512,7.74475-2.22354,1.58107-4.59573,2.36998-7.11583,2.36998-2.37219,0-4.54739-.73116-6.52358-2.19599-3.21252-1.4635-5.42354-5.81866-6.63379-13.06369-1.21202-7.24327-1.81619-16.30022-1.81619-27.16822,0-4.39287.09841-10.55773.29641-18.4971.19682-7.93642.29641-13.29469.29641-16.06952h26.09231l-.59283-34.10402-24.758,1.04128.44433-74.91373-22.45995,17.10961Z"/>
  <path class="cls-2" d="M366.00112,92.3906l30.98461-21.73334.59283,64.62383c.39497,4.0088.59297,8.55532.59297,13.64149,0,4.47051-.09959,7.78512-.29641,9.94192l.88983,70.86796-33.35724,2.77482v-7.05263c-5.43621,3.46812-10.92191,5.2027-16.45594,5.2027-4.25041,0-8.24079-1.00327-11.97159-3.00553-3.73154-2.00359-6.95599-4.70107-9.6735-8.09317-4.39891-5.70316-7.83271-13.39016-10.30331-23.06307-2.4706-9.67203-3.70649-19.90329-3.70649-30.6938,0-18.57341,3.43453-33.56453,10.30404-44.97202,5.93003-9.71004,12.04496-17.06954,18.34595-22.08072,6.30055-5.00912,12.73693-7.51419,19.31003-7.51419,1.82754,0,3.21193.07734,4.15082.23085l.59342.92489Z"/>
  <path class="cls-1" d="M369.63307,95.28092v3.23742c-.79098-.15336-2.00123-.23174-3.63195-.23174-3.06461,0-6.15249.5778-9.26601,1.73458-3.11352,1.15575-6.33812,2.92936-9.6735,5.31805-3.33539,2.38972-6.61007,5.39525-9.822,9.01674-3.21252,3.62384-6.12803,7.66962-8.74655,12.13895-2.42169,4.08614-4.37327,8.42141-5.85608,13.00594-1.48221,4.58586-2.59465,9.36412-3.33553,14.33509-.74133,4.97067-1.11229,9.9624-1.11229,14.97137,0,9.78827,1.22337,18.86393,3.66937,27.22567,2.44615,8.36292,5.76901,14.77882,9.96992,19.24815,3.31049,3.62355,8.05472,5.43341,14.23226,5.43341,8.05472,0,15.91188-2.8501,23.57237-8.55459v14.68218l24.31369-2.77512-.66752-144.97083-23.64618,16.18472Z"/>
  <path class="cls-3" d="M365.40771,112.73792c-3.8544,4.00777-5.78153,9.78827-5.78153,17.34047,0,5.24292.74133,8.78588,2.22354,10.63596,1.03789,1.08046,2.22369,1.61922,3.55799,1.61922v24.62381c-1.28539.30894-2.29764.46259-3.03897.46259-3.8544,0-7.66049-1.96528-11.41515-5.89615-4.251-4.39287-6.37509-10.09617-6.37509-17.10961,0-3.39078.53036-6.83931,1.59374-10.34662,1.06175-3.50613,2.53204-6.72395,4.41025-9.65332,1.87777-2.92833,4.13829-5.47156,6.78244-7.63058,2.64356-2.1568,5.32468-3.50613,8.04279-4.04578Z"/>
  <polygon class="cls-2" points="417.89069 19.78516 462.89247 15.07865 474.87543 45.46317 485.39372 3.38018 514.57262 2.23892 549.05611 252.31084 495.8213 244.17871 486.12597 158.87311 475.60695 190.39908 461.42925 150.74134 456.85563 223.06632 405.17621 228.91555 417.89069 19.78516"/>
  <path class="cls-4" d="M462.89247,25.63439l-41.98336,3.56615-9.69624,191.58452,41.89283-4.70778,5.30513-86.4485c1.15781,3.51943,2.80427,8.51171,4.93938,14.97884,2.13365,6.46804,4.54199,13.57689,7.2261,21.32599,2.68211,7.75329,4.1157,11.6272,4.29912,11.6272.24287,0,2.51486-6.56239,6.8138-19.68644,4.29912-13.12441,6.54021-19.82896,6.72346-20.11364l11.15873,100.57039,43.53911,8.1305c-1.34233-9.70042-3.81174-27.57807-7.40934-53.63747-3.59832-26.05668-7.30263-53.0183-11.11292-80.88377-3.81174-27.86402-7.05904-51.83013-9.74187-71.89796-2.68338-20.0651-4.02444-30.71756-4.02444-31.95426l-23.23277,1.14127-12.71376,53.77999-11.98296-37.37502Z"/>
  <polygon class="cls-2" points="578.26136 257.97599 544.83074 260.86632 543.05153 136.81914 532.0807 140.63436 535.71309 112.19533 573.36921 87.57049 578.26136 257.97599"/>
  <polygon class="cls-1" points="573.36921 252.31084 569.73668 96.12581 539.34504 116.00952 536.97344 132.07889 547.27674 123.52459 549.05611 255.20102 573.36921 252.31084"/>
  <path class="cls-2" d="M553.94826,17.51207c3.50848,0,6.53493.90766,9.08067,2.71737,2.54441,1.81177,4.63213,4.00762,6.26283,6.58901,1.63071,2.58345,2.74256,4.83822,3.33539,6.76314.59415,2.08167.88998,4.35501.88998,6.82075,0,3.77706-.51888,7.61202-1.55677,11.50354-1.03789,3.89227-2.29764,7.22559-3.78045,9.99923-1.4828,2.77512-2.89047,4.39316-4.22477,4.85576-2.57019.61802-4.49732.92489-5.78153.92489-3.26202,0-6.10417-.88467-8.52468-2.65844-2.42228-1.77288-4.34941-4.35383-5.78212-7.74578-1.43389-3.39093-2.32328-7.35965-2.6686-11.90824,0-6.54879,1.02537-12.67638,3.07654-18.38072,2.05014-5.7033,5.27459-8.86234,9.67351-9.48051Z"/>
  <path class="cls-1" d="M555.13405,25.0273c-5.63362,2.6988-8.45013,9.40317-8.45013,20.11529.39482,5.01118,1.98856,8.71001,4.78121,11.09855,2.79088,2.38972,5.59606,3.58333,8.41316,3.58333,2.86543-.53846,5.00381-2.75405,6.41207-6.64661,1.40767-3.89138,2.11261-8.53573,2.11261-13.93113-.297-3.23727-1.69392-6.49207-4.18838-9.76867-2.49609-3.27557-4.95476-4.91321-7.37527-4.91321-.24808,0-.81528.15557-1.70526.46245Z"/>
</svg>