<svg width="77" height="78" viewBox="0 0 77 78" fill="none" xmlns="http://www.w3.org/2000/svg">
<g filter="url(#filter0_d_12543_6338)">
<path d="M47.4824 70C59.6327 70 69.4824 60.1503 69.4824 48L69.4824 22C69.4824 9.84972 59.6327 -2.30178e-05 47.4824 -2.31777e-05L2.99921 -2.3763e-05C1.89465 -2.37775e-05 0.999215 0.895408 0.999215 1.99998L0.999214 48C0.999214 60.1503 10.8489 70 22.9992 70L47.4824 70Z" fill="white" fill-opacity="0.56" shape-rendering="crispEdges"/>
</g>
<path d="M18.385 53.14C17.6944 53.14 17.0177 53.042 16.355 52.846C15.7017 52.6407 15.151 52.3607 14.703 52.006L15.487 50.592C15.8417 50.8813 16.271 51.1147 16.775 51.292C17.279 51.4693 17.8064 51.558 18.357 51.558C19.0104 51.558 19.519 51.4273 19.883 51.166C20.247 50.8953 20.429 50.5313 20.429 50.074C20.429 49.626 20.261 49.2713 19.925 49.01C19.589 48.7487 19.0477 48.618 18.301 48.618H17.405V47.372L20.205 44.04L20.443 44.726H15.179V43.2H21.857V44.418L19.057 47.75L18.105 47.19H18.651C19.855 47.19 20.7557 47.4607 21.353 48.002C21.9597 48.534 22.263 49.22 22.263 50.06C22.263 50.6107 22.123 51.1193 21.843 51.586C21.563 52.0527 21.1337 52.4307 20.555 52.72C19.9857 53 19.2624 53.14 18.385 53.14ZM27.5415 53.14C26.7668 53.14 26.0668 52.944 25.4415 52.552C24.8255 52.16 24.3401 51.5907 23.9855 50.844C23.6308 50.088 23.4535 49.1733 23.4535 48.1C23.4535 47.0267 23.6308 46.1167 23.9855 45.37C24.3401 44.614 24.8255 44.04 25.4415 43.648C26.0668 43.256 26.7668 43.06 27.5415 43.06C28.3255 43.06 29.0255 43.256 29.6415 43.648C30.2575 44.04 30.7428 44.614 31.0975 45.37C31.4615 46.1167 31.6435 47.0267 31.6435 48.1C31.6435 49.1733 31.4615 50.088 31.0975 50.844C30.7428 51.5907 30.2575 52.16 29.6415 52.552C29.0255 52.944 28.3255 53.14 27.5415 53.14ZM27.5415 51.558C27.9988 51.558 28.3955 51.4367 28.7315 51.194C29.0675 50.942 29.3288 50.5593 29.5155 50.046C29.7115 49.5327 29.8095 48.884 29.8095 48.1C29.8095 47.3067 29.7115 46.658 29.5155 46.154C29.3288 45.6407 29.0675 45.2627 28.7315 45.02C28.3955 44.768 27.9988 44.642 27.5415 44.642C27.1028 44.642 26.7108 44.768 26.3655 45.02C26.0295 45.2627 25.7635 45.6407 25.5675 46.154C25.3808 46.658 25.2875 47.3067 25.2875 48.1C25.2875 48.884 25.3808 49.5327 25.5675 50.046C25.7635 50.5593 26.0295 50.942 26.3655 51.194C26.7108 51.4367 27.1028 51.558 27.5415 51.558ZM35.1974 50.69L35.0994 48.534L40.2374 43.2H42.2814L38.0114 47.736L37.0034 48.842L35.1974 50.69ZM33.5734 53V43.2H35.3934V53H33.5734ZM40.4054 53L36.6534 48.534L37.8574 47.204L42.5334 53H40.4054ZM47.8448 53.14C47.0794 53.14 46.3748 53.0187 45.7308 52.776C45.0961 52.524 44.5408 52.174 44.0648 51.726C43.5888 51.2687 43.2201 50.732 42.9588 50.116C42.6974 49.5 42.5668 48.828 42.5668 48.1C42.5668 47.372 42.6974 46.7 42.9588 46.084C43.2201 45.468 43.5888 44.936 44.0648 44.488C44.5501 44.0307 45.1148 43.6807 45.7588 43.438C46.4028 43.186 47.1074 43.06 47.8728 43.06C48.7034 43.06 49.4501 43.1953 50.1128 43.466C50.7848 43.7367 51.3494 44.1333 51.8068 44.656L50.6588 45.776C50.2761 45.3933 49.8608 45.1133 49.4128 44.936C48.9741 44.7493 48.4888 44.656 47.9568 44.656C47.4434 44.656 46.9674 44.74 46.5288 44.908C46.0901 45.076 45.7121 45.314 45.3948 45.622C45.0774 45.93 44.8301 46.294 44.6528 46.714C44.4848 47.134 44.4008 47.596 44.4008 48.1C44.4008 48.5947 44.4848 49.052 44.6528 49.472C44.8301 49.892 45.0774 50.2607 45.3948 50.578C45.7121 50.886 46.0854 51.124 46.5148 51.292C46.9441 51.46 47.4201 51.544 47.9428 51.544C48.4281 51.544 48.8948 51.4693 49.3428 51.32C49.8001 51.1613 50.2341 50.9 50.6448 50.536L51.6808 51.894C51.1674 52.3047 50.5701 52.6173 49.8888 52.832C49.2168 53.0373 48.5354 53.14 47.8448 53.14ZM51.6808 51.894L49.9588 51.656V47.988H51.6808V51.894ZM54.6099 53.098C54.2926 53.098 54.0219 52.9907 53.7979 52.776C53.5739 52.552 53.4619 52.272 53.4619 51.936C53.4619 51.5813 53.5739 51.3013 53.7979 51.096C54.0219 50.8813 54.2926 50.774 54.6099 50.774C54.9273 50.774 55.1979 50.8813 55.4219 51.096C55.6459 51.3013 55.7579 51.5813 55.7579 51.936C55.7579 52.272 55.6459 52.552 55.4219 52.776C55.1979 52.9907 54.9273 53.098 54.6099 53.098Z" fill="white"/>
<path d="M17.6359 33V23.2H21.6679C22.5359 23.2 23.2779 23.34 23.8939 23.62C24.5192 23.9 24.9999 24.3013 25.3359 24.824C25.6719 25.3467 25.8399 25.9673 25.8399 26.686C25.8399 27.4047 25.6719 28.0253 25.3359 28.548C24.9999 29.0707 24.5192 29.472 23.8939 29.752C23.2779 30.032 22.5359 30.172 21.6679 30.172H18.6439L19.4559 29.318V33H17.6359ZM19.4559 29.514L18.6439 28.632H21.5839C22.3866 28.632 22.9886 28.464 23.3899 28.128C23.8006 27.7827 24.0059 27.302 24.0059 26.686C24.0059 26.0607 23.8006 25.58 23.3899 25.244C22.9886 24.908 22.3866 24.74 21.5839 24.74H18.6439L19.4559 23.844V29.514ZM27.6574 33V23.2H34.8114V24.726H29.4774V31.474H35.0074V33H27.6574ZM29.3374 28.772V27.274H34.2094V28.772H29.3374ZM40.0743 33.14C39.309 33.14 38.5763 33.0327 37.8763 32.818C37.1763 32.594 36.621 32.3093 36.2103 31.964L36.8403 30.55C37.2323 30.858 37.7176 31.1147 38.2963 31.32C38.875 31.5253 39.4676 31.628 40.0743 31.628C40.5876 31.628 41.003 31.572 41.3203 31.46C41.6376 31.348 41.871 31.1987 42.0203 31.012C42.1696 30.816 42.2443 30.5967 42.2443 30.354C42.2443 30.0553 42.137 29.8173 41.9223 29.64C41.7076 29.4533 41.4276 29.3087 41.0823 29.206C40.7463 29.094 40.3683 28.9913 39.9483 28.898C39.5376 28.8047 39.1223 28.6973 38.7023 28.576C38.2916 28.4453 37.9136 28.282 37.5683 28.086C37.2323 27.8807 36.957 27.61 36.7423 27.274C36.5276 26.938 36.4203 26.5087 36.4203 25.986C36.4203 25.454 36.5603 24.9687 36.8403 24.53C37.1296 24.082 37.5636 23.7273 38.1423 23.466C38.7303 23.1953 39.4723 23.06 40.3683 23.06C40.9563 23.06 41.5396 23.1347 42.1183 23.284C42.697 23.4333 43.201 23.648 43.6303 23.928L43.0563 25.342C42.6176 25.0807 42.165 24.8893 41.6983 24.768C41.2316 24.6373 40.7836 24.572 40.3543 24.572C39.8503 24.572 39.4396 24.6327 39.1223 24.754C38.8143 24.8753 38.5856 25.034 38.4363 25.23C38.2963 25.426 38.2263 25.65 38.2263 25.902C38.2263 26.2007 38.329 26.4433 38.5343 26.63C38.749 26.8073 39.0243 26.9473 39.3603 27.05C39.7056 27.1527 40.0883 27.2553 40.5083 27.358C40.9283 27.4513 41.3436 27.5587 41.7543 27.68C42.1743 27.8013 42.5523 27.96 42.8883 28.156C43.2336 28.352 43.509 28.618 43.7143 28.954C43.929 29.29 44.0363 29.7147 44.0363 30.228C44.0363 30.7507 43.8916 31.236 43.6023 31.684C43.3223 32.1227 42.8883 32.4773 42.3003 32.748C41.7123 33.0093 40.9703 33.14 40.0743 33.14ZM50.433 33.14C49.6676 33.14 48.963 33.014 48.319 32.762C47.675 32.51 47.115 32.16 46.639 31.712C46.163 31.2547 45.7943 30.7227 45.533 30.116C45.2716 29.5 45.141 28.828 45.141 28.1C45.141 27.372 45.2716 26.7047 45.533 26.098C45.7943 25.482 46.163 24.95 46.639 24.502C47.115 24.0447 47.675 23.69 48.319 23.438C48.963 23.186 49.663 23.06 50.419 23.06C51.1843 23.06 51.8843 23.186 52.519 23.438C53.163 23.69 53.723 24.0447 54.199 24.502C54.675 24.95 55.0436 25.482 55.305 26.098C55.5663 26.7047 55.697 27.372 55.697 28.1C55.697 28.828 55.5663 29.5 55.305 30.116C55.0436 30.732 54.675 31.264 54.199 31.712C53.723 32.16 53.163 32.51 52.519 32.762C51.8843 33.014 51.189 33.14 50.433 33.14ZM50.419 31.544C50.9136 31.544 51.371 31.46 51.791 31.292C52.211 31.124 52.575 30.886 52.883 30.578C53.191 30.2607 53.429 29.8967 53.597 29.486C53.7743 29.066 53.863 28.604 53.863 28.1C53.863 27.596 53.7743 27.1387 53.597 26.728C53.429 26.308 53.191 25.944 52.883 25.636C52.575 25.3187 52.211 25.076 51.791 24.908C51.371 24.74 50.9136 24.656 50.419 24.656C49.9243 24.656 49.467 24.74 49.047 24.908C48.6363 25.076 48.2723 25.3187 47.955 25.636C47.647 25.944 47.4043 26.308 47.227 26.728C47.059 27.1387 46.975 27.596 46.975 28.1C46.975 28.5947 47.059 29.052 47.227 29.472C47.4043 29.892 47.647 30.2607 47.955 30.578C48.263 30.886 48.627 31.124 49.047 31.292C49.467 31.46 49.9243 31.544 50.419 31.544Z" fill="black"/>
<defs>
<filter id="filter0_d_12543_6338" x="0" y="0" width="76.4824" height="78" filterUnits="userSpaceOnUse" color-interpolation-filters="sRGB">
<feFlood flood-opacity="0" result="BackgroundImageFix"/>
<feColorMatrix in="SourceAlpha" type="matrix" values="0 0 0 0 0 0 0 0 0 0 0 0 0 0 0 0 0 0 127 0" result="hardAlpha"/>
<feOffset dx="3" dy="4"/>
<feGaussianBlur stdDeviation="2"/>
<feComposite in2="hardAlpha" operator="out"/>
<feColorMatrix type="matrix" values="0 0 0 0 0 0 0 0 0 0 0 0 0 0 0 0 0 0 0.3 0"/>
<feBlend mode="normal" in2="BackgroundImageFix" result="effect1_dropShadow_12543_6338"/>
<feBlend mode="normal" in="SourceGraphic" in2="effect1_dropShadow_12543_6338" result="shape"/>
</filter>
</defs>
</svg>
