<svg width="77" height="78" viewBox="0 0 77 78" fill="none" xmlns="http://www.w3.org/2000/svg">
<g filter="url(#filter0_d_12543_6330)">
<path d="M47.4824 70C59.6327 70 69.4824 60.1503 69.4824 48L69.4824 22C69.4824 9.84972 59.6327 -2.30178e-05 47.4824 -2.31777e-05L2.99921 -2.3763e-05C1.89465 -2.37775e-05 0.999215 0.895408 0.999215 1.99998L0.999214 48C0.999214 60.1503 10.8489 70 22.9992 70L47.4824 70Z" fill="white" fill-opacity="0.56" shape-rendering="crispEdges"/>
</g>
<path d="M34.7063 53.14C34.2116 53.14 33.7403 53.0887 33.2923 52.986C32.8443 52.8833 32.4569 52.7247 32.1303 52.51L32.8023 51.138C33.0729 51.3153 33.3669 51.4413 33.6843 51.516C34.0016 51.5813 34.3283 51.614 34.6643 51.614C35.5883 51.614 36.3209 51.3293 36.8623 50.76C37.4036 50.1907 37.6743 49.3507 37.6743 48.24C37.6743 48.0627 37.6696 47.8573 37.6603 47.624C37.6509 47.3813 37.6183 47.1387 37.5623 46.896L38.1223 47.512C37.9636 47.8947 37.7349 48.2167 37.4363 48.478C37.1376 48.73 36.7876 48.9213 36.3863 49.052C35.9849 49.1827 35.5416 49.248 35.0563 49.248C34.4216 49.248 33.8476 49.1267 33.3343 48.884C32.8303 48.632 32.4289 48.282 32.1303 47.834C31.8316 47.3767 31.6823 46.8447 31.6823 46.238C31.6823 45.5847 31.8409 45.0247 32.1583 44.558C32.4756 44.082 32.9049 43.7133 33.4463 43.452C33.9969 43.1907 34.6036 43.06 35.2663 43.06C36.1623 43.06 36.9229 43.2513 37.5483 43.634C38.1829 44.0073 38.6683 44.5533 39.0043 45.272C39.3403 45.9907 39.5083 46.8773 39.5083 47.932C39.5083 49.052 39.3029 49.9993 38.8923 50.774C38.4909 51.5487 37.9309 52.1367 37.2123 52.538C36.4936 52.9393 35.6583 53.14 34.7063 53.14ZM35.4063 47.82C35.7983 47.82 36.1436 47.75 36.4423 47.61C36.7409 47.4607 36.9743 47.26 37.1423 47.008C37.3103 46.7467 37.3943 46.4573 37.3943 46.14C37.3943 45.832 37.3149 45.5567 37.1563 45.314C36.9976 45.062 36.7689 44.8613 36.4703 44.712C36.1716 44.5627 35.8029 44.488 35.3643 44.488C34.9909 44.488 34.6596 44.558 34.3703 44.698C34.0809 44.8287 33.8523 45.02 33.6843 45.272C33.5256 45.5147 33.4463 45.8087 33.4463 46.154C33.4463 46.6673 33.6236 47.0733 33.9783 47.372C34.3329 47.6707 34.8089 47.82 35.4063 47.82Z" fill="white"/>
<path d="M17.663 33L22.073 23.2H23.865L28.289 33H26.385L22.591 24.166H23.319L19.539 33H17.663ZM19.693 30.732L20.183 29.304H25.475L25.965 30.732H19.693ZM29.5353 33V23.2H31.0333L37.1793 30.746H36.4373V23.2H38.2433V33H36.7453L30.5993 25.454H31.3413V33H29.5353ZM40.8693 33V23.2H42.3673L48.5133 30.746H47.7713V23.2H49.5773V33H48.0793L41.9333 25.454H42.6753V33H40.8693ZM52.2033 33V23.2H54.0233V33H52.2033Z" fill="black"/>
<defs>
<filter id="filter0_d_12543_6330" x="0" y="0" width="76.4824" height="78" filterUnits="userSpaceOnUse" color-interpolation-filters="sRGB">
<feFlood flood-opacity="0" result="BackgroundImageFix"/>
<feColorMatrix in="SourceAlpha" type="matrix" values="0 0 0 0 0 0 0 0 0 0 0 0 0 0 0 0 0 0 127 0" result="hardAlpha"/>
<feOffset dx="3" dy="4"/>
<feGaussianBlur stdDeviation="2"/>
<feComposite in2="hardAlpha" operator="out"/>
<feColorMatrix type="matrix" values="0 0 0 0 0 0 0 0 0 0 0 0 0 0 0 0 0 0 0.3 0"/>
<feBlend mode="normal" in2="BackgroundImageFix" result="effect1_dropShadow_12543_6330"/>
<feBlend mode="normal" in="SourceGraphic" in2="effect1_dropShadow_12543_6330" result="shape"/>
</filter>
</defs>
</svg>
