<svg width="77" height="78" viewBox="0 0 77 78" fill="none" xmlns="http://www.w3.org/2000/svg">
<g filter="url(#filter0_d_12543_6334)">
<path d="M47.4824 70C59.6327 70 69.4824 60.1503 69.4824 48L69.4824 22C69.4824 9.84972 59.6327 -2.30178e-05 47.4824 -2.31777e-05L2.99921 -2.3763e-05C1.89465 -2.37775e-05 0.999215 0.895408 0.999215 1.99998L0.999214 48C0.999214 60.1503 10.8489 70 22.9992 70L47.4824 70Z" fill="white" fill-opacity="0.56" shape-rendering="crispEdges"/>
</g>
<path d="M31.383 53.14C30.4963 53.14 29.7356 52.9533 29.101 52.58C28.4663 52.1973 27.981 51.6467 27.645 50.928C27.309 50.2093 27.141 49.3227 27.141 48.268C27.141 47.148 27.3416 46.2007 27.743 45.426C28.1536 44.6513 28.7183 44.0633 29.437 43.662C30.165 43.2607 31.0003 43.06 31.943 43.06C32.4376 43.06 32.909 43.1113 33.357 43.214C33.8143 43.3167 34.2016 43.4753 34.519 43.69L33.847 45.062C33.5763 44.8847 33.2823 44.7633 32.965 44.698C32.657 44.6233 32.3303 44.586 31.985 44.586C31.061 44.586 30.3283 44.8707 29.787 45.44C29.2456 46.0093 28.975 46.8493 28.975 47.96C28.975 48.1373 28.9796 48.3473 28.989 48.59C28.9983 48.8233 29.031 49.0613 29.087 49.304L28.527 48.688C28.695 48.3053 28.9236 47.988 29.213 47.736C29.5116 47.4747 29.8616 47.2787 30.263 47.148C30.6736 47.0173 31.117 46.952 31.593 46.952C32.237 46.952 32.811 47.078 33.315 47.33C33.819 47.5727 34.2203 47.9227 34.519 48.38C34.8176 48.828 34.967 49.3553 34.967 49.962C34.967 50.606 34.8083 51.166 34.491 51.642C34.1736 52.118 33.7443 52.4867 33.203 52.748C32.6616 53.0093 32.055 53.14 31.383 53.14ZM31.285 51.712C31.6583 51.712 31.9896 51.6467 32.279 51.516C32.5683 51.376 32.7923 51.18 32.951 50.928C33.119 50.676 33.203 50.382 33.203 50.046C33.203 49.5327 33.0256 49.1267 32.671 48.828C32.3163 48.5293 31.8403 48.38 31.243 48.38C30.851 48.38 30.5056 48.4547 30.207 48.604C29.9176 48.744 29.6843 48.94 29.507 49.192C29.339 49.444 29.255 49.7333 29.255 50.06C29.255 50.3587 29.3343 50.634 29.493 50.886C29.6516 51.138 29.8803 51.3387 30.179 51.488C30.487 51.6373 30.8556 51.712 31.285 51.712ZM40.0063 53.14C39.2316 53.14 38.5316 52.944 37.9063 52.552C37.2903 52.16 36.805 51.5907 36.4503 50.844C36.0956 50.088 35.9183 49.1733 35.9183 48.1C35.9183 47.0267 36.0956 46.1167 36.4503 45.37C36.805 44.614 37.2903 44.04 37.9063 43.648C38.5316 43.256 39.2316 43.06 40.0063 43.06C40.7903 43.06 41.4903 43.256 42.1063 43.648C42.7223 44.04 43.2076 44.614 43.5623 45.37C43.9263 46.1167 44.1083 47.0267 44.1083 48.1C44.1083 49.1733 43.9263 50.088 43.5623 50.844C43.2076 51.5907 42.7223 52.16 42.1063 52.552C41.4903 52.944 40.7903 53.14 40.0063 53.14ZM40.0063 51.558C40.4636 51.558 40.8603 51.4367 41.1963 51.194C41.5323 50.942 41.7936 50.5593 41.9803 50.046C42.1763 49.5327 42.2743 48.884 42.2743 48.1C42.2743 47.3067 42.1763 46.658 41.9803 46.154C41.7936 45.6407 41.5323 45.2627 41.1963 45.02C40.8603 44.768 40.4636 44.642 40.0063 44.642C39.5676 44.642 39.1756 44.768 38.8303 45.02C38.4943 45.2627 38.2283 45.6407 38.0323 46.154C37.8456 46.658 37.7523 47.3067 37.7523 48.1C37.7523 48.884 37.8456 49.5327 38.0323 50.046C38.2283 50.5593 38.4943 50.942 38.8303 51.194C39.1756 51.4367 39.5676 51.558 40.0063 51.558Z" fill="white"/>
<path d="M23.841 19.9995V10.1995H30.995V11.7255H25.661V18.4735H31.191V19.9995H23.841ZM25.521 15.7715V14.2735H30.393V15.7715H25.521ZM35.2079 19.9995V11.7395H31.9599V10.1995H40.2759V11.7395H37.0279V19.9995H35.2079ZM39.7636 19.9995L44.1736 10.1995H45.9656L50.3896 19.9995H48.4856L44.6916 11.1655H45.4196L41.6396 19.9995H39.7636ZM41.7936 17.7315L42.2836 16.3035H47.5756L48.0656 17.7315H41.7936ZM23.8273 36.9995V27.1995H27.8593C28.7273 27.1995 29.4693 27.3395 30.0853 27.6195C30.7106 27.8995 31.1913 28.3008 31.5273 28.8235C31.8633 29.3462 32.0313 29.9668 32.0313 30.6855C32.0313 31.4042 31.8633 32.0248 31.5273 32.5475C31.1913 33.0702 30.7106 33.4715 30.0853 33.7515C29.4693 34.0315 28.7273 34.1715 27.8593 34.1715H24.8353L25.6473 33.3175V36.9995H23.8273ZM25.6473 33.5135L24.8353 32.6315H27.7753C28.578 32.6315 29.18 32.4635 29.5813 32.1275C29.992 31.7822 30.1973 31.3015 30.1973 30.6855C30.1973 30.0602 29.992 29.5795 29.5813 29.2435C29.18 28.9075 28.578 28.7395 27.7753 28.7395H24.8353L25.6473 27.8435V33.5135ZM33.8488 36.9995V27.1995H41.0028V28.7255H35.6688V35.4735H41.1988V36.9995H33.8488ZM35.5288 32.7715V31.2735H40.4008V32.7715H35.5288ZM45.2157 36.9995V28.7395H41.9677V27.1995H50.2837V28.7395H47.0357V36.9995H45.2157Z" fill="black"/>
<defs>
<filter id="filter0_d_12543_6334" x="0" y="0" width="76.4824" height="78" filterUnits="userSpaceOnUse" color-interpolation-filters="sRGB">
<feFlood flood-opacity="0" result="BackgroundImageFix"/>
<feColorMatrix in="SourceAlpha" type="matrix" values="0 0 0 0 0 0 0 0 0 0 0 0 0 0 0 0 0 0 127 0" result="hardAlpha"/>
<feOffset dx="3" dy="4"/>
<feGaussianBlur stdDeviation="2"/>
<feComposite in2="hardAlpha" operator="out"/>
<feColorMatrix type="matrix" values="0 0 0 0 0 0 0 0 0 0 0 0 0 0 0 0 0 0 0.3 0"/>
<feBlend mode="normal" in2="BackgroundImageFix" result="effect1_dropShadow_12543_6334"/>
<feBlend mode="normal" in="SourceGraphic" in2="effect1_dropShadow_12543_6334" result="shape"/>
</filter>
</defs>
</svg>
