<svg width="77" height="78" viewBox="0 0 77 78" fill="none" xmlns="http://www.w3.org/2000/svg">
<g filter="url(#filter0_d_12543_6326)">
<path d="M47.4824 70C59.6327 70 69.4824 60.1503 69.4824 48L69.4824 22C69.4824 9.84972 59.6327 -2.30178e-05 47.4824 -2.31777e-05L2.99921 -2.3763e-05C1.89465 -2.37775e-05 0.999215 0.895408 0.999215 1.99998L0.999214 48C0.999214 60.1503 10.8489 70 22.9992 70L47.4824 70Z" fill="white" fill-opacity="0.56" shape-rendering="crispEdges"/>
</g>
<path d="M31.2617 54V44.2H32.7597L37.0437 51.354H36.2597L40.4737 44.2H41.9717L41.9857 54H40.2637L40.2497 46.902H40.6137L37.0297 52.88H36.2177L32.5777 46.902H32.9977V54H31.2617Z" fill="white"/>
<path d="M27.1212 33.14C26.3558 33.14 25.6232 33.0327 24.9232 32.818C24.2232 32.594 23.6678 32.3093 23.2572 31.964L23.8872 30.55C24.2792 30.858 24.7645 31.1147 25.3432 31.32C25.9218 31.5253 26.5145 31.628 27.1212 31.628C27.6345 31.628 28.0498 31.572 28.3672 31.46C28.6845 31.348 28.9178 31.1987 29.0672 31.012C29.2165 30.816 29.2912 30.5967 29.2912 30.354C29.2912 30.0553 29.1838 29.8173 28.9692 29.64C28.7545 29.4533 28.4745 29.3087 28.1292 29.206C27.7932 29.094 27.4152 28.9913 26.9952 28.898C26.5845 28.8047 26.1692 28.6973 25.7492 28.576C25.3385 28.4453 24.9605 28.282 24.6152 28.086C24.2792 27.8807 24.0038 27.61 23.7892 27.274C23.5745 26.938 23.4672 26.5087 23.4672 25.986C23.4672 25.454 23.6072 24.9687 23.8872 24.53C24.1765 24.082 24.6105 23.7273 25.1892 23.466C25.7772 23.1953 26.5192 23.06 27.4152 23.06C28.0032 23.06 28.5865 23.1347 29.1652 23.284C29.7438 23.4333 30.2478 23.648 30.6772 23.928L30.1032 25.342C29.6645 25.0807 29.2118 24.8893 28.7452 24.768C28.2785 24.6373 27.8305 24.572 27.4012 24.572C26.8972 24.572 26.4865 24.6327 26.1692 24.754C25.8612 24.8753 25.6325 25.034 25.4832 25.23C25.3432 25.426 25.2732 25.65 25.2732 25.902C25.2732 26.2007 25.3758 26.4433 25.5812 26.63C25.7958 26.8073 26.0712 26.9473 26.4072 27.05C26.7525 27.1527 27.1352 27.2553 27.5552 27.358C27.9752 27.4513 28.3905 27.5587 28.8012 27.68C29.2212 27.8013 29.5992 27.96 29.9352 28.156C30.2805 28.352 30.5558 28.618 30.7612 28.954C30.9758 29.29 31.0832 29.7147 31.0832 30.228C31.0832 30.7507 30.9385 31.236 30.6492 31.684C30.3692 32.1227 29.9352 32.4773 29.3472 32.748C28.7592 33.0093 28.0172 33.14 27.1212 33.14ZM32.8878 33V23.2H40.0418V24.726H34.7078V31.474H40.2378V33H32.8878ZM34.5678 28.772V27.274H39.4398V28.772H34.5678ZM40.981 33L45.111 27.316V28.688L41.177 23.2H43.235L46.161 27.26L45.321 27.274L48.219 23.2H50.193L46.287 28.59V27.274L50.4451 33H48.345L45.265 28.688H46.091L43.053 33H40.981Z" fill="black"/>
<defs>
<filter id="filter0_d_12543_6326" x="0" y="0" width="76.4824" height="78" filterUnits="userSpaceOnUse" color-interpolation-filters="sRGB">
<feFlood flood-opacity="0" result="BackgroundImageFix"/>
<feColorMatrix in="SourceAlpha" type="matrix" values="0 0 0 0 0 0 0 0 0 0 0 0 0 0 0 0 0 0 127 0" result="hardAlpha"/>
<feOffset dx="3" dy="4"/>
<feGaussianBlur stdDeviation="2"/>
<feComposite in2="hardAlpha" operator="out"/>
<feColorMatrix type="matrix" values="0 0 0 0 0 0 0 0 0 0 0 0 0 0 0 0 0 0 0.3 0"/>
<feBlend mode="normal" in2="BackgroundImageFix" result="effect1_dropShadow_12543_6326"/>
<feBlend mode="normal" in="SourceGraphic" in2="effect1_dropShadow_12543_6326" result="shape"/>
</filter>
</defs>
</svg>
