<svg width="77" height="78" viewBox="0 0 77 78" fill="none" xmlns="http://www.w3.org/2000/svg">
<g filter="url(#filter0_d_12543_6342)">
<path d="M47.4824 70C59.6327 70 69.4824 60.1503 69.4824 48L69.4824 22C69.4824 9.84972 59.6327 -2.30178e-05 47.4824 -2.31777e-05L2.99921 -2.3763e-05C1.89465 -2.37775e-05 0.999215 0.895408 0.999215 1.99998L0.999214 48C0.999214 60.1503 10.8489 70 22.9992 70L47.4824 70Z" fill="white" fill-opacity="0.56" shape-rendering="crispEdges"/>
</g>
<path d="M13.8808 53L18.2908 43.2H20.0828L24.5068 53H22.6028L18.8088 44.166H19.5368L15.7568 53H13.8808ZM15.9108 50.732L16.4008 49.304H21.6928L22.1828 50.732H15.9108ZM25.5851 53V45.524H27.2511V47.512L26.9571 46.924C27.2091 46.4387 27.5731 46.07 28.0491 45.818C28.5344 45.566 29.0851 45.44 29.7011 45.44C30.4011 45.44 31.0077 45.6127 31.5211 45.958C32.0437 46.3033 32.3891 46.826 32.5571 47.526L31.8711 47.288C32.1137 46.728 32.5151 46.28 33.0751 45.944C33.6351 45.608 34.2837 45.44 35.0211 45.44C35.6184 45.44 36.1457 45.5567 36.6031 45.79C37.0697 46.0233 37.4337 46.3827 37.6951 46.868C37.9564 47.344 38.0871 47.96 38.0871 48.716V53H36.3371V48.94C36.3371 48.2773 36.1924 47.7827 35.9031 47.456C35.6137 47.1293 35.1984 46.966 34.6571 46.966C34.2744 46.966 33.9337 47.05 33.6351 47.218C33.3457 47.386 33.1171 47.6333 32.9491 47.96C32.7904 48.2867 32.7111 48.702 32.7111 49.206V53H30.9611V48.94C30.9611 48.2773 30.8164 47.7827 30.5271 47.456C30.2377 47.1293 29.8224 46.966 29.2811 46.966C28.8984 46.966 28.5577 47.05 28.2591 47.218C27.9697 47.386 27.7411 47.6333 27.5731 47.96C27.4144 48.2867 27.3351 48.702 27.3351 49.206V53H25.5851ZM43.851 53.098C43.0204 53.098 42.2924 52.9347 41.667 52.608C41.051 52.272 40.5704 51.8147 40.225 51.236C39.889 50.6573 39.721 49.9993 39.721 49.262C39.721 48.5153 39.8844 47.8573 40.211 47.288C40.547 46.7093 41.0044 46.2567 41.583 45.93C42.171 45.6033 42.8384 45.44 43.585 45.44C44.313 45.44 44.9617 45.5987 45.531 45.916C46.1004 46.2333 46.5484 46.6813 46.875 47.26C47.2017 47.8387 47.365 48.52 47.365 49.304C47.365 49.3787 47.3604 49.4627 47.351 49.556C47.351 49.6493 47.3464 49.738 47.337 49.822H41.107V48.66H46.413L45.727 49.024C45.7364 48.5947 45.6477 48.2167 45.461 47.89C45.2744 47.5633 45.0177 47.3067 44.691 47.12C44.3737 46.9333 44.005 46.84 43.585 46.84C43.1557 46.84 42.7777 46.9333 42.451 47.12C42.1337 47.3067 41.8817 47.568 41.695 47.904C41.5177 48.2307 41.429 48.618 41.429 49.066V49.346C41.429 49.794 41.5317 50.1907 41.737 50.536C41.9424 50.8813 42.2317 51.1473 42.605 51.334C42.9784 51.5207 43.4077 51.614 43.893 51.614C44.313 51.614 44.691 51.5487 45.027 51.418C45.363 51.2873 45.6617 51.082 45.923 50.802L46.861 51.88C46.525 52.272 46.1004 52.5753 45.587 52.79C45.083 52.9953 44.5044 53.098 43.851 53.098ZM49.046 53V45.524H50.712V47.582L50.516 46.98C50.74 46.476 51.09 46.0933 51.566 45.832C52.0514 45.5707 52.6534 45.44 53.372 45.44V47.106C53.2974 47.0873 53.2274 47.078 53.162 47.078C53.0967 47.0687 53.0314 47.064 52.966 47.064C52.3034 47.064 51.776 47.26 51.384 47.652C50.992 48.0347 50.796 48.6087 50.796 49.374V53H49.046ZM55.3482 53.098C55.0309 53.098 54.7602 52.9907 54.5362 52.776C54.3122 52.552 54.2002 52.272 54.2002 51.936C54.2002 51.5813 54.3122 51.3013 54.5362 51.096C54.7602 50.8813 55.0309 50.774 55.3482 50.774C55.6655 50.774 55.9362 50.8813 56.1602 51.096C56.3842 51.3013 56.4962 51.5813 56.4962 51.936C56.4962 52.272 56.3842 52.552 56.1602 52.776C55.9362 52.9907 55.6655 53.098 55.3482 53.098Z" fill="white"/>
<path d="M12.4049 33V23.2H16.4229C17.7295 23.2 18.7515 23.508 19.4889 24.124C20.2355 24.74 20.6089 25.594 20.6089 26.686C20.6089 27.4047 20.4409 28.0253 20.1049 28.548C19.7689 29.0613 19.2882 29.458 18.6629 29.738C18.0469 30.0087 17.3049 30.144 16.4369 30.144H13.4129L14.2249 29.318V33H12.4049ZM18.8169 33L16.3389 29.444H18.2849L20.7769 33H18.8169ZM14.2249 29.514L13.4129 28.646H16.3529C17.1555 28.646 17.7575 28.4733 18.1589 28.128C18.5695 27.7827 18.7749 27.302 18.7749 26.686C18.7749 26.0607 18.5695 25.58 18.1589 25.244C17.7575 24.908 17.1555 24.74 16.3529 24.74H13.4129L14.2249 23.844V29.514ZM21.2591 33L25.6691 23.2H27.4611L31.8851 33H29.9811L26.1871 24.166H26.9151L23.1351 33H21.2591ZM23.2891 30.732L23.7791 29.304H29.0711L29.5611 30.732H23.2891ZM32.3894 33V31.782L38.7174 24.054L38.9274 24.74H32.4874V23.2H40.5654V24.418L34.2374 32.146L34.0134 31.46H40.7474V33H32.3894ZM41.6726 33V31.782L48.0006 24.054L48.2106 24.74H41.7706V23.2H49.8486V24.418L43.5206 32.146L43.2966 31.46H50.0306V33H41.6726ZM50.3118 33L54.7218 23.2H56.5138L60.9378 33H59.0338L55.2398 24.166H55.9678L52.1878 33H50.3118ZM52.3418 30.732L52.8318 29.304H58.1238L58.6138 30.732H52.3418Z" fill="black"/>
<defs>
<filter id="filter0_d_12543_6342" x="0" y="0" width="76.4824" height="78" filterUnits="userSpaceOnUse" color-interpolation-filters="sRGB">
<feFlood flood-opacity="0" result="BackgroundImageFix"/>
<feColorMatrix in="SourceAlpha" type="matrix" values="0 0 0 0 0 0 0 0 0 0 0 0 0 0 0 0 0 0 127 0" result="hardAlpha"/>
<feOffset dx="3" dy="4"/>
<feGaussianBlur stdDeviation="2"/>
<feComposite in2="hardAlpha" operator="out"/>
<feColorMatrix type="matrix" values="0 0 0 0 0 0 0 0 0 0 0 0 0 0 0 0 0 0 0.3 0"/>
<feBlend mode="normal" in2="BackgroundImageFix" result="effect1_dropShadow_12543_6342"/>
<feBlend mode="normal" in="SourceGraphic" in2="effect1_dropShadow_12543_6342" result="shape"/>
</filter>
</defs>
</svg>
