<svg width="84" height="101" viewBox="0 0 84 101" fill="none" xmlns="http://www.w3.org/2000/svg">
<g filter="url(#filter0_d_12543_6376)">
<rect x="1" width="76" height="93" rx="22" fill="url(#paint0_linear_12543_6376)" shape-rendering="crispEdges"/>
<rect x="1.5" y="0.5" width="75" height="92" rx="21.5" stroke="white" shape-rendering="crispEdges"/>
</g>
<path d="M13.7362 56.5503V48.1503H17.3722C18.1242 48.1503 18.7722 48.2743 19.3162 48.5223C19.8602 48.7623 20.2802 49.1103 20.5762 49.5663C20.8722 50.0223 21.0202 50.5663 21.0202 51.1983C21.0202 51.8223 20.8722 52.3623 20.5762 52.8183C20.2802 53.2663 19.8602 53.6103 19.3162 53.8503C18.7722 54.0903 18.1242 54.2103 17.3722 54.2103H14.8162L15.6802 53.3583V56.5503H13.7362ZM19.0762 56.5503L16.9762 53.5023H19.0522L21.1762 56.5503H19.0762ZM15.6802 53.5743L14.8162 52.6623H17.2642C17.8642 52.6623 18.3122 52.5343 18.6082 52.2783C18.9042 52.0143 19.0522 51.6543 19.0522 51.1983C19.0522 50.7343 18.9042 50.3743 18.6082 50.1183C18.3122 49.8623 17.8642 49.7343 17.2642 49.7343H14.8162L15.6802 48.8103V53.5743ZM26.2925 56.6943C25.1005 56.6943 24.1685 56.3623 23.4965 55.6983C22.8245 55.0343 22.4885 54.0863 22.4885 52.8543V48.1503H24.4325V52.7823C24.4325 53.5823 24.5965 54.1583 24.9245 54.5103C25.2525 54.8623 25.7125 55.0383 26.3045 55.0383C26.8965 55.0383 27.3565 54.8623 27.6845 54.5103C28.0125 54.1583 28.1765 53.5823 28.1765 52.7823V48.1503H30.0965V52.8543C30.0965 54.0863 29.7605 55.0343 29.0885 55.6983C28.4165 56.3623 27.4845 56.6943 26.2925 56.6943ZM32.0175 56.5503V48.1503H33.9615V54.9663H38.1735V56.5503H32.0175ZM39.2597 56.5503V48.1503H41.2037V54.9663H45.4157V56.5503H39.2597ZM46.5019 56.5503V48.1503H48.4459V56.5503H46.5019ZM50.4394 56.5503V48.1503H52.0474L57.0034 54.1983H56.2234V48.1503H58.1434V56.5503H56.5474L51.5794 50.5023H52.3594V56.5503H50.4394ZM64.2108 56.6943C63.5468 56.6943 62.9308 56.5863 62.3628 56.3703C61.8028 56.1543 61.3148 55.8503 60.8988 55.4583C60.4908 55.0663 60.1708 54.6063 59.9388 54.0783C59.7148 53.5503 59.6028 52.9743 59.6028 52.3503C59.6028 51.7263 59.7148 51.1503 59.9388 50.6223C60.1708 50.0943 60.4948 49.6343 60.9108 49.2423C61.3268 48.8503 61.8148 48.5463 62.3748 48.3303C62.9348 48.1143 63.5428 48.0063 64.1988 48.0063C64.8628 48.0063 65.4708 48.1143 66.0228 48.3303C66.5828 48.5463 67.0668 48.8503 67.4748 49.2423C67.8908 49.6343 68.2148 50.0943 68.4468 50.6223C68.6788 51.1423 68.7948 51.7183 68.7948 52.3503C68.7948 52.9743 68.6788 53.5543 68.4468 54.0903C68.2148 54.6183 67.8908 55.0783 67.4748 55.4703C67.0668 55.8543 66.5828 56.1543 66.0228 56.3703C65.4708 56.5863 64.8668 56.6943 64.2108 56.6943ZM64.1988 55.0383C64.5748 55.0383 64.9188 54.9743 65.2308 54.8463C65.5508 54.7183 65.8308 54.5343 66.0708 54.2943C66.3108 54.0543 66.4948 53.7703 66.6228 53.4423C66.7588 53.1143 66.8268 52.7503 66.8268 52.3503C66.8268 51.9503 66.7588 51.5863 66.6228 51.2583C66.4948 50.9303 66.3108 50.6463 66.0708 50.4063C65.8388 50.1663 65.5628 49.9823 65.2428 49.8543C64.9228 49.7263 64.5748 49.6623 64.1988 49.6623C63.8228 49.6623 63.4748 49.7263 63.1548 49.8543C62.8428 49.9823 62.5668 50.1663 62.3268 50.4063C62.0868 50.6463 61.8988 50.9303 61.7628 51.2583C61.6348 51.5863 61.5708 51.9503 61.5708 52.3503C61.5708 52.7423 61.6348 53.1063 61.7628 53.4423C61.8988 53.7703 62.0828 54.0543 62.3148 54.2943C62.5548 54.5343 62.8348 54.7183 63.1548 54.8463C63.4748 54.9743 63.8228 55.0383 64.1988 55.0383ZM18.0382 66.9303H22.0702V68.4903H18.0382V66.9303ZM18.1822 71.5503H16.2382V63.1503H22.5862V64.7103H18.1822V71.5503ZM25.6903 66.5343H29.7343V68.0463H25.6903V66.5343ZM25.8343 69.9903H30.4062V71.5503H23.9023V63.1503H30.2503V64.7103H25.8343V69.9903ZM31.953 71.5503V63.1503H35.589C36.341 63.1503 36.989 63.2743 37.533 63.5223C38.077 63.7623 38.497 64.1103 38.793 64.5663C39.089 65.0223 39.237 65.5663 39.237 66.1983C39.237 66.8223 39.089 67.3623 38.793 67.8183C38.497 68.2663 38.077 68.6103 37.533 68.8503C36.989 69.0903 36.341 69.2103 35.589 69.2103H33.033L33.897 68.3583V71.5503H31.953ZM37.293 71.5503L35.193 68.5023H37.269L39.393 71.5503H37.293ZM33.897 68.5743L33.033 67.6623H35.481C36.081 67.6623 36.529 67.5343 36.825 67.2783C37.121 67.0143 37.269 66.6543 37.269 66.1983C37.269 65.7343 37.121 65.3743 36.825 65.1183C36.529 64.8623 36.081 64.7343 35.481 64.7343H33.033L33.897 63.8103V68.5743ZM44.8573 71.6943C44.1933 71.6943 43.5773 71.5863 43.0093 71.3703C42.4493 71.1543 41.9613 70.8503 41.5452 70.4583C41.1373 70.0663 40.8173 69.6063 40.5853 69.0783C40.3613 68.5503 40.2493 67.9743 40.2493 67.3503C40.2493 66.7263 40.3613 66.1503 40.5853 65.6223C40.8173 65.0943 41.1413 64.6343 41.5573 64.2423C41.9733 63.8503 42.4613 63.5463 43.0213 63.3303C43.5813 63.1143 44.1893 63.0063 44.8453 63.0063C45.5093 63.0063 46.1172 63.1143 46.6693 63.3303C47.2293 63.5463 47.7133 63.8503 48.1213 64.2423C48.5373 64.6343 48.8613 65.0943 49.0933 65.6223C49.3253 66.1423 49.4413 66.7183 49.4413 67.3503C49.4413 67.9743 49.3253 68.5543 49.0933 69.0903C48.8613 69.6183 48.5373 70.0783 48.1213 70.4703C47.7133 70.8543 47.2293 71.1543 46.6693 71.3703C46.1172 71.5863 45.5132 71.6943 44.8573 71.6943ZM44.8453 70.0383C45.2213 70.0383 45.5653 69.9743 45.8773 69.8463C46.1973 69.7183 46.4773 69.5343 46.7173 69.2943C46.9573 69.0543 47.1413 68.7703 47.2693 68.4423C47.4053 68.1143 47.4733 67.7503 47.4733 67.3503C47.4733 66.9503 47.4053 66.5863 47.2693 66.2583C47.1413 65.9303 46.9573 65.6463 46.7173 65.4063C46.4853 65.1663 46.2093 64.9823 45.8893 64.8543C45.5693 64.7263 45.2213 64.6623 44.8453 64.6623C44.4693 64.6623 44.1213 64.7263 43.8013 64.8543C43.4893 64.9823 43.2133 65.1663 42.9733 65.4063C42.7333 65.6463 42.5453 65.9303 42.4093 66.2583C42.2813 66.5863 42.2173 66.9503 42.2173 67.3503C42.2173 67.7423 42.2813 68.1063 42.4093 68.4423C42.5453 68.7703 42.7293 69.0543 42.9613 69.2943C43.2013 69.5343 43.4813 69.7183 43.8013 69.8463C44.1213 69.9743 44.4693 70.0383 44.8453 70.0383ZM54.9223 71.6943C54.2743 71.6943 53.6703 71.5903 53.1103 71.3823C52.5583 71.1663 52.0783 70.8623 51.6702 70.4703C51.2623 70.0783 50.9423 69.6183 50.7103 69.0903C50.4863 68.5623 50.3743 67.9823 50.3743 67.3503C50.3743 66.7183 50.4863 66.1383 50.7103 65.6103C50.9423 65.0823 51.2623 64.6223 51.6702 64.2303C52.0863 63.8383 52.5703 63.5383 53.1223 63.3303C53.6743 63.1143 54.2783 63.0063 54.9343 63.0063C55.6623 63.0063 56.3183 63.1343 56.9023 63.3903C57.4943 63.6383 57.9903 64.0063 58.3903 64.4943L57.1423 65.6463C56.8543 65.3183 56.5343 65.0743 56.1823 64.9143C55.8303 64.7463 55.4463 64.6623 55.0303 64.6623C54.6383 64.6623 54.2783 64.7263 53.9503 64.8543C53.6223 64.9823 53.3383 65.1663 53.0983 65.4063C52.8583 65.6463 52.6703 65.9303 52.5343 66.2583C52.4063 66.5863 52.3423 66.9503 52.3423 67.3503C52.3423 67.7503 52.4063 68.1143 52.5343 68.4423C52.6703 68.7703 52.8583 69.0543 53.0983 69.2943C53.3383 69.5343 53.6223 69.7183 53.9503 69.8463C54.2783 69.9743 54.6383 70.0383 55.0303 70.0383C55.4463 70.0383 55.8303 69.9583 56.1823 69.7983C56.5343 69.6303 56.8543 69.3783 57.1423 69.0423L58.3903 70.1943C57.9903 70.6823 57.4943 71.0543 56.9023 71.3103C56.3183 71.5663 55.6583 71.6943 54.9223 71.6943ZM61.491 66.5343H65.535V68.0463H61.491V66.5343ZM61.635 69.9903H66.207V71.5503H59.703V63.1503H66.051V64.7103H61.635V69.9903Z" fill="#4A74F0"/>
<g clip-path="url(#clip0_12543_6376)">
<path d="M41.0026 36.6683C42.4754 36.6683 43.6693 35.4744 43.6693 34.0016C43.6693 32.5289 42.4754 31.335 41.0026 31.335C39.5298 31.335 38.3359 32.5289 38.3359 34.0016C38.3359 35.4744 39.5298 36.6683 41.0026 36.6683Z" fill="white"/>
<path d="M38.5013 25.668L36.9763 27.3346H34.3346C33.418 27.3346 32.668 28.0846 32.668 29.0013V39.0013C32.668 39.918 33.418 40.668 34.3346 40.668H47.668C48.5846 40.668 49.3346 39.918 49.3346 39.0013V29.0013C49.3346 28.0846 48.5846 27.3346 47.668 27.3346H45.0263L43.5013 25.668H38.5013ZM41.0013 38.168C38.7013 38.168 36.8346 36.3013 36.8346 34.0013C36.8346 31.7013 38.7013 29.8346 41.0013 29.8346C43.3013 29.8346 45.168 31.7013 45.168 34.0013C45.168 36.3013 43.3013 38.168 41.0013 38.168Z" fill="white"/>
</g>
<defs>
<filter id="filter0_d_12543_6376" x="0" y="0" width="84" height="101" filterUnits="userSpaceOnUse" color-interpolation-filters="sRGB">
<feFlood flood-opacity="0" result="BackgroundImageFix"/>
<feColorMatrix in="SourceAlpha" type="matrix" values="0 0 0 0 0 0 0 0 0 0 0 0 0 0 0 0 0 0 127 0" result="hardAlpha"/>
<feOffset dx="3" dy="4"/>
<feGaussianBlur stdDeviation="2"/>
<feComposite in2="hardAlpha" operator="out"/>
<feColorMatrix type="matrix" values="0 0 0 0 0 0 0 0 0 0 0 0 0 0 0 0 0 0 0.3 0"/>
<feBlend mode="normal" in2="BackgroundImageFix" result="effect1_dropShadow_12543_6376"/>
<feBlend mode="normal" in="SourceGraphic" in2="effect1_dropShadow_12543_6376" result="shape"/>
</filter>
<linearGradient id="paint0_linear_12543_6376" x1="-68.715" y1="-29.5264" x2="-1.59752" y2="151.72" gradientUnits="userSpaceOnUse">
<stop offset="0.0384615" stop-color="white"/>
<stop offset="0.268821" stop-color="white" stop-opacity="0.67"/>
<stop offset="0.303719" stop-color="white"/>
<stop offset="0.381349" stop-color="#FCEFD1"/>
<stop offset="0.497234" stop-color="#F8D78B"/>
<stop offset="0.774038" stop-color="#F2B830"/>
</linearGradient>
<clipPath id="clip0_12543_6376">
<rect width="20" height="20" fill="white" transform="translate(31.002 24.0015)"/>
</clipPath>
</defs>
</svg>
