<svg width="80" height="103" viewBox="0 0 80 103" fill="none" xmlns="http://www.w3.org/2000/svg">
<g filter="url(#filter0_d_12543_6354)">
<rect x="1" width="72" height="95" rx="22" fill="url(#paint0_linear_12543_6354)" shape-rendering="crispEdges"/>
<rect x="1.5" y="0.5" width="71" height="94" rx="21.5" stroke="white" shape-rendering="crispEdges"/>
</g>
<path d="M16.4765 56.439V48.039H20.5805C21.6365 48.039 22.4285 48.239 22.9565 48.639C23.4925 49.039 23.7605 49.567 23.7605 50.223C23.7605 50.663 23.6525 51.047 23.4365 51.375C23.2205 51.695 22.9245 51.943 22.5485 52.119C22.1725 52.295 21.7405 52.383 21.2525 52.383L21.4805 51.891C22.0085 51.891 22.4765 51.979 22.8845 52.155C23.2925 52.323 23.6085 52.575 23.8325 52.911C24.0645 53.247 24.1805 53.659 24.1805 54.147C24.1805 54.867 23.8965 55.431 23.3285 55.839C22.7605 56.239 21.9245 56.439 20.8205 56.439H16.4765ZM18.4085 54.975H20.6765C21.1805 54.975 21.5605 54.895 21.8165 54.735C22.0805 54.567 22.2125 54.303 22.2125 53.943C22.2125 53.591 22.0805 53.331 21.8165 53.163C21.5605 52.987 21.1805 52.899 20.6765 52.899H18.2645V51.483H20.3405C20.8125 51.483 21.1725 51.403 21.4205 51.243C21.6765 51.075 21.8045 50.823 21.8045 50.487C21.8045 50.159 21.6765 49.915 21.4205 49.755C21.1725 49.587 20.8125 49.503 20.3405 49.503H18.4085V54.975ZM24.5482 56.439L28.2923 48.039H30.2123L33.9683 56.439H31.9283L28.8563 49.023H29.6243L26.5403 56.439H24.5482ZM26.4202 54.639L26.9363 53.163H31.2563L31.7843 54.639H26.4202ZM34.8398 56.439V48.039H36.4478L41.4038 54.087H40.6237V48.039H42.5438V56.439H40.9478L35.9798 50.391H36.7598V56.439H34.8398ZM44.5312 56.439V48.039H48.3472C49.2592 48.039 50.0632 48.215 50.7592 48.567C51.4552 48.911 51.9992 49.395 52.3912 50.019C52.7832 50.643 52.9792 51.383 52.9792 52.239C52.9792 53.087 52.7832 53.827 52.3912 54.459C51.9992 55.083 51.4552 55.571 50.7592 55.923C50.0632 56.267 49.2592 56.439 48.3472 56.439H44.5312ZM46.4752 54.843H48.2512C48.8112 54.843 49.2952 54.739 49.7032 54.531C50.1192 54.315 50.4392 54.011 50.6632 53.619C50.8952 53.227 51.0112 52.767 51.0112 52.239C51.0112 51.703 50.8952 51.243 50.6632 50.859C50.4392 50.467 50.1192 50.167 49.7032 49.959C49.2952 49.743 48.8112 49.635 48.2512 49.635H46.4752V54.843ZM53.224 56.439L56.968 48.039H58.888L62.644 56.439H60.604L57.532 49.023H58.3L55.216 56.439H53.224ZM55.096 54.639L55.612 53.163H59.932L60.46 54.639H55.096ZM14.6015 71.439V63.039H18.2375C18.9895 63.039 19.6375 63.163 20.1815 63.411C20.7255 63.651 21.1455 63.999 21.4415 64.455C21.7375 64.911 21.8855 65.455 21.8855 66.087C21.8855 66.711 21.7375 67.251 21.4415 67.707C21.1455 68.163 20.7255 68.515 20.1815 68.763C19.6375 69.003 18.9895 69.123 18.2375 69.123H15.6815L16.5455 68.247V71.439H14.6015ZM16.5455 68.463L15.6815 67.539H18.1295C18.7295 67.539 19.1775 67.411 19.4735 67.155C19.7695 66.899 19.9175 66.543 19.9175 66.087C19.9175 65.623 19.7695 65.263 19.4735 65.007C19.1775 64.751 18.7295 64.623 18.1295 64.623H15.6815L16.5455 63.699V68.463ZM25.0613 66.423H29.1053V67.935H25.0613V66.423ZM25.2053 69.879H29.7773V71.439H23.2733V63.039H29.6213V64.599H25.2053V69.879ZM31.3241 71.439V63.039H33.2681V69.855H37.4801V71.439H31.3241ZM42.5057 71.583C41.8417 71.583 41.2257 71.475 40.6577 71.259C40.0977 71.043 39.6097 70.739 39.1937 70.347C38.7857 69.955 38.4657 69.495 38.2337 68.967C38.0097 68.439 37.8977 67.863 37.8977 67.239C37.8977 66.615 38.0097 66.039 38.2337 65.511C38.4657 64.983 38.7897 64.523 39.2057 64.131C39.6217 63.739 40.1097 63.435 40.6697 63.219C41.2297 63.003 41.8377 62.895 42.4937 62.895C43.1577 62.895 43.7657 63.003 44.3177 63.219C44.8777 63.435 45.3617 63.739 45.7697 64.131C46.1857 64.523 46.5097 64.983 46.7417 65.511C46.9737 66.031 47.0897 66.607 47.0897 67.239C47.0897 67.863 46.9737 68.443 46.7417 68.979C46.5097 69.507 46.1857 69.967 45.7697 70.359C45.3617 70.743 44.8777 71.043 44.3177 71.259C43.7657 71.475 43.1617 71.583 42.5057 71.583ZM42.4937 69.927C42.8697 69.927 43.2137 69.863 43.5257 69.735C43.8457 69.607 44.1257 69.423 44.3657 69.183C44.6057 68.943 44.7897 68.659 44.9177 68.331C45.0537 68.003 45.1217 67.639 45.1217 67.239C45.1217 66.839 45.0537 66.475 44.9177 66.147C44.7897 65.819 44.6057 65.535 44.3657 65.295C44.1337 65.055 43.8577 64.871 43.5377 64.743C43.2177 64.615 42.8697 64.551 42.4937 64.551C42.1177 64.551 41.7697 64.615 41.4497 64.743C41.1377 64.871 40.8617 65.055 40.6217 65.295C40.3817 65.535 40.1937 65.819 40.0577 66.147C39.9297 66.475 39.8657 66.839 39.8657 67.239C39.8657 67.631 39.9297 67.995 40.0577 68.331C40.1937 68.659 40.3777 68.943 40.6097 69.183C40.8497 69.423 41.1297 69.607 41.4497 69.735C41.7697 69.863 42.1177 69.927 42.4937 69.927ZM51.3107 71.583C50.6387 71.583 49.9947 71.495 49.3787 71.319C48.7627 71.135 48.2667 70.899 47.8907 70.611L48.5507 69.147C48.9107 69.403 49.3347 69.615 49.8227 69.783C50.3187 69.943 50.8187 70.023 51.3227 70.023C51.7067 70.023 52.0147 69.987 52.2467 69.915C52.4867 69.835 52.6627 69.727 52.7747 69.591C52.8867 69.455 52.9427 69.299 52.9427 69.123C52.9427 68.899 52.8547 68.723 52.6787 68.595C52.5027 68.459 52.2707 68.351 51.9827 68.271C51.6947 68.183 51.3747 68.103 51.0227 68.031C50.6787 67.951 50.3307 67.855 49.9787 67.743C49.6347 67.631 49.3187 67.487 49.0307 67.311C48.7427 67.135 48.5067 66.903 48.3227 66.615C48.1467 66.327 48.0587 65.959 48.0587 65.511C48.0587 65.031 48.1867 64.595 48.4427 64.203C48.7067 63.803 49.0987 63.487 49.6187 63.255C50.1467 63.015 50.8067 62.895 51.5987 62.895C52.1267 62.895 52.6467 62.959 53.1587 63.087C53.6707 63.207 54.1227 63.391 54.5147 63.639L53.9147 65.115C53.5227 64.891 53.1307 64.727 52.7387 64.623C52.3467 64.511 51.9627 64.455 51.5867 64.455C51.2107 64.455 50.9027 64.499 50.6627 64.587C50.4227 64.675 50.2507 64.791 50.1467 64.935C50.0427 65.071 49.9907 65.231 49.9907 65.415C49.9907 65.631 50.0787 65.807 50.2547 65.943C50.4307 66.071 50.6627 66.175 50.9507 66.255C51.2387 66.335 51.5547 66.415 51.8987 66.495C52.2507 66.575 52.5987 66.667 52.9427 66.771C53.2947 66.875 53.6147 67.015 53.9027 67.191C54.1907 67.367 54.4227 67.599 54.5987 67.887C54.7827 68.175 54.8747 68.539 54.8747 68.979C54.8747 69.451 54.7427 69.883 54.4787 70.275C54.2147 70.667 53.8187 70.983 53.2907 71.223C52.7707 71.463 52.1107 71.583 51.3107 71.583ZM55.099 71.439L58.843 63.039H60.763L64.519 71.439H62.479L59.407 64.023H60.175L57.091 71.439H55.099ZM56.971 69.639L57.487 68.163H61.807L62.335 69.639H56.971Z" fill="#4A74F0"/>
<g clip-path="url(#clip0_12543_6354)">
<path d="M31.0618 35.5016C31.6947 35.5016 32.2077 34.9886 32.2077 34.3558C32.2077 33.723 31.6947 33.21 31.0618 33.21C30.429 33.21 29.916 33.723 29.916 34.3558C29.916 34.9886 30.429 35.5016 31.0618 35.5016Z" fill="white"/>
<path d="M33.1243 33.6681C33.7572 33.6681 34.2702 33.1551 34.2702 32.5223C34.2702 31.8895 33.7572 31.3765 33.1243 31.3765C32.4915 31.3765 31.9785 31.8895 31.9785 32.5223C31.9785 33.1551 32.4915 33.6681 33.1243 33.6681Z" fill="white"/>
<path d="M35.8743 33.6681C36.5072 33.6681 37.0202 33.1551 37.0202 32.5223C37.0202 31.8895 36.5072 31.3765 35.8743 31.3765C35.2415 31.3765 34.7285 31.8895 34.7285 32.5223C34.7285 33.1551 35.2415 33.6681 35.8743 33.6681Z" fill="white"/>
<path d="M37.9368 35.5016C38.5697 35.5016 39.0827 34.9886 39.0827 34.3558C39.0827 33.723 38.5697 33.21 37.9368 33.21C37.304 33.21 36.791 33.723 36.791 34.3558C36.791 34.9886 37.304 35.5016 37.9368 35.5016Z" fill="white"/>
<path d="M36.9472 36.8123C36.5485 36.3448 36.2139 35.946 35.8106 35.4785C35.5997 35.231 35.3293 34.9835 35.0085 34.8735C34.9581 34.8552 34.9076 34.8415 34.8572 34.8323C34.7426 34.814 34.6189 34.814 34.4997 34.814C34.3806 34.814 34.2568 34.814 34.1376 34.8369C34.0872 34.846 34.0368 34.8598 33.9864 34.8781C33.6656 34.9881 33.3997 35.2356 33.1843 35.4831C32.7856 35.9506 32.451 36.3494 32.0476 36.8169C31.4472 37.4173 30.7093 38.0819 30.8468 39.0123C30.9797 39.4798 31.3143 39.9427 31.9147 40.0756C32.2493 40.1444 33.3172 39.874 34.4539 39.874H34.5364C35.6731 39.874 36.741 40.1398 37.0756 40.0756C37.676 39.9427 38.0106 39.4752 38.1435 39.0123C38.2856 38.0773 37.5476 37.4127 36.9472 36.8123Z" fill="white"/>
</g>
<g clip-path="url(#clip1_12543_6354)">
<path d="M38.0618 27.5016C38.6947 27.5016 39.2077 26.9886 39.2077 26.3558C39.2077 25.723 38.6947 25.21 38.0618 25.21C37.429 25.21 36.916 25.723 36.916 26.3558C36.916 26.9886 37.429 27.5016 38.0618 27.5016Z" fill="white"/>
<path d="M40.1243 25.6681C40.7572 25.6681 41.2702 25.1551 41.2702 24.5223C41.2702 23.8895 40.7572 23.3765 40.1243 23.3765C39.4915 23.3765 38.9785 23.8895 38.9785 24.5223C38.9785 25.1551 39.4915 25.6681 40.1243 25.6681Z" fill="white"/>
<path d="M42.8743 25.6681C43.5072 25.6681 44.0202 25.1551 44.0202 24.5223C44.0202 23.8895 43.5072 23.3765 42.8743 23.3765C42.2415 23.3765 41.7285 23.8895 41.7285 24.5223C41.7285 25.1551 42.2415 25.6681 42.8743 25.6681Z" fill="white"/>
<path d="M44.9368 27.5016C45.5697 27.5016 46.0827 26.9886 46.0827 26.3558C46.0827 25.723 45.5697 25.21 44.9368 25.21C44.304 25.21 43.791 25.723 43.791 26.3558C43.791 26.9886 44.304 27.5016 44.9368 27.5016Z" fill="white"/>
<path d="M43.9472 28.8123C43.5485 28.3448 43.2139 27.946 42.8106 27.4785C42.5997 27.231 42.3293 26.9835 42.0085 26.8735C41.9581 26.8552 41.9076 26.8415 41.8572 26.8323C41.7426 26.814 41.6189 26.814 41.4997 26.814C41.3806 26.814 41.2568 26.814 41.1376 26.8369C41.0872 26.846 41.0368 26.8598 40.9864 26.8781C40.6656 26.9881 40.3997 27.2356 40.1843 27.4831C39.7856 27.9506 39.451 28.3494 39.0476 28.8169C38.4472 29.4173 37.7093 30.0819 37.8468 31.0123C37.9797 31.4798 38.3143 31.9427 38.9147 32.0756C39.2493 32.1444 40.3172 31.874 41.4539 31.874H41.5364C42.6731 31.874 43.741 32.1398 44.0756 32.0756C44.676 31.9427 45.0106 31.4752 45.1435 31.0123C45.2856 30.0773 44.5476 29.4127 43.9472 28.8123Z" fill="white"/>
</g>
<defs>
<filter id="filter0_d_12543_6354" x="0" y="0" width="80" height="103" filterUnits="userSpaceOnUse" color-interpolation-filters="sRGB">
<feFlood flood-opacity="0" result="BackgroundImageFix"/>
<feColorMatrix in="SourceAlpha" type="matrix" values="0 0 0 0 0 0 0 0 0 0 0 0 0 0 0 0 0 0 127 0" result="hardAlpha"/>
<feOffset dx="3" dy="4"/>
<feGaussianBlur stdDeviation="2"/>
<feComposite in2="hardAlpha" operator="out"/>
<feColorMatrix type="matrix" values="0 0 0 0 0 0 0 0 0 0 0 0 0 0 0 0 0 0 0.3 0"/>
<feBlend mode="normal" in2="BackgroundImageFix" result="effect1_dropShadow_12543_6354"/>
<feBlend mode="normal" in="SourceGraphic" in2="effect1_dropShadow_12543_6354" result="shape"/>
</filter>
<linearGradient id="paint0_linear_12543_6354" x1="-65.0458" y1="-30.1614" x2="7.45835" y2="151.421" gradientUnits="userSpaceOnUse">
<stop offset="0.0384615" stop-color="white"/>
<stop offset="0.268821" stop-color="white" stop-opacity="0.67"/>
<stop offset="0.303719" stop-color="white"/>
<stop offset="0.381349" stop-color="#FCEFD1"/>
<stop offset="0.497234" stop-color="#F8D78B"/>
<stop offset="0.774038" stop-color="#F2B830"/>
</linearGradient>
<clipPath id="clip0_12543_6354">
<rect width="11" height="11" fill="white" transform="translate(29 30.0015)"/>
</clipPath>
<clipPath id="clip1_12543_6354">
<rect width="11" height="11" fill="white" transform="translate(36 22.0015)"/>
</clipPath>
</defs>
</svg>
