<svg width="80" height="103" viewBox="0 0 80 103" fill="none" xmlns="http://www.w3.org/2000/svg">
<g filter="url(#filter0_d_12543_6371)">
<rect x="1" width="72" height="95" rx="22" fill="url(#paint0_linear_12543_6371)" shape-rendering="crispEdges"/>
<rect x="1.5" y="0.5" width="71" height="94" rx="21.5" stroke="white" shape-rendering="crispEdges"/>
</g>
<path d="M24.3058 51.0465H28.3378V52.6065H24.3058V51.0465ZM24.4498 55.6665H22.5058V47.2665H28.8538V48.8265H24.4498V55.6665ZM28.726 55.6665L32.47 47.2665H34.39L38.146 55.6665H36.106L33.034 48.2505H33.802L30.718 55.6665H28.726ZM30.598 53.8665L31.114 52.3905H35.434L35.962 53.8665H30.598ZM40.3356 55.6665V48.8505H37.6476V47.2665H44.9676V48.8505H42.2796V55.6665H40.3356ZM47.8708 55.6665V48.8505H45.1828V47.2665H52.5028V48.8505H49.8148V55.6665H47.8708ZM53.5487 55.6665V47.2665H55.4927V55.6665H53.5487ZM11.7538 70.6665V62.2665H15.8578C16.9138 62.2665 17.7058 62.4665 18.2338 62.8665C18.7698 63.2665 19.0378 63.7945 19.0378 64.4505C19.0378 64.8905 18.9298 65.2745 18.7138 65.6025C18.4978 65.9225 18.2018 66.1705 17.8258 66.3465C17.4498 66.5225 17.0178 66.6105 16.5298 66.6105L16.7578 66.1185C17.2858 66.1185 17.7538 66.2065 18.1618 66.3825C18.5698 66.5505 18.8858 66.8025 19.1098 67.1385C19.3418 67.4745 19.4578 67.8865 19.4578 68.3745C19.4578 69.0945 19.1738 69.6585 18.6058 70.0665C18.0378 70.4665 17.2018 70.6665 16.0978 70.6665H11.7538ZM13.6858 69.2025H15.9538C16.4578 69.2025 16.8378 69.1225 17.0938 68.9625C17.3578 68.7945 17.4898 68.5305 17.4898 68.1705C17.4898 67.8185 17.3578 67.5585 17.0938 67.3905C16.8378 67.2145 16.4578 67.1265 15.9538 67.1265H13.5418V65.7105H15.6178C16.0898 65.7105 16.4498 65.6305 16.6978 65.4705C16.9538 65.3025 17.0818 65.0505 17.0818 64.7145C17.0818 64.3865 16.9538 64.1425 16.6978 63.9825C16.4498 63.8145 16.0898 63.7305 15.6178 63.7305H13.6858V69.2025ZM22.7176 65.6505H26.7616V67.1625H22.7176V65.6505ZM22.8616 69.1065H27.4336V70.6665H20.9296V62.2665H27.2776V63.8265H22.8616V69.1065ZM31.7404 70.8105C31.0684 70.8105 30.4244 70.7225 29.8084 70.5465C29.1924 70.3625 28.6964 70.1265 28.3204 69.8385L28.9804 68.3745C29.3404 68.6305 29.7644 68.8425 30.2524 69.0105C30.7484 69.1705 31.2484 69.2505 31.7524 69.2505C32.1364 69.2505 32.4444 69.2145 32.6764 69.1425C32.9164 69.0625 33.0924 68.9545 33.2044 68.8185C33.3164 68.6825 33.3724 68.5265 33.3724 68.3505C33.3724 68.1265 33.2844 67.9505 33.1084 67.8225C32.9324 67.6865 32.7004 67.5785 32.4124 67.4985C32.1244 67.4105 31.8044 67.3305 31.4524 67.2585C31.1084 67.1785 30.7604 67.0825 30.4084 66.9705C30.0644 66.8585 29.7484 66.7145 29.4604 66.5385C29.1724 66.3625 28.9364 66.1305 28.7524 65.8425C28.5764 65.5545 28.4884 65.1865 28.4884 64.7385C28.4884 64.2585 28.6164 63.8225 28.8724 63.4305C29.1364 63.0305 29.5284 62.7145 30.0484 62.4825C30.5764 62.2425 31.2364 62.1225 32.0284 62.1225C32.5564 62.1225 33.0764 62.1865 33.5884 62.3145C34.1004 62.4345 34.5524 62.6185 34.9444 62.8665L34.3444 64.3425C33.9524 64.1185 33.5604 63.9545 33.1684 63.8505C32.7764 63.7385 32.3924 63.6825 32.0164 63.6825C31.6404 63.6825 31.3324 63.7265 31.0924 63.8145C30.8524 63.9025 30.6804 64.0185 30.5764 64.1625C30.4724 64.2985 30.4204 64.4585 30.4204 64.6425C30.4204 64.8585 30.5084 65.0345 30.6844 65.1705C30.8604 65.2985 31.0924 65.4025 31.3804 65.4825C31.6684 65.5625 31.9844 65.6425 32.3284 65.7225C32.6804 65.8025 33.0284 65.8945 33.3724 65.9985C33.7244 66.1025 34.0444 66.2425 34.3324 66.4185C34.6204 66.5945 34.8524 66.8265 35.0284 67.1145C35.2124 67.4025 35.3044 67.7665 35.3044 68.2065C35.3044 68.6785 35.1724 69.1105 34.9084 69.5025C34.6444 69.8945 34.2484 70.2105 33.7204 70.4505C33.2004 70.6905 32.5404 70.8105 31.7404 70.8105ZM38.2555 70.6665V63.8505H35.5675V62.2665H42.8875V63.8505H40.1995V70.6665H38.2555ZM43.9335 70.6665V62.2665H45.8775V70.6665H43.9335ZM46.767 70.6665L50.511 62.2665H52.431L56.187 70.6665H54.147L51.075 63.2505H51.843L48.759 70.6665H46.767ZM48.639 68.8665L49.155 67.3905H53.475L54.003 68.8665H48.639ZM57.0585 70.6665V62.2665H59.0025V69.0825H63.2145V70.6665H57.0585ZM64.3007 70.6665V62.2665H66.2447V70.6665H64.3007Z" fill="#4A74F0"/>
<path d="M40.6673 22.668H34.0007C33.084 22.668 32.334 23.418 32.334 24.3346V37.668C32.334 38.5846 33.084 39.3346 34.0007 39.3346H44.0007C44.9173 39.3346 45.6673 38.5846 45.6673 37.668V27.668L40.6673 22.668ZM42.334 36.0013H35.6673V34.3346H42.334V36.0013ZM42.334 32.668H35.6673V31.0013H42.334V32.668ZM39.834 28.5013V23.918L44.4173 28.5013H39.834Z" fill="white"/>
<defs>
<filter id="filter0_d_12543_6371" x="0" y="0" width="80" height="103" filterUnits="userSpaceOnUse" color-interpolation-filters="sRGB">
<feFlood flood-opacity="0" result="BackgroundImageFix"/>
<feColorMatrix in="SourceAlpha" type="matrix" values="0 0 0 0 0 0 0 0 0 0 0 0 0 0 0 0 0 0 127 0" result="hardAlpha"/>
<feOffset dx="3" dy="4"/>
<feGaussianBlur stdDeviation="2"/>
<feComposite in2="hardAlpha" operator="out"/>
<feColorMatrix type="matrix" values="0 0 0 0 0 0 0 0 0 0 0 0 0 0 0 0 0 0 0.3 0"/>
<feBlend mode="normal" in2="BackgroundImageFix" result="effect1_dropShadow_12543_6371"/>
<feBlend mode="normal" in="SourceGraphic" in2="effect1_dropShadow_12543_6371" result="shape"/>
</filter>
<linearGradient id="paint0_linear_12543_6371" x1="-65.0458" y1="-30.1614" x2="7.45835" y2="151.421" gradientUnits="userSpaceOnUse">
<stop offset="0.0384615" stop-color="white"/>
<stop offset="0.268821" stop-color="white" stop-opacity="0.67"/>
<stop offset="0.303719" stop-color="white"/>
<stop offset="0.381349" stop-color="#FCEFD1"/>
<stop offset="0.497234" stop-color="#F8D78B"/>
<stop offset="0.774038" stop-color="#F2B830"/>
</linearGradient>
</defs>
</svg>
